SplineFontDB: 3.0
FontName: Neuton-Italic
FullName: Neuton Italic
FamilyName: Neuton
Weight: Normal
Copyright: 
Version: 1.001;PS (version unavailable);hotconv 1.0.57;makeotf.lib2.0.21895 DEVELOPMENT
ItalicAngle: 0
UnderlinePosition: -99.9763
UnderlineWidth: 99.9763
Ascent: 1580
Descent: 468
LayerCount: 2
Layer: 0 0 "Back"  1
Layer: 1 0 "Fore"  0
NeedsXUIDChange: 1
XUID: [1021 467 2011608612 15162558]
FSType: 4
OS2Version: 3
OS2_WeightWidthSlopeOnly: 0
OS2_UseTypoMetrics: 1
CreationTime: 1291031792
ModificationTime: 1291068292
PfmFamily: 81
TTFWeight: 400
TTFWidth: 5
LineGap: 400
VLineGap: 0
Panose: 0 0 0 0 0 0 0 0 0 0
OS2TypoAscent: 0
OS2TypoAOffset: 1
OS2TypoDescent: 0
OS2TypoDOffset: 1
OS2TypoLinegap: 400
OS2WinAscent: 0
OS2WinAOffset: 1
OS2WinDescent: 0
OS2WinDOffset: 1
HheadAscent: -510
HheadAOffset: 1
HheadDescent: 38
HheadDOffset: 1
OS2SubXSize: 1330
OS2SubYSize: 1228
OS2SubXOff: 0
OS2SubYOff: 152
OS2SupXSize: 1330
OS2SupYSize: 1228
OS2SupXOff: 0
OS2SupYOff: 716
OS2StrikeYSize: 100
OS2StrikeYPos: 646
OS2Vendor: 'NONE'
OS2CodePages: 20000083.00000000
OS2UnicodeRanges: 00000007.00000000.00000000.00000000
DEI: 91125
LangName: 1033 "" "Neuton Italic" "Regular" "1.001;NONE;Neuton-Italic" "Neuton-Italic" "Version 1.001;PS (version unavailable);hotconv 1.0.57;makeotf.lib2.0.21895 DEVELOPMENT" "" "" "" "" "" "" "" "" "" "" "Neuton" "Italic" 
Encoding: UnicodeFull
UnicodeInterp: none
NameList: Adobe Glyph List
DisplaySize: -24
AntiAlias: 1
FitToEm: 1
WinInfo: 108 27 13
BeginPrivate: 2
BlueScale 8 0.039625
ExpansionFactor 4 0.06
EndPrivate
BeginChars: 1114125 325

StartChar: .notdef
Encoding: 1114112 -1 0
Width: 1024
Flags: W
HStem: -468 102<204 820> 1478 102<204 820>
VStem: 102 102<-366 1478> 820 102<-366 1478>
LayerCount: 2
Fore
SplineSet
102 -468 m 1
 102 1580 l 1
 922 1580 l 1
 922 -468 l 1
 102 -468 l 1
204 -366 m 1
 820 -366 l 1
 820 1478 l 1
 204 1478 l 1
 204 -366 l 1
EndSplineSet
Validated: 1
EndChar

StartChar: exclam
Encoding: 33 33 2
Width: 587
Flags: W
HStem: -40 298<219.652 406.654>
VStem: 164 294<12.1766 203.29> 312 104<456 611.848>
LayerCount: 2
Fore
SplineSet
164 88 m 0xc0
 164 186 240 258 334 258 c 0
 412 258 458 194 458 128 c 0
 458 28 384 -40 292 -40 c 0
 226 -40 164 28 164 88 c 0xc0
416 440 m 1xa0
 416 432 l 1
 312 456 l 1
 312 460 l 1
 344 850 394 1382 414 1514 c 1
 416 1518 l 1
 430 1552 540 1566 584 1566 c 0
 614 1566 654 1556 654 1524 c 0
 654 1522 654 1520 654 1518 c 0
 622 1314 510 830 416 440 c 1xa0
EndSplineSet
Validated: 1
EndChar

StartChar: quotedbl
Encoding: 34 34 3
Width: 673
Flags: W
HStem: 1080 498
VStem: 334 116<1094 1150.37> 586 116<1094 1150.37>
LayerCount: 2
Fore
SplineSet
600 1578 m 1
 820 1558 l 1
 702 1094 l 1
 586 1080 l 1
 600 1578 l 1
348 1578 m 1
 568 1558 l 1
 450 1094 l 1
 334 1080 l 1
 348 1578 l 1
EndSplineSet
Validated: 1
EndChar

StartChar: numbersign
Encoding: 35 35 4
Width: 1137
Flags: W
HStem: 440 122<194 348 514 720 886 1032> 818 122<320 468 632 840 1004 1160>
DStem2: 280 206 410 216 0.296209 0.955123<48.0584 243.641 409.337 640.223 805.326 991.817> 652 206 782 216 0.29862 0.954372<48.3643 243.629 409.633 640.216 805.623 991.228>
LayerCount: 2
Fore
SplineSet
474 440 m 1
 410 216 l 1
 280 206 l 1
 348 440 l 1
 144 440 l 1
 194 562 l 1
 390 562 l 1
 468 818 l 1
 272 818 l 1
 320 940 l 1
 508 940 l 1
 578 1152 l 1
 704 1164 l 1
 632 940 l 1
 880 940 l 1
 948 1152 l 1
 1074 1162 l 1
 1004 940 l 1
 1208 940 l 1
 1160 818 l 1
 964 818 l 1
 886 562 l 1
 1080 562 l 1
 1032 440 l 1
 844 440 l 1
 782 216 l 1
 652 206 l 1
 720 440 l 1
 474 440 l 1
514 562 m 1
 760 562 l 1
 840 818 l 1
 592 818 l 1
 514 562 l 1
EndSplineSet
Validated: 1
EndChar

StartChar: dollar
Encoding: 36 36 5
Width: 1081
Flags: W
HStem: -30 120<362.922 470> 1072 21G<986 1080.35> 1432 102<629.06 730>
VStem: 152 98<403.693 456> 280 240<1026.15 1267.34> 856 240<287.814 494.559> 986 90<1092 1230.58>
DStem2: 504 90 614 104 0.165853 0.986151<32.0499 532.145 869.023 1361.56>
LayerCount: 2
Fore
SplineSet
1076 1072 m 1xfa
 986 1092 l 1xfa
 962 1324 l 2
 960 1344 906 1394 838 1418 c 1
 754 884 l 1
 926 770 1096 688 1096 460 c 0xfc
 1096 214 848 24 610 -18 c 1
 592 -134 l 1
 448 -134 l 1
 470 -30 l 1
 464 -30 l 2
 288 -30 162 36 84 148 c 1
 152 472 l 1
 250 456 l 1
 274 226 l 1
 316 148 410 94 504 90 c 1
 590 638 l 1
 422 744 280 848 280 1092 c 0
 280 1344 516 1510 730 1534 c 1
 744 1626 l 1
 888 1626 l 1
 874 1536 l 1
 972 1528 1070 1496 1150 1412 c 1
 1150 1402 1076 1072 1076 1072 c 1xfa
654 946 m 1
 734 1432 l 1
 630 1420 520 1332 520 1192 c 0
 520 1078 554 1002 654 946 c 1
692 598 m 1
 614 104 l 1
 720 130 856 228 856 380 c 0xfc
 856 472 792 530 692 598 c 1
EndSplineSet
Validated: 1
EndChar

StartChar: percent
Encoding: 37 37 6
Width: 1383
Flags: W
HStem: -42 100<976.299 1156.88> 462 98<1023.26 1206.22> 576 100<377.041 556.881> 1080 97<423.262 606.222>
VStem: 200 156<693.933 985.378> 628 148<762.807 1062.71> 800 156<74.0935 364.63> 1228 148<144.807 444.864>
DStem2: 218 -34 362 -46 0.633653 0.773617<81.9627 1571.84>
LayerCount: 2
Fore
SplineSet
956 238 m 0
 956 124 970 58 1060 58 c 0
 1162 58 1228 178 1228 294 c 0
 1228 394 1214 462 1122 462 c 0
 1018 462 956 342 956 238 c 0
1376 286 m 0
 1376 122 1186 -42 1044 -42 c 0
 891 -42 800 52 800 224 c 0
 800 384 990 560 1138 560 c 0
 1310 560 1376 450 1376 286 c 0
356 860 m 0
 356 746 370 676 460 676 c 0
 562 676 628 796 628 912 c 0
 628 1012 614 1080 522 1080 c 0
 418 1080 356 964 356 860 c 0
776 904 m 0
 776 740 586 576 444 576 c 0
 291 576 200 674 200 846 c 0
 200 1006 390 1177 538 1177 c 0
 710 1177 776 1068 776 904 c 0
1214 1182 m 1
 1348 1172 l 1
 362 -46 l 1
 218 -34 l 1
 1214 1182 l 1
EndSplineSet
Validated: 1
EndChar

StartChar: ampersand
Encoding: 38 38 7
Width: 1539
Flags: W
HStem: -24 152<417.269 684.421> 922 92<1188 1218.2 1639.31 1706> 1438 102<673.19 902.566>
VStem: 80 240<232.042 505.837> 384 200<1076.45 1295.8> 952 212<1122.58 1387.6>
DStem2: 810 854 572 762 0.643361 -0.765563<0 445.824 572.634 944.993> 1096 512 1168 428 0.586019 0.810297<0 445.244>
LayerCount: 2
Fore
SplineSet
1492 876 m 1
 1168 428 l 1
 1230 348 1408 129 1512 96 c 2
 1550 84 l 1
 1520 0 l 1
 1464 -18 1416 -24 1370 -24 c 0
 1236 -24 1114 112 998 264 c 1
 902 152 730 -24 458 -24 c 0
 190 -24 80 144 80 324 c 0
 80 592 342 764 508 850 c 1
 446 910 384 1002 384 1148 c 0
 384 1332 614 1540 822 1540 c 0
 1016 1540 1164 1476 1164 1252 c 0
 1164 1092 958 948 812 868 c 1
 810 854 l 1
 1096 512 l 1
 1358 872 l 1
 1162 922 l 1
 1188 1014 l 1
 1732 1014 l 1
 1706 922 l 1
 1492 876 l 1
572 762 m 1
 552 764 l 1
 462 708 320 580 320 440 c 0
 320 284 370 128 554 128 c 0
 736 128 894 296 926 342 c 1
 572 762 l 1
584 1220 m 0
 584 1102 676 998 742 936 c 1
 868 1012 952 1110 952 1228 c 0
 952 1356 910 1438 782 1438 c 0
 672 1438 584 1320 584 1220 c 0
EndSplineSet
Validated: 1
EndChar

StartChar: quoteright
Encoding: 8217 8217 8
Width: 459
Flags: W
HStem: 908 84<7.61067 96.7563> 1332 220<122 299>
VStem: 250 186<1172.67 1418>
LayerCount: 2
Fore
SplineSet
10 908 m 1
 -4 992 l 1
 158 1034 250 1136 250 1214 c 0
 250 1280 214 1332 128 1332 c 0
 116 1332 106 1328 92 1324 c 1
 86 1350 84 1360 84 1390 c 0
 84 1490 195 1552 257 1552 c 0
 341 1552 436 1510 436 1326 c 0
 436 1212 340 992 10 908 c 1
EndSplineSet
Validated: 1
EndChar

StartChar: parenleft
Encoding: 40 40 9
Width: 575
Flags: W
HStem: 1500 20G<662 720>
VStem: 128 208<-48.8933 669.587>
LayerCount: 2
Fore
SplineSet
484 -384 m 1
 390 -454 l 1
 336 -396 128 -182 128 304 c 0
 128 1076 616 1452 708 1520 c 1
 756 1440 l 1
 630 1304 336 920 336 244 c 0
 336 -60 444 -296 484 -384 c 1
EndSplineSet
Validated: 1
EndChar

StartChar: parenright
Encoding: 41 41 10
Width: 575
Flags: W
HStem: 1500 20G<330 382>
VStem: 416 208<475.055 1133.64>
LayerCount: 2
Fore
SplineSet
-30 -384 m 1
 36 -296 416 172 416 888 c 0
 416 1140 358 1304 276 1440 c 1
 348 1520 l 1
 416 1452 624 1268 624 796 c 0
 624 44 112 -396 42 -454 c 1
 -30 -384 l 1
EndSplineSet
Validated: 1
EndChar

StartChar: asterisk
Encoding: 42 42 11
Width: 1015
Flags: W
VStem: 656 88<1202 1260.01>
LayerCount: 2
Fore
SplineSet
992 838 m 1
 834 754 l 1
 702 1054 l 1
 774 1116 l 1
 992 838 l 1
456 718 m 1
 350 830 l 1
 622 1094 l 1
 694 1054 l 1
 456 718 l 1
260 1168 m 1
 350 1322 l 1
 650 1184 l 1
 622 1098 l 1
 260 1168 l 1
668 1566 m 1
 830 1550 l 1
 744 1202 l 1
 656 1188 l 1
 668 1566 l 1
1118 1360 m 1
 1128 1198 l 1
 774 1120 l 1
 746 1198 l 1
 1118 1360 l 1
EndSplineSet
Validated: 1
EndChar

StartChar: plus
Encoding: 43 43 12
Width: 865
Flags: W
HStem: 496 122<178 414 564 798>
DStem2: 370 224 502 210 0.15536 0.987858<6.67757 275.533 419.356 682.284>
LayerCount: 2
Fore
SplineSet
546 496 m 1
 502 210 l 1
 370 224 l 1
 414 496 l 1
 146 496 l 1
 178 618 l 1
 432 618 l 1
 476 898 l 1
 604 884 l 1
 564 618 l 1
 830 618 l 1
 798 496 l 1
 546 496 l 1
EndSplineSet
Validated: 1
EndChar

StartChar: comma
Encoding: 44 44 13
Width: 441
Flags: W
HStem: -380 84<-10.3893 78.7563> 44 220<104 280>
VStem: 232 186<-115.332 130>
LayerCount: 2
Fore
SplineSet
-8 -380 m 1
 -22 -296 l 1
 140 -254 232 -152 232 -74 c 0
 232 -8 196 44 110 44 c 0
 98 44 88 40 74 36 c 1
 68 62 66 72 66 102 c 0
 66 202 176 264 238 264 c 0
 322 264 418 222 418 38 c 0
 418 -76 322 -296 -8 -380 c 1
EndSplineSet
Validated: 1
EndChar

StartChar: hyphen
Encoding: 45 45 14
Width: 689
Flags: W
HStem: 482 122<110 417.908> 504 122<282.092 590>
VStem: 96 508
LayerCount: 2
Fore
SplineSet
110 604 m 1xa0
 604 626 l 1
 590 504 l 1x60
 96 482 l 1
 110 604 l 1xa0
EndSplineSet
Validated: 1
EndChar

StartChar: period
Encoding: 46 46 15
Width: 517
Flags: W
HStem: -40 298<167.652 354.654>
VStem: 112 294<12.1766 203.29>
LayerCount: 2
Fore
SplineSet
112 88 m 0
 112 186 188 258 282 258 c 0
 360 258 406 194 406 128 c 0
 406 28 332 -40 240 -40 c 0
 174 -40 112 28 112 88 c 0
EndSplineSet
Validated: 1
EndChar

StartChar: slash
Encoding: 47 47 16
Width: 663
Flags: W
HStem: 1486 20G<532 686.174>
DStem2: -28 -440 128 -430 0.279695 0.960089<53.2334 2015.36>
LayerCount: 2
Fore
SplineSet
532 1496 m 1
 692 1506 l 1
 128 -430 l 1
 -28 -440 l 1
 532 1496 l 1
EndSplineSet
Validated: 1
EndChar

StartChar: zero
Encoding: 48 48 17
Width: 1189
Flags: W
HStem: -32 120<491.711 779.032> 1302 118<626.41 902.026>
VStem: 184 200<257.129 865.539> 1004 196<503.988 1136.54>
LayerCount: 2
Fore
SplineSet
388 656 m 0
 384 598 384 546 384 498 c 0
 384 354 404 248 446 184 c 0
 488 120 546 88 618 88 c 0
 668 88 716 100 764 124 c 0
 810 148 850 190 886 250 c 0
 922 310 950 392 972 496 c 1
 992 600 1004 730 1004 888 c 0
 1004 1018 986 1120 950 1192 c 0
 914 1264 858 1302 786 1302 c 0
 726 1302 676 1288 632 1262 c 1
 588 1234 552 1200 522 1156 c 0
 492 1112 468 1062 450 1006 c 0
 432 950 418 892 408 832 c 0
 398 772 392 714 388 656 c 0
1172 1086 m 1
 1190 1014 1200 934 1200 846 c 0
 1200 702 1180 574 1144 466 c 1
 1106 356 1058 264 1000 190 c 0
 942 116 878 60 806 24 c 0
 734 -12 666 -32 600 -32 c 0
 542 -32 488 -18 438 4 c 0
 386 28 342 62 306 110 c 1
 268 158 238 218 218 290 c 1
 196 362 184 446 184 542 c 0
 184 674 204 794 240 902 c 0
 276 1010 322 1101 380 1177 c 0
 438 1253 504 1314 576 1356 c 0
 648 1398 722 1420 798 1420 c 0
 858 1420 914 1406 964 1380 c 1
 1012 1352 1054 1314 1090 1266 c 1
 1126 1216 1152 1156 1172 1086 c 1
EndSplineSet
Validated: 1
EndChar

StartChar: one
Encoding: 49 49 18
Width: 1189
Flags: W
HStem: 0 88<180 270.795 943.518 1018> 1218 92<374 453.326>
DStem2: 522 142 726 134 0.139231 0.99026<20.481 1086.68>
LayerCount: 2
Fore
SplineSet
726 134 m 1
 1042 98 l 1
 1018 0 l 1
 158 0 l 1
 180 88 l 1
 522 142 l 1
 674 1218 l 1
 354 1218 l 1
 374 1310 l 1
 872 1400 l 1
 904 1400 l 1
 726 134 l 1
EndSplineSet
Validated: 1
EndChar

StartChar: two
Encoding: 50 50 19
Width: 1189
Flags: W
HStem: 0 164<359 908> 1270 160<636.849 874.626>
VStem: 944 220<888.081 1198.65>
DStem2: 440 366 462 252 0.789871 0.613274<-187.861 520.112>
LayerCount: 2
Fore
SplineSet
114 0 m 1
 124 124 l 1
 440 366 l 1
 616 506 l 2
 676 554 730 606 778 662 c 0
 826 718 866 776 898 838 c 1
 928 900 944 966 944 1038 c 0
 944 1070 940 1100 932 1128 c 0
 924 1156 914 1180 898 1202 c 1
 882 1222 860 1240 834 1252 c 0
 806 1264 774 1270 734 1270 c 0
 692 1270 654 1260 618 1242 c 1
 582 1222 550 1198 522 1170 c 1
 494 1140 468 1108 444 1072 c 0
 420 1036 398 1000 382 968 c 1
 290 1004 l 1
 308 1052 334 1102 370 1154 c 1
 406 1204 446 1250 494 1292 c 1
 542 1332 594 1366 650 1392 c 1
 706 1416 766 1430 828 1430 c 0
 940 1430 1024 1400 1080 1342 c 0
 1136 1284 1164 1202 1164 1098 c 0
 1164 1000 1138 910 1088 830 c 0
 1036 748 974 672 902 604 c 1
 830 534 752 470 672 412 c 0
 592 354 522 300 462 252 c 1
 359 164 l 1
 908 164 l 1
 1050 370 l 1
 1132 359 l 1
 1016 0 l 1
 114 0 l 1
EndSplineSet
Validated: 1
EndChar

StartChar: three
Encoding: 51 51 20
Width: 1189
Flags: W
HStem: -36 104<399.448 689.878> 654 78<494 592.115> 1278 156<611.74 830.34>
VStem: 834 220<276.44 515.618> 880 220<999.225 1228.67>
LayerCount: 2
Fore
SplineSet
188 204 m 0xf0
 218 230 260 246 312 252 c 1
 312 240 316 222 326 202 c 0
 336 182 350 162 368 142 c 0
 386 122 408 104 432 90 c 1
 456 74 482 68 510 68 c 0
 582 68 640 80 684 104 c 0
 728 128 760 158 782 190 c 1
 804 224 818 258 824 294 c 0
 830 328 834 356 834 376 c 0xf0
 834 408 826 440 812 474 c 0
 798 506 778 536 750 564 c 1
 722 590 690 612 650 628 c 0
 610 644 564 654 514 654 c 2
 494 654 l 1
 494 732 l 1
 502 734 516 740 540 748 c 0
 562 756 588 768 616 782 c 0
 644 796 674 814 706 834 c 1
 736 854 764 878 790 906 c 0
 816 934 838 964 854 996 c 0
 870 1028 880 1066 880 1106 c 0
 880 1126 877 1148 871 1168 c 0
 865 1188 854 1208 840 1224 c 0
 826 1240 808 1252 786 1262 c 0
 762 1272 734 1278 702 1278 c 0
 638 1278 586 1260 546 1228 c 0
 506 1196 470 1152 440 1098 c 1
 356 1128 l 1
 364 1160 384 1192 412 1228 c 0
 440 1264 472 1296 512 1328 c 1
 552 1358 596 1384 644 1404 c 0
 692 1424 744 1434 796 1434 c 0
 836 1434 876 1426 914 1414 c 1
 950 1400 982 1382 1010 1358 c 0
 1038 1334 1060 1306 1076 1274 c 0
 1092 1242 1100 1206 1100 1168 c 0xe8
 1100 1116 1090 1068 1070 1028 c 0
 1050 986 1026 950 996 918 c 1
 964 886 930 858 890 834 c 0
 850 810 807 792 767 778 c 1
 766 764 l 1
 814 756 856 744 892 724 c 0
 928 704 958 680 982 652 c 0
 1006 624 1024 592 1036 558 c 0
 1048 524 1054 490 1054 456 c 0
 1054 388 1036 326 1004 266 c 1
 970 206 927 152 871 108 c 0
 815 64 748 28 672 2 c 1
 596 -22 518 -36 434 -36 c 0
 384 -36 342 -30 306 -22 c 1
 270 -12 240 0 216 14 c 0
 190 28 174 44 162 64 c 1
 150 82 144 100 144 120 c 0
 144 150 158 178 188 204 c 0xf0
EndSplineSet
Validated: 1
EndChar

StartChar: four
Encoding: 52 52 21
Width: 1189
Flags: W
HStem: 422 144<326 708 924 1182>
DStem2: 118 510 326 566 0.689214 0.724558<183.932 877.387> 644 -14 848 18 0.138113 0.990416<59.8684 440.661 613.113 1100.55>
LayerCount: 2
Fore
SplineSet
708 422 m 1
 132 422 l 1
 118 510 l 1
 976 1412 l 1
 1048 1390 l 1
 1040 1354 1034 1314 1026 1270 c 1
 1004 1128 l 1
 980 970 l 2
 972 914 964 860 958 808 c 1
 924 566 l 1
 1222 566 l 1
 1182 418 l 1
 902 418 l 1
 848 18 l 1
 644 -14 l 1
 708 422 l 1
796 1076 m 1
 326 566 l 1
 724 566 l 1
 796 1076 l 1
EndSplineSet
Validated: 1
EndChar

StartChar: five
Encoding: 53 53 22
Width: 1189
Flags: W
HStem: -58 108<327.204 563> 1230 186<931.755 1108>
VStem: 896 228<321.597 593.021>
DStem2: 396 780 570 950 0.364458 0.93122<221.723 498.424>
LayerCount: 2
Fore
SplineSet
328 -58 m 1
 322 50 l 1
 502 66 644 108 744 176 c 1
 844 242 896 328 896 434 c 0
 896 534 856 612 778 672 c 0
 700 732 572 768 396 780 c 1
 632 1383 l 1
 1162 1416 l 1
 1108 1230 l 1
 670 1208 l 1
 570 950 l 1
 660 944 740 930 810 906 c 0
 878 882 936 850 984 812 c 1
 1030 774 1064 730 1088 678 c 0
 1112 626 1124 572 1124 512 c 0
 1124 444 1108 378 1076 314 c 0
 1044 250 996 190 932 138 c 0
 868 86 784 42 684 6 c 1
 584 -28 464 -50 328 -58 c 1
EndSplineSet
Validated: 1
EndChar

StartChar: six
Encoding: 54 54 23
Width: 1189
Flags: W
HStem: -26 98<508.682 777.1> 716 122<593.747 815.391>
VStem: 198 222<180.652 628.405> 906 220<280.423 614.865>
DStem2: 614 802 554 686 0.950218 0.311587<-150.032 48.1524>
LayerCount: 2
Fore
SplineSet
470 720 m 1
 482 720 l 1
 498 736 516 750 540 764 c 1
 562 778 586 790 614 802 c 1
 642 812 670 820 702 828 c 1
 732 834 764 838 796 838 c 0
 848 838 894 826 934 806 c 0
 974 786 1010 758 1038 724 c 0
 1066 690 1088 650 1104 606 c 1
 1118 562 1126 516 1126 468 c 0
 1126 400 1110 338 1080 278 c 1
 1048 218 1008 164 958 120 c 0
 908 76 850 40 786 14 c 0
 722 -12 654 -26 586 -26 c 0
 516 -26 456 -14 408 8 c 1
 360 32 320 62 288 102 c 1
 256 140 234 184 220 238 c 0
 206 290 198 344 198 404 c 0
 198 476 210 550 234 624 c 1
 256 696 288 768 328 838 c 0
 368 906 416 972 472 1036 c 0
 526 1098 584 1156 648 1208 c 0
 712 1260 778 1304 848 1344 c 0
 916 1382 986 1412 1058 1436 c 1
 1092 1368 l 1
 1008 1332 934 1288 866 1240 c 1
 798 1190 740 1136 688 1080 c 1
 636 1022 590 962 554 900 c 0
 518 838 490 778 470 720 c 1
528 100 m 1
 552 80 578 72 610 72 c 0
 670 72 720 82 760 106 c 0
 798 128 828 158 850 192 c 1
 872 230 886 268 894 312 c 0
 902 356 906 398 906 438 c 0
 906 472 900 506 892 540 c 0
 884 572 870 602 854 628 c 1
 836 654 814 676 788 692 c 0
 760 708 730 716 694 716 c 0
 670 716 648 712 624 708 c 1
 600 702 576 694 554 686 c 1
 530 676 510 666 492 656 c 1
 474 644 462 634 454 624 c 1
 446 596 440 564 432 526 c 0
 424 486 420 446 420 406 c 0
 420 362 424 322 432 282 c 0
 440 242 452 206 468 174 c 0
 484 142 504 118 528 100 c 1
EndSplineSet
Validated: 1
EndChar

StartChar: seven
Encoding: 55 55 24
Width: 1189
Flags: W
HStem: 1056 21G<308 398.37> 1218 180<472 1080>
DStem2: 482 -4 588 -40 0.454449 0.890773<16.1038 1360.28>
LayerCount: 2
Fore
SplineSet
472 1218 m 1
 388 1056 l 1
 308 1072 l 1
 382 1398 l 1
 1296 1398 l 1
 1290 1336 l 1
 588 -40 l 1
 482 -4 l 1
 1080 1218 l 1
 472 1218 l 1
EndSplineSet
Validated: 1
EndChar

StartChar: eight
Encoding: 56 56 25
Width: 1189
Flags: W
HStem: -32 110<489.862 798.64> 1330 90<628.492 882.031>
VStem: 190 202<182.201 445.573> 346 190<968.93 1175.14> 896 198<225.546 442.807> 956 176<968.705 1253.38>
LayerCount: 2
Fore
SplineSet
598 656 m 1xe8
 522 596 l 2
 498 576 476 554 456 530 c 0
 436 506 422 478 410 446 c 0
 398 414 392 376 392 332 c 0
 392 300 396 268 408 238 c 0
 420 206 436 180 456 156 c 0
 476 132 498 114 524 100 c 1
 550 84 578 78 608 78 c 0
 708 78 782 100 828 146 c 1
 872 192 896 254 896 330 c 0
 896 358 887 388 871 416 c 1
 853 444 830 472 802 500 c 1
 774 526 742 552 706 578 c 2
 598 656 l 1xe8
218 152 m 0
 200 192 190 236 190 286 c 0xe8
 190 366 220 440 278 506 c 0
 336 572 422 636 536 698 c 1
 538 708 l 1
 518 720 498 736 476 756 c 1
 452 776 432 798 412 824 c 0
 392 850 376 878 364 910 c 0
 352 942 346 976 346 1012 c 0
 346 1064 358 1114 384 1162 c 1
 408 1210 442 1254 484 1292 c 0
 526 1330 576 1360 632 1384 c 0
 688 1408 746 1420 808 1420 c 0
 860 1420 906 1412 946 1396 c 0
 986 1380 1018 1360 1046 1334 c 0
 1074 1308 1094 1278 1110 1244 c 1
 1124 1208 1132 1172 1132 1132 c 0xd4
 1132 1092 1124 1054 1110 1016 c 1
 1094 978 1074 942 1050 910 c 1
 1026 876 996 846 962 822 c 1
 928 796 892 776 856 764 c 1
 852 752 l 1
 924 700 982 646 1026 586 c 0
 1070 526 1094 462 1094 396 c 0
 1094 340 1080 286 1054 234 c 0
 1028 182 992 138 944 98 c 0
 896 58 838 26 770 2 c 1
 702 -20 624 -32 540 -32 c 0
 490 -32 444 -24 402 -10 c 0
 358 4 322 24 292 52 c 1
 260 80 236 112 218 152 c 0
604 940 m 0
 650 890 710 844 782 800 c 1
 810 816 836 832 858 852 c 1
 880 870 898 890 914 914 c 1
 928 938 938 964 946 994 c 1
 952 1024 956 1058 956 1098 c 0
 956 1166 938 1222 902 1266 c 1
 866 1308 820 1330 766 1330 c 0
 728 1330 693 1322 665 1308 c 0
 637 1294 614 1276 594 1256 c 1
 574 1234 560 1210 550 1184 c 0
 540 1156 536 1130 536 1106 c 0xd4
 536 1046 558 990 604 940 c 0
EndSplineSet
Validated: 1
EndChar

StartChar: nine
Encoding: 57 57 26
Width: 1189
Flags: W
HStem: -32 88<319.393 431.575> 552 128<563.719 783.725> 1336 96<614.459 878.228>
VStem: 266 204<779.589 1095.74> 976 208<781.346 1219.04>
LayerCount: 2
Fore
SplineSet
922 680 m 1
 902 680 l 1
 884 660 862 642 838 626 c 1
 812 610 786 596 758 586 c 1
 730 574 700 566 672 560 c 0
 642 554 614 552 590 552 c 0
 538 552 492 560 452 578 c 0
 412 596 378 620 350 652 c 0
 322 684 300 720 286 762 c 0
 272 804 266 848 266 896 c 0
 266 968 282 1038 314 1102 c 0
 346 1166 390 1224 442 1272 c 0
 494 1320 550 1360 614 1388 c 0
 678 1416 740 1432 802 1432 c 0
 870 1432 928 1420 976 1396 c 0
 1024 1372 1062 1340 1094 1300 c 1
 1124 1260 1146 1212 1162 1160 c 1
 1176 1106 1184 1050 1184 992 c 0
 1184 868 1162 750 1120 638 c 0
 1078 524 1020 422 944 330 c 0
 868 238 776 160 670 96 c 0
 564 32 448 -10 322 -32 c 1
 306 56 l 1
 406 84 490 120 562 162 c 0
 632 202 692 250 740 302 c 0
 788 354 826 412 854 476 c 0
 882 540 906 608 922 680 c 1
860 1308 m 0
 836 1326 808 1336 780 1336 c 0
 726 1336 680 1326 640 1306 c 0
 600 1286 568 1258 544 1224 c 0
 518 1188 500 1148 488 1102 c 0
 476 1056 470 1006 470 954 c 0
 470 918 474 882 484 850 c 1
 492 818 506 788 526 764 c 1
 544 738 568 718 596 702 c 0
 624 686 656 680 694 680 c 0
 714 680 736 682 760 688 c 1
 784 692 806 700 830 708 c 0
 852 716 872 728 892 740 c 1
 910 752 926 768 938 784 c 1
 946 810 956 840 964 876 c 0
 972 912 976 958 976 1014 c 0
 976 1054 970 1094 962 1134 c 1
 952 1174 938 1208 922 1238 c 1
 904 1266 884 1290 860 1308 c 0
EndSplineSet
Validated: 1
EndChar

StartChar: colon
Encoding: 58 58 27
Width: 489
Flags: W
HStem: -4 282<179.751 362.151> 756 280<295.751 476.25>
VStem: 130 278<41.8624 229.59> 246 276<802.386 987.046>
LayerCount: 2
Fore
SplineSet
246 876 m 0xd0
 246 968 318 1036 406 1036 c 0
 480 1036 522 976 522 914 c 0
 522 820 452 756 366 756 c 0
 304 756 246 820 246 876 c 0xd0
130 118 m 0xe0
 130 210 202 278 290 278 c 0
 364 278 408 215 408 153 c 0
 408 59 338 -4 252 -4 c 0
 190 -4 130 62 130 118 c 0xe0
EndSplineSet
Validated: 1
EndChar

StartChar: semicolon
Encoding: 59 59 28
Width: 489
Flags: W
HStem: -360 78<1.79446 85.4938> 38 206<110 275> 756 280<295.751 476.25>
VStem: 230 174<-118.086 118> 246 276<802.386 987.046>
LayerCount: 2
Fore
SplineSet
4 -360 m 1xf0
 -8 -282 l 1
 144 -242 230 -148 230 -74 c 0
 230 -12 196 38 116 38 c 0
 104 38 96 34 82 30 c 1
 76 54 74 64 74 92 c 0
 74 186 178 244 236 244 c 0
 314 244 404 204 404 32 c 0
 404 -76 314 -282 4 -360 c 1xf0
246 876 m 0xe8
 246 968 318 1036 406 1036 c 0
 480 1036 522 976 522 914 c 0
 522 820 452 756 366 756 c 0
 304 756 246 820 246 876 c 0xe8
EndSplineSet
Validated: 1
EndChar

StartChar: less
Encoding: 60 60 29
Width: 827
Flags: W
LayerCount: 2
Fore
SplineSet
132 518 m 1
 140 552 l 1
 892 1177 l 1
 946 1092 l 1
 422 550 l 1
 796 -16 l 1
 706 -100 l 1
 132 518 l 1
EndSplineSet
Validated: 1
EndChar

StartChar: equal
Encoding: 61 61 30
Width: 961
Flags: W
HStem: 386 128<134 844> 676 128<184 894>
LayerCount: 2
Fore
SplineSet
134 514 m 1
 878 514 l 1
 844 386 l 1
 100 386 l 1
 134 514 l 1
184 804 m 1
 928 804 l 1
 894 676 l 1
 150 676 l 1
 184 804 l 1
EndSplineSet
Validated: 1
EndChar

StartChar: greater
Encoding: 62 62 31
Width: 827
Flags: W
LayerCount: 2
Fore
SplineSet
886 518 m 1
 116 -100 l 1
 54 -16 l 1
 604 550 l 1
 252 1092 l 1
 334 1177 l 1
 890 552 l 1
 886 518 l 1
EndSplineSet
Validated: 1
EndChar

StartChar: question
Encoding: 63 63 32
Width: 727
Flags: W
HStem: -40 298<241.652 428.654> 1348 212<382.33 666.831>
VStem: 186 294<12.1766 203.29> 292 138<464.783 685.573> 732 128<1041.27 1280.93>
LayerCount: 2
Fore
SplineSet
186 88 m 0xe8
 186 186 262 258 356 258 c 0
 434 258 480 194 480 128 c 0
 480 28 406 -40 314 -40 c 0
 248 -40 186 28 186 88 c 0xe8
322 1262 m 1
 286 1278 252 1318 252 1384 c 0
 252 1448 328 1560 518 1560 c 0
 706 1560 860 1376 860 1124 c 0
 860 736 430 812 430 584 c 0
 430 536 430 524 438 464 c 1
 346 444 l 1
 320 492 292 556 292 656 c 0xd8
 292 988 732 892 732 1158 c 0
 732 1274 640 1348 568 1348 c 0
 476 1348 384 1318 322 1262 c 1
EndSplineSet
Validated: 1
EndChar

StartChar: at
Encoding: 64 64 33
Width: 1647
Flags: W
HStem: -276 112<604.624 1096.51> 72 146<596 783.915 982 1191.82> 852 104<787.625 988.542> 1156 108<723.423 1182.93>
VStem: 84 188<163.662 638.171> 452 192<229.536 596.21> 1448 164<498.312 897.125>
DStem2: 908 308 1112 466 0.152898 0.988242<-13.7174 538.162>
LayerCount: 2
Fore
SplineSet
908 308 m 1
 990 838 l 1
 966 844 922 852 884 852 c 0
 744 852 644 608 644 424 c 0
 644 240 674 218 736 218 c 0
 800 218 864 260 908 308 c 1
1612 724 m 0
 1612 394 1346 84 1014 84 c 0
 950 84 900 124 900 204 c 0
 900 212 902 218 902 226 c 1
 892 226 l 1
 842 154 752 72 660 72 c 0
 532 72 452 164 452 372 c 0
 452 720 748 956 952 956 c 0
 1016 956 1082 952 1152 936 c 1
 1156 934 l 1
 1176 910 l 1
 1112 466 l 2
 1100 386 1088 312 1088 264 c 0
 1088 226 1094 204 1116 204 c 0
 1300 204 1448 428 1448 676 c 0
 1448 996 1238 1156 952 1156 c 0
 554 1156 272 792 272 412 c 0
 272 52 482 -164 878 -164 c 0
 1050 -164 1238 -74 1296 -34 c 1
 1308 -24 l 1
 1350 -100 l 1
 1340 -106 l 1
 1240 -172 1078 -276 830 -276 c 0
 460 -276 84 -112 84 376 c 0
 84 860 478 1264 1000 1264 c 0
 1340 1264 1612 1056 1612 724 c 0
EndSplineSet
Validated: 1
EndChar

StartChar: A
Encoding: 65 65 34
Width: 1547
Flags: W
HStem: 0 90<522.78 546 896 941.18> 524 122<614 1020> 1516 20G<1008.32 1105.29>
DStem2: 208 156 366 150 0.470725 0.88228<69.0808 486.608 623.432 623.432> 1102 1536 924 1252 0.162321 -0.986738<251.341 864.887 987.866 1362.02>
LayerCount: 2
Fore
SplineSet
1102 1536 m 1
 1330 150 l 1
 1480 98 l 1
 1458 0 l 1
 872 0 l 1
 896 90 l 1
 1104 156 l 1
 1036 524 l 1
 552 524 l 1
 366 150 l 1
 572 98 l 1
 546 0 l 1
 6 0 l 1
 28 90 l 1
 208 156 l 1
 924 1498 l 1
 1102 1536 l 1
614 646 m 1
 1020 646 l 1
 924 1252 l 1
 614 646 l 1
EndSplineSet
Validated: 1
EndChar

StartChar: B
Encoding: 66 66 35
Width: 1365
Flags: W
HStem: 0 116<474 899.651> 0 90<56 108.224> 732 102<602 981.317> 1374 92<298 350.459> 1418 104<701.901 985.054>
VStem: 1098 232<334.684 626.584 1045.21 1312.09>
DStem2: 260 146 474 116 0.173525 0.984829<7.58943 632.985 736.908 1209.66>
LayerCount: 2
Fore
SplineSet
840 732 m 2xa4
 582 732 l 1
 474 116 l 1
 708 116 l 2
 974 116 1098 302 1098 472 c 0
 1098 604 1016 732 840 732 c 2xa4
1024 824 m 1
 1022 814 l 1
 1232 802 1330 660 1330 510 c 0
 1330 278 1096 0 586 0 c 2xac
 34 0 l 1
 56 90 l 1
 260 146 l 1
 466 1338 l 1
 274 1374 l 1
 298 1466 l 1x74
 470 1492 678 1522 882 1522 c 0x2c
 1204 1522 1328 1366 1328 1214 c 0
 1328 1088 1254 906 1024 824 c 1
702 1410 m 1
 602 834 l 1
 842 834 l 2
 998 834 1098 964 1100 1156 c 1
 1100 1286 1032 1418 794 1418 c 0
 766 1418 734 1416 702 1410 c 1
EndSplineSet
Validated: 1
EndChar

StartChar: C
Encoding: 67 67 36
Width: 1345
Flags: W
HStem: -30 158<661.281 990.199> 1422 116<781.781 1151.63>
VStem: 158 256<394.213 856.877> 1242 98<1030 1071.63>
LayerCount: 2
Fore
SplineSet
956 1422 m 0
 674 1422 414 1116 414 652 c 0
 414 292 618 128 854 128 c 0
 988 128 1126 176 1274 312 c 1
 1320 246 l 1
 1144 40 926 -30 738 -30 c 0
 426 -30 158 184 158 584 c 0
 158 972 448 1538 1044 1538 c 0
 1196 1538 1344 1504 1440 1416 c 1
 1340 1014 l 1
 1242 1030 l 1
 1238 1296 l 1
 1196 1368 1104 1422 956 1422 c 0
EndSplineSet
Validated: 1
EndChar

StartChar: D
Encoding: 68 68 37
Width: 1607
Flags: W
HStem: 0 126<474 878.654> 0 90<52 97.1801> 1372 92<276 329.255> 1400 124<676.505 1051.77>
VStem: 1352 260<671.631 1086.09>
DStem2: 260 156 474 126 0.156043 0.98775<3.76063 1194.57>
LayerCount: 2
Fore
SplineSet
674 1392 m 1x98
 474 126 l 1
 644 126 l 2
 1074 126 1352 468 1352 850 c 0
 1352 1150 1184 1400 816 1400 c 0
 768 1400 722 1398 674 1392 c 1x98
880 1524 m 0
 1434 1524 1612 1244 1612 926 c 0
 1612 462 1202 0 576 0 c 2x98
 28 0 l 1
 52 90 l 1
 260 156 l 1
 446 1336 l 1
 252 1372 l 1
 276 1464 l 1x68
 510 1502 712 1524 880 1524 c 0
EndSplineSet
Validated: 1
EndChar

StartChar: E
Encoding: 69 69 38
Width: 1301
Flags: W
HStem: 0 116<478 1052> 0 90<62 113.2> 706 114<590 890> 1396 110<680 1226> 1414 92<272 309.917>
VStem: 896 102<510 570.16> 1232 98<1136 1177.64>
DStem2: 262 146 478 116 0.155883 0.987776<4.03753 601.478 716.89 1233.04>
LayerCount: 2
Fore
SplineSet
272 1506 m 1x6e
 1426 1506 l 1x6e
 1330 1120 l 1
 1232 1136 l 1
 1226 1396 l 1
 680 1396 l 1
 590 820 l 1
 926 820 l 1
 1000 964 l 1
 1110 980 l 1
 998 510 l 1
 896 494 l 1
 890 706 l 1
 572 706 l 1
 478 116 l 1
 1052 116 l 1xb6
 1210 394 l 1
 1304 380 l 1
 1208 0 l 1
 44 0 l 1
 62 90 l 1
 262 146 l 1
 454 1364 l 1
 252 1414 l 1
 272 1506 l 1x6e
EndSplineSet
Validated: 1
EndChar

StartChar: F
Encoding: 70 70 39
Width: 1245
Flags: W
HStem: 0 90<62 113.2 683.758 726> 700 112<588 886> 1396 110<680 1218> 1414 92<274 309.917>
VStem: 888 106<500 565.339> 1218 98<1134 1169.5>
DStem2: 262 146 482 148 0.156694 0.987647<36.448 595.418 708.855 1233.04>
LayerCount: 2
Fore
SplineSet
274 1506 m 1xdc
 1424 1506 l 1xdc
 1316 1118 l 1
 1218 1134 l 1
 1218 1396 l 1
 680 1396 l 1xec
 588 812 l 1
 920 812 l 1
 994 958 l 1
 1098 974 l 1
 994 500 l 1
 888 482 l 1
 886 700 l 1
 570 700 l 1
 482 148 l 1
 750 102 l 1
 726 0 l 1
 44 0 l 1
 62 90 l 1
 262 146 l 1
 454 1364 l 1
 252 1414 l 1
 274 1506 l 1xdc
EndSplineSet
Validated: 1
EndChar

StartChar: G
Encoding: 71 71 40
Width: 1545
Flags: W
HStem: -38 130<668.66 1081.91> 1406 120<788.766 1217.15>
VStem: 156 260<373.97 860.833> 1336 98<1036 1077.48>
DStem2: 1100 148 1322 106 0.153103 0.98821<-35.8982 382.73>
LayerCount: 2
Fore
SplineSet
1528 1408 m 1
 1434 1018 l 1
 1336 1036 l 1
 1332 1268 l 1
 1294 1332 1186 1406 976 1406 c 0
 704 1406 416 1208 416 652 c 0
 416 288 570 92 884 92 c 0
 1004 92 1068 120 1100 148 c 1
 1160 526 l 1
 894 572 l 1
 918 672 l 1
 1560 672 l 1
 1538 582 l 1
 1388 532 l 1
 1322 106 l 1
 1190 18 981 -38 724 -38 c 0
 328 -38 156 242 156 564 c 0
 156 1176 624 1526 1054 1526 c 0
 1276 1526 1424 1488 1528 1408 c 1
EndSplineSet
Validated: 1
EndChar

StartChar: H
Encoding: 72 72 41
Width: 1715
Flags: W
HStem: 0 90<62 110.64 604.267 638 966 1014.13 1503.46 1540> 714 124<576 1244> 1414 92<272 307.05 790.163 850 1174 1207.62 1692.16 1752>
DStem2: 252 146 464 138 0.155798 0.987789<25.1268 608.115 734.028 1233.04> 1154 146 1366 138 0.155798 0.987789<25.1268 577.062 700.688 1233.04>
LayerCount: 2
Fore
SplineSet
638 0 m 1
 44 0 l 1
 62 90 l 1
 252 146 l 1
 444 1364 l 1
 252 1414 l 1
 272 1506 l 1
 871 1506 l 1
 850 1414 l 1
 658 1368 l 1
 576 838 l 1
 1264 838 l 1
 1346 1364 l 1
 1152 1414 l 1
 1174 1506 l 1
 1772 1506 l 1
 1752 1414 l 1
 1560 1368 l 1
 1366 138 l 1
 1562 98 l 1
 1540 0 l 1
 944 0 l 1
 966 90 l 1
 1154 146 l 1
 1244 716 l 1
 554 714 l 1
 464 138 l 1
 664 98 l 1
 638 0 l 1
EndSplineSet
Validated: 1
EndChar

StartChar: I
Encoding: 73 73 42
Width: 727
Flags: W
HStem: 0 90<62 113.2 626.475 665> 1414 92<272 309.917 816.423 880>
DStem2: 262 146 482 138 0.155798 0.987789<26.3732 1233.04>
LayerCount: 2
Fore
SplineSet
665 0 m 1
 44 0 l 1
 62 90 l 1
 262 146 l 1
 454 1364 l 1
 252 1414 l 1
 272 1506 l 1
 900 1506 l 1
 880 1414 l 1
 676 1368 l 1
 482 138 l 1
 688 98 l 1
 665 0 l 1
EndSplineSet
Validated: 1
EndChar

StartChar: J
Encoding: 74 74 43
Width: 717
Flags: W
HStem: 1414 92<268 307.344 816.423 880>
DStem2: 270 238 530 466 0.157854 0.987463<-160.968 1140.3>
LayerCount: 2
Fore
SplineSet
530 466 m 2
 450 -30 330 -166 -36 -394 c 1
 -54 -366 -72 -326 -82 -288 c 1
 124 -110 239 44 270 238 c 2
 450 1364 l 1
 250 1414 l 1
 268 1506 l 1
 896 1506 l 1
 880 1414 l 1
 676 1368 l 1
 530 466 l 2
EndSplineSet
Validated: 1
EndChar

StartChar: K
Encoding: 75 75 44
Width: 1487
Flags: W
HStem: 0 90<54 99.6145 645.824 674> 1414 92<268 293.698 828.752 882 1016 1043.57 1513.22 1568>
DStem2: 264 156 486 150 0.153778 0.988105<28.2101 1212.66> 762 892 826 786 0.67828 0.734803<-34.4792 623.226>
LayerCount: 2
Fore
SplineSet
844 316 m 1
 690 616 l 1
 690 616 638 702 610 732 c 1
 616 762 l 1
 656 792 718 842 762 892 c 2
 1176 1358 l 1
 998 1414 l 1
 1016 1506 l 1
 1590 1506 l 1
 1568 1414 l 1
 1354 1358 l 1
 826 786 l 1
 1036 460 l 1
 1178 242 1252 151 1392 102 c 2
 1432 88 l 1
 1406 0 l 1
 1354 -18 1302 -26 1254 -26 c 0
 1062 -26 940 124 844 316 c 1
486 150 m 1
 696 98 l 1
 674 0 l 1
 36 0 l 1
 54 90 l 1
 264 156 l 1
 452 1354 l 1
 244 1414 l 1
 268 1506 l 1
 902 1506 l 1
 882 1414 l 1
 674 1358 l 1
 486 150 l 1
EndSplineSet
Validated: 1
EndChar

StartChar: L
Encoding: 76 76 45
Width: 1289
Flags: W
HStem: 0 116<486 996> 0 90<68 119.712> 1414 92<276 301.698 836.752 890>
DStem2: 270 146 486 116 0.155881 0.987776<4.037 1222.85>
LayerCount: 2
Fore
SplineSet
910 1506 m 1x60
 890 1414 l 1
 682 1358 l 1
 486 116 l 1
 996 116 l 1xa0
 1194 416 l 1
 1292 400 l 1
 1186 0 l 1
 52 0 l 1
 68 90 l 1
 270 146 l 1
 460 1354 l 1
 252 1414 l 1
 276 1506 l 1
 910 1506 l 1x60
EndSplineSet
Validated: 1
EndChar

StartChar: M
Encoding: 77 77 46
Width: 2015
Flags: W
HStem: 0 90<42 93.2 537.28 574 1310 1360.69 1865.07 1904> 1414 92<336 372.491 1993.05 2056>
DStem2: 242 146 390 138 0.220998 0.975274<24.9055 1083.54> 850 1272 626 1170 0.190777 -0.981633<57.3926 912.031> 1010 374 990 62 0.474464 0.880275<0 1026.82> 1508 146 1722 138 0.106704 0.994291<14.8804 1074.99>
LayerCount: 2
Fore
SplineSet
846 38 m 1
 626 1170 l 1
 390 138 l 1
 600 98 l 1
 574 0 l 1
 20 0 l 1
 42 90 l 1
 242 146 l 1
 518 1364 l 1
 314 1414 l 1
 336 1506 l 1
 798 1506 l 1
 850 1272 l 1
 1010 374 l 1
 1516 1312 l 1
 1620 1506 l 1
 2076 1506 l 1
 2056 1414 l 1
 1854 1368 l 1
 1722 138 l 1
 1926 98 l 1
 1904 0 l 1
 1288 0 l 1
 1310 90 l 1
 1508 146 l 1
 1612 1216 l 1
 990 62 l 1
 846 38 l 1
EndSplineSet
Validated: 1
EndChar

StartChar: N
Encoding: 78 78 47
Width: 1619
Flags: W
HStem: 0 90<62 113.2 551.877 592> 1414 92<272 299.787 1210 1247.06 1673.67 1736>
DStem2: 262 146 406 138 0.155375 0.987856<14.4711 1053.18> 676 1506 568 1164 0.432731 -0.901523<261.586 1300.79> 1232 330 1320 0 0.155963 0.987763<0 1046.61>
LayerCount: 2
Fore
SplineSet
1144 -36 m 1
 568 1164 l 1
 406 138 l 1
 614 98 l 1
 592 0 l 1
 44 0 l 1
 62 90 l 1
 262 146 l 1
 452 1354 l 1
 252 1414 l 1
 272 1506 l 1
 676 1506 l 1
 1232 330 l 1
 1394 1364 l 1
 1188 1414 l 1
 1210 1506 l 1
 1758 1506 l 1
 1736 1414 l 1
 1536 1368 l 1
 1320 0 l 1
 1144 -36 l 1
EndSplineSet
Validated: 1
EndChar

StartChar: O
Encoding: 79 79 48
Width: 1601
Flags: W
HStem: -32 128<635.296 1005.93> 1424 118<766.802 1131.79>
VStem: 166 264<355.676 916.672> 1344 258<597.081 1152.25>
LayerCount: 2
Fore
SplineSet
1344 864 m 0
 1344 1140 1238 1424 974 1424 c 0
 494 1424 430 928 430 638 c 0
 430 356 534 96 798 96 c 0
 1272 96 1344 590 1344 864 c 0
1048 1542 m 0
 1408 1542 1602 1246 1602 882 c 0
 1602 400 1264 -32 720 -32 c 0
 374 -32 166 248 166 612 c 0
 166 1144 524 1542 1048 1542 c 0
EndSplineSet
Validated: 1
EndChar

StartChar: P
Encoding: 80 80 49
Width: 1221
Flags: W
HStem: 0 90<54 105.968 677.758 718> 594 110<624 905.307> 1374 92<278 327.662> 1420 100<673.287 975.96>
VStem: 1104 248<944.564 1289.81>
DStem2: 257 146 476 148 0.156043 0.98775<36.1489 1206.27>
LayerCount: 2
Fore
SplineSet
838 1520 m 0xd8
 1108 1520 1352 1448 1352 1158 c 0
 1352 824 1062 594 754 594 c 0
 712 594 668 598 624 604 c 1
 616 704 l 1
 678 704 l 2
 968 704 1104 852 1104 1110 c 0
 1104 1284 1014 1420 800 1420 c 0xd8
 752 1420 676 1414 676 1414 c 1
 476 148 l 1
 744 102 l 1
 718 0 l 1
 34 0 l 1
 54 90 l 1
 257 146 l 1
 442 1338 l 1
 252 1374 l 1
 278 1466 l 1xe8
 430 1490 642 1520 838 1520 c 0xd8
EndSplineSet
Validated: 1
EndChar

StartChar: Q
Encoding: 81 81 50
Width: 1615
Flags: W
HStem: -466 132<1215.62 1364.44> 1414 128<800.33 1148.12>
VStem: 178 246<403.507 896.86> 1384 250<601.428 1103.53>
LayerCount: 2
Fore
SplineSet
1384 824 m 0
 1384 1124 1250 1414 992 1414 c 0
 646 1414 424 1142 424 678 c 0
 424 418 530 104 882 82 c 1
 1326 194 1384 560 1384 824 c 0
1158 -466 m 0
 960 -466 808 -322 808 -76 c 0
 808 -60 808 -44 810 -26 c 1
 800 -30 754 -32 736 -32 c 0
 390 -32 178 248 178 612 c 0
 178 1140 562 1542 1078 1542 c 0
 1437 1542 1634 1252 1634 892 c 0
 1634 466 1364 94 948 -8 c 1
 988 -172 1074 -276 1394 -334 c 1
 1390 -364 1380 -402 1368 -424 c 1
 1292 -460 1222 -466 1158 -466 c 0
EndSplineSet
Validated: 1
EndChar

StartChar: R
Encoding: 82 82 51
Width: 1469
Flags: W
HStem: 0 90<54 105.968 639.443 665> 650 110<572 756> 1370 92<278 327.255> 1416 102<675.179 966.471>
VStem: 1086 250<1010.92 1287.85>
DStem2: 257 146 478 152 0.155479 0.987839<40.2878 544.359 655.509 1202.63>
LayerCount: 2
Fore
SplineSet
814 1518 m 0xd8
 1124 1518 1334 1420 1336 1186 c 1
 1336 998 1193 818 936 726 c 1
 936 724 l 1
 1096 422 l 2
 1200 226 1246 143 1384 94 c 2
 1418 82 l 1
 1388 0 l 1
 1336 -18 1288 -26 1244 -26 c 0
 1062 -26 960 118 888 306 c 2
 756 650 l 1
 556 650 l 1
 478 152 l 1
 688 100 l 1
 665 0 l 1
 34 0 l 1
 54 90 l 1
 257 146 l 1
 444 1334 l 1
 250 1370 l 1
 278 1462 l 1xe8
 450 1490 644 1518 814 1518 c 0xd8
572 760 m 1
 764 760 l 2
 917 760 1086 906 1086 1120 c 0
 1086 1280 992 1416 818 1416 c 0xd8
 736 1416 676 1410 676 1410 c 1
 572 760 l 1
EndSplineSet
Validated: 1
EndChar

StartChar: S
Encoding: 83 83 52
Width: 1045
Flags: W
HStem: -30 124<335.48 665.548> 1074 21G<886 1004.56> 1434 104<581.664 837.235>
VStem: 144 114<403.693 454> 252 214<1018.73 1234.81> 800 228<278.199 480.419> 886 114<1088 1264.91>
LayerCount: 2
Fore
SplineSet
1000 1074 m 1xea
 886 1088 l 1
 892 1320 l 1
 884 1354 814 1434 716 1434 c 0
 584 1434 466 1332 466 1152 c 0xea
 466 858 1028 808 1028 464 c 0
 1028 158 726 -30 436 -30 c 0
 270 -30 122 50 76 148 c 1
 144 472 l 1
 258 454 l 1
 264 226 l 1
 296 148 370 94 484 94 c 0
 616 94 800 161 800 359 c 0xf4
 800 625 252 692 252 1034 c 0
 252 1344 520 1538 772 1538 c 0
 874 1538 1002 1510 1078 1416 c 1
 1076 1406 1000 1074 1000 1074 c 1xea
EndSplineSet
Validated: 1
EndChar

StartChar: T
Encoding: 84 84 53
Width: 1393
Flags: W
HStem: 0 90<348 399.712 914.475 952> 1396 110<408 748 970 1320>
VStem: 1320 108<1116 1155.34>
DStem2: 550 146 770 138 0.157011 0.987597<26.6416 1265.58>
LayerCount: 2
Fore
SplineSet
248 1506 m 1
 1530 1506 l 1
 1428 1098 l 1
 1320 1116 l 1
 1320 1396 l 1
 970 1396 l 1
 770 138 l 1
 976 98 l 1
 952 0 l 1
 328 0 l 1
 348 90 l 1
 550 146 l 1
 748 1396 l 1
 408 1396 l 1
 300 1102 l 1
 196 1118 l 1
 248 1506 l 1
EndSplineSet
Validated: 1
EndChar

StartChar: U
Encoding: 85 85 54
Width: 1657
Flags: W
HStem: -32 144<670.928 1039.95> 1414 92<254 291.064 796.423 860 1254 1293.34 1723.05 1786>
VStem: 300 224<263.052 766.719>
DStem2: 312 568 536 598 0.156345 0.987703<-67.7207 805.911> 1312 582 1458 604 0.156611 0.98766<-258.898 791.77>
LayerCount: 2
Fore
SplineSet
536 598 m 2
 528 548 524 504 524 464 c 0
 524 216 660 112 862 112 c 0
 1208 112 1282 394 1312 582 c 2
 1436 1364 l 1
 1236 1414 l 1
 1254 1506 l 1
 1806 1506 l 1
 1786 1414 l 1
 1584 1368 l 1
 1458 604 l 1
 1380 138 1118 -32 764 -32 c 0
 570 -32 300 40 300 416 c 0
 300 462 304 512 312 568 c 2
 438 1364 l 1
 232 1414 l 1
 254 1506 l 1
 878 1506 l 1
 860 1414 l 1
 656 1368 l 1
 536 598 l 2
EndSplineSet
Validated: 1
EndChar

StartChar: V
Encoding: 86 86 55
Width: 1555
Flags: W
HStem: 1414 92<250 275.302 780.423 844 1184 1223.92 1642.76 1692>
DStem2: 640 1368 388 1364 0.188795 -0.982017<0 1081.49> 834 304 826 6 0.46123 0.887281<0 1186.81>
LayerCount: 2
Fore
SplineSet
656 -30 m 1
 388 1364 l 1
 230 1414 l 1
 250 1506 l 1
 862 1506 l 1
 844 1414 l 1
 640 1368 l 1
 834 304 l 1
 1368 1364 l 1
 1166 1414 l 1
 1184 1506 l 1
 1710 1506 l 1
 1692 1414 l 1
 1534 1368 l 1
 826 6 l 1
 656 -30 l 1
EndSplineSet
Validated: 1
EndChar

StartChar: W
Encoding: 87 87 56
Width: 2233
Flags: W
HStem: 1414 92<761.046 824 1830 1866.77 2281.25 2328>
DStem2: 622 1368 394 1364 0.115435 -0.993315<0 1044.68> 740 330 738 6 0.413204 0.910638<0 962.584> 1450 1476 1258 1152 0.0909915 -0.995852<305.186 1132.24> 1548 348 1542 6 0.423104 0.906081<0 1115.21>
LayerCount: 2
Fore
SplineSet
1366 -30 m 1
 1258 1152 l 1
 738 6 l 1
 556 -30 l 1
 394 1364 l 1
 244 1414 l 1
 262 1506 l 1
 848 1506 l 1
 824 1414 l 1
 622 1368 l 1
 740 330 l 1
 1250 1446 l 1
 1450 1476 l 1
 1548 348 l 1
 2008 1364 l 1
 1810 1414 l 1
 1830 1506 l 1
 2348 1506 l 1
 2328 1414 l 1
 2178 1368 l 1
 1542 6 l 1
 1366 -30 l 1
EndSplineSet
Validated: 1
EndChar

StartChar: X
Encoding: 88 88 57
Width: 1455
Flags: W
HStem: 0 90<506.475 546 808 859.2 1347.41 1368> 1414 92<820.8 872 1078 1115.64 1534.01 1582>
DStem2: 194 146 362 138 0.659988 0.751276<104.868 751.873 1017.89 1621.24> 672 1358 414 1354 0.441261 -0.897379<0 501.899 699.153 1235.89> 878 900 712 736 0.441261 -0.897379<-501.899 0 197.254 733.988>
LayerCount: 2
Fore
SplineSet
946 788 m 1
 1238 138 l 1
 1394 98 l 1
 1368 0 l 1
 784 0 l 1
 808 90 l 1
 1008 146 l 1
 780 632 l 1
 362 138 l 1
 568 98 l 1
 546 0 l 1
 24 0 l 1
 48 90 l 1
 194 146 l 1
 712 736 l 1
 414 1354 l 1
 272 1414 l 1
 294 1506 l 1
 894 1506 l 1
 872 1414 l 1
 672 1358 l 1
 878 900 l 1
 1264 1364 l 1
 1056 1414 l 1
 1078 1506 l 1
 1600 1506 l 1
 1582 1414 l 1
 1428 1368 l 1
 946 788 l 1
EndSplineSet
Validated: 1
EndChar

StartChar: Y
Encoding: 89 89 58
Width: 1465
Flags: W
HStem: 0 90<444 490.592 976.448 1010> 1414 92<780.786 840 1096 1135.34 1542.63 1590>
DStem2: 650 1368 408 1364 0.361968 -0.932191<0 639.562> 626 146 846 138 0.157377 0.987539<26.7226 471.839> 882 772 926 640 0.575271 0.817963<0 712.041>
LayerCount: 2
Fore
SplineSet
926 640 m 1
 846 138 l 1
 1032 98 l 1
 1010 0 l 1
 424 0 l 1
 444 90 l 1
 626 146 l 1
 700 612 l 1
 408 1364 l 1
 260 1414 l 1
 284 1506 l 1
 862 1506 l 1
 840 1414 l 1
 650 1368 l 1
 882 772 l 1
 1278 1364 l 1
 1078 1414 l 1
 1096 1506 l 1
 1608 1506 l 1
 1590 1414 l 1
 1438 1368 l 1
 926 640 l 1
EndSplineSet
Validated: 1
EndChar

StartChar: Z
Encoding: 90 90 59
Width: 1221
Flags: W
HStem: 0 122<286 932> 1392 114<448 1098>
DStem2: 38 126 286 122 0.643442 0.765495<156.512 1651.16>
LayerCount: 2
Fore
SplineSet
278 1506 m 1
 1386 1506 l 1
 1372 1414 l 1
 286 122 l 1
 932 122 l 1
 1104 424 l 1
 1214 406 l 1
 1114 0 l 1
 30 0 l 1
 38 126 l 1
 1098 1392 l 1
 448 1392 l 1
 338 1094 l 1
 232 1116 l 1
 278 1506 l 1
EndSplineSet
Validated: 1
EndChar

StartChar: bracketleft
Encoding: 91 91 60
Width: 585
Flags: W
HStem: -454 116<371.648 442> 1412 108<642.064 746>
VStem: 106 644
DStem2: 106 -456 304 -314 0.157913 0.987453<171.485 1894.45>
LayerCount: 2
Fore
SplineSet
442 -454 m 1
 106 -456 l 1
 422 1520 l 1
 750 1520 l 1
 746 1412 l 1
 572 1388 l 1
 304 -314 l 1
 472 -338 l 1
 442 -454 l 1
EndSplineSet
Validated: 1
EndChar

StartChar: backslash
Encoding: 92 92 61
Width: 663
Flags: W
HStem: 1486 20G<212.645 368>
VStem: 210 412
DStem2: 368 1496 210 1506 0.13109 -0.99137<0 1922.23>
LayerCount: 2
Fore
SplineSet
368 1496 m 1
 622 -440 l 1
 466 -430 l 1
 210 1506 l 1
 368 1496 l 1
EndSplineSet
Validated: 1
EndChar

StartChar: bracketright
Encoding: 93 93 62
Width: 585
Flags: W
HStem: -454 116<6 111.131> 1412 108<316 383.157>
VStem: 0 644
DStem2: 182 -314 332 -456 0.155963 0.987763<0 1722.97>
LayerCount: 2
Fore
SplineSet
0 -454 m 1
 6 -338 l 1
 182 -314 l 1
 450 1388 l 1
 284 1412 l 1
 316 1520 l 1
 644 1520 l 1
 332 -456 l 1
 0 -454 l 1
EndSplineSet
Validated: 1
EndChar

StartChar: asciicircum
Encoding: 94 94 63
Width: 909
Flags: W
HStem: 954 560
LayerCount: 2
Fore
SplineSet
722 1514 m 1
 1000 998 l 1
 924 954 l 1
 648 1300 l 1
 636 1300 l 1
 280 960 l 1
 226 1000 l 1
 654 1498 l 1
 722 1514 l 1
EndSplineSet
Validated: 1
EndChar

StartChar: underscore
Encoding: 95 95 64
Width: 1091
Flags: W
HStem: -160 128<44 1014>
LayerCount: 2
Fore
SplineSet
44 -32 m 1
 1048 -32 l 1
 1014 -160 l 1
 10 -160 l 1
 44 -32 l 1
EndSplineSet
Validated: 1
EndChar

StartChar: quoteleft
Encoding: 8216 8216 65
Width: 459
Flags: W
HStem: 912 220<164 340> 1472 84<365.244 454.389>
VStem: 26 186<1046 1291.33>
LayerCount: 2
Fore
SplineSet
452 1556 m 1
 466 1472 l 1
 304 1430 212 1328 212 1250 c 0
 212 1184 248 1132 334 1132 c 0
 346 1132 356 1136 370 1140 c 1
 376 1114 378 1104 378 1074 c 0
 378 974 268 912 206 912 c 0
 122 912 26 954 26 1138 c 0
 26 1252 122 1472 452 1556 c 1
EndSplineSet
Validated: 1
EndChar

StartChar: a
Encoding: 97 97 66
Width: 1019
Flags: W
HStem: -26 154<269 493.62> 946 126<519.186 751.89>
VStem: 100 196<180.013 601.716>
DStem2: 650 244 876 458 0.155655 0.987811<-14.8781 687.072>
LayerCount: 2
Fore
SplineSet
896 116 m 2
 978 102 l 1
 954 18 l 1
 912 0 852 -18 784 -18 c 0
 712 -18 640 12 640 100 c 0
 640 104 640 110 640 114 c 2
 644 160 l 1
 630 160 l 1
 574 60 466 -26 344 -26 c 0
 194 -26 100 108 100 332 c 0
 100 808 450 1072 718 1072 c 0
 796 1072 884 1066 942 1030 c 1
 962 1008 l 1
 876 458 l 2
 856 328 844 246 844 196 c 0
 844 140 858 122 896 116 c 2
650 244 m 1
 754 904 l 1
 720 936 666 946 610 946 c 0
 416 946 296 646 296 388 c 0
 296 206 346 128 442 128 c 0
 534 128 594 182 650 244 c 1
EndSplineSet
Validated: 1
EndChar

StartChar: b
Encoding: 98 98 67
Width: 1107
Flags: W
HStem: -28 136<370.535 633.881> 906 172<613.304 843> 1412 92<188 262.944> 1514 20G<299.333 537.714>
VStem: 834 204<402.755 804.776>
DStem2: 130 60 336 186 0.158107 0.987422<125.987 830.599 852.142 1340.87>
LayerCount: 2
Fore
SplineSet
342 1384 m 1
 180 1412 l 1
 188 1504 l 1
 522 1534 l 1
 544 1506 l 1
 468 1020 l 1
 436 874 l 1
 450 874 l 1
 514 984 648 1078 760 1078 c 0
 926 1078 1038 872 1038 648 c 0
 1038 276 770 -28 410 -28 c 0
 322 -28 196 0 130 60 c 1
 342 1384 l 1
530 108 m 0
 640 108 834 216 834 612 c 0
 834 732 778 906 664 906 c 0
 558 906 498 860 440 806 c 1
 336 186 l 1
 368 138 444 108 530 108 c 0
EndSplineSet
Validated: 1
EndChar

StartChar: c
Encoding: 99 99 68
Width: 818
Flags: W
HStem: -36 148<353.034 562.754> 976 114<464.538 681.209>
VStem: 72 208<195.781 638.191> 652 168<860.125 944.324>
LayerCount: 2
Fore
SplineSet
280 400 m 0
 280 232 334 112 464 112 c 0
 564 112 626 148 686 188 c 1
 714 128 l 1
 640 36 508 -36 390 -36 c 0
 192 -36 72 112 72 372 c 0
 72 816 408 1090 616 1090 c 0
 746 1090 820 1020 820 916 c 0
 820 832 740 786 652 778 c 1
 646 860 624 976 556 976 c 0
 438 976 280 752 280 400 c 0
EndSplineSet
Validated: 1
EndChar

StartChar: d
Encoding: 100 100 69
Width: 979
Flags: W
HStem: -26 154<238 461.858> 946 126<488.924 720.954> 1432 88<652 713.056>
VStem: 72 196<181.791 593.547>
DStem2: 616 244 844 460 0.127147 0.991884<-60.4102 691.849> 762 1064 1010 1522 0.154434 0.988003<-832.71 -151.704 0 339.073>
LayerCount: 2
Fore
SplineSet
864 118 m 2
 944 104 l 1
 920 18 l 1
 880 4 820 -18 752 -18 c 0
 648 -18 610 32 608 90 c 0
 608 118 612 146 614 160 c 1
 598 160 l 1
 542 60 434 -26 312 -26 c 0
 164 -26 72 71 72 328 c 0
 72 768 406 1072 670 1072 c 0
 700 1072 728 1072 754 1064 c 1
 762 1064 l 1
 808 1400 l 1
 636 1432 l 1
 652 1520 l 1
 986 1550 l 1
 1010 1522 l 1
 844 460 l 1
 824 322 812 242 812 194 c 0
 812 136 828 124 864 118 c 2
616 244 m 1
 722 902 l 1
 692 928 652 946 580 946 c 0
 386 946 268 652 268 400 c 0
 268 202 322 128 418 128 c 0
 512 128 562 182 616 244 c 1
EndSplineSet
Validated: 1
EndChar

StartChar: e
Encoding: 101 101 70
Width: 823
Flags: W
HStem: -36 160<335.609 554.56> 966 112<396.398 582.043>
VStem: 42 194<228.784 593.075> 612 184<648.018 936.749>
LayerCount: 2
Fore
SplineSet
257 620 m 1
 586 646 l 1
 608 690 612 732 612 790 c 1
 610 870 594 966 496 966 c 0
 412 966 309 872 257 620 c 1
796 792 m 0
 796 690 772 618 738 554 c 1
 244 532 l 1
 238 498 236 422 236 392 c 0
 238 212 346 124 484 124 c 0
 548 124 684 184 712 214 c 1
 744 160 l 1
 690 76 536 -36 370 -36 c 0
 116 -36 42 166 42 370 c 0
 42 748 268 1078 568 1078 c 0
 728 1078 796 964 796 792 c 0
EndSplineSet
Validated: 1
EndChar

StartChar: f
Encoding: 102 102 71
Width: 681
Flags: W
HStem: 0 96<18 61.0667 545.648 596> 950 108<512 708> 950 82<172 218.918> 1404 154<614.108 794.478>
DStem2: 168 132 366 132 0.155963 0.987763<30.8806 827.953 968.32 1171.31>
LayerCount: 2
Fore
SplineSet
767 1558 m 0xb0
 891 1558 970 1516 970 1420 c 0
 970 1376 938 1320 846 1296 c 1
 830 1340 756 1404 680 1404 c 0
 580 1404 546 1270 528 1158 c 2
 512 1058 l 1
 738 1058 l 1
 708 950 l 1xd0
 496 950 l 1
 366 132 l 1
 618 96 l 1
 596 0 l 1
 -2 0 l 1
 18 92 l 1
 168 132 l 1
 296 950 l 1
 152 950 l 1
 172 1032 l 1
 316 1076 l 1
 368 1336 577 1558 767 1558 c 0xb0
EndSplineSet
Validated: 1
EndChar

StartChar: g
Encoding: 103 103 72
Width: 981
Flags: W
HStem: -468 130<202.678 508.015> 4 178<277.551 637.723> 366 94<405.088 584.27> 996 90<460.713 644.005>
VStem: -70 226<-292.767 -114.214> 70 206<140 260.004> 156 200<509.579 825.444> 664 216<-161.145 67> 680 180<605.447 902.509>
LayerCount: 2
Fore
SplineSet
568 996 m 0xf280
 448 996 356 852 356 668 c 0
 356 546 414 460 486 460 c 0
 594 460 680 594 680 800 c 0
 680 924 636 996 568 996 c 0xf280
476 182 m 2
 582 182 l 2
 758 182 880 134 880 0 c 0
 880 -276 530 -468 286 -468 c 0
 108 -468 -70 -404 -70 -244 c 0xf9
 -70 -96 78 -16 164 22 c 1
 164 32 l 1
 94 68 72 104 70 176 c 1xf4
 70 248 212 360 308 396 c 1
 310 406 l 1
 250 422 156 535 156 665 c 0
 156 889 402 1086 608 1086 c 0
 698 1086 758 1054 798 1010 c 1
 814 1010 1054 1028 1054 1028 c 1
 1074 1000 l 1
 1008 866 l 1
 988 866 l 1
 844 914 l 1
 842 894 l 1
 852 860 860 826 860 764 c 0
 860 544 620 366 440 366 c 0
 402 366 368 374 356 378 c 1xf280
 326 348 276 304 276 240 c 0xf4
 276 186 334 182 476 182 c 2
410 4 m 2
 242 4 l 1
 242 4 156 -48 156 -180 c 0
 156 -296 236 -338 362 -338 c 0
 536 -338 664 -245 664 -92 c 0
 664 -24 594 4 410 4 c 2
EndSplineSet
Validated: 1
EndChar

StartChar: h
Encoding: 104 104 73
Width: 1093
Flags: W
HStem: 0 90<30 67.7264 471.008 494 1001.55 1024> 902 180<676.536 889> 1412 92<226 296.944> 1514 20G<336.667 576.571>
VStem: 808 202<527.781 880.358>
DStem2: 176 130 368 124 0.15442 0.988005<23.7207 760.14 781.093 1269.84> 696 0 900 122 0.158354 0.987382<152.765 754.812>
LayerCount: 2
Fore
SplineSet
1000 742 m 2
 900 122 l 1
 1050 88 l 1
 1024 0 l 1
 696 0 l 1
 798 636 l 2
 804 678 808 716 808 748 c 0
 808 846 776 902 702 902 c 0
 588 902 522 846 476 802 c 1
 368 124 l 1
 516 86 l 1
 494 0 l 1
 4 0 l 1
 30 90 l 1
 176 130 l 1
 376 1384 l 1
 214 1412 l 1
 226 1504 l 1
 558 1534 l 1
 584 1506 l 1
 508 1024 l 1
 474 874 l 1
 488 874 l 1
 556 964 686 1082 832 1082 c 0
 946 1082 1010 1016 1010 864 c 0
 1010 828 1008 788 1000 742 c 2
EndSplineSet
Validated: 1
EndChar

StartChar: i
Encoding: 105 105 74
Width: 573
Flags: W
HStem: 0 88<26 71.6432 465.915 498> 930 92<150 225.119> 1032 20G<260.667 499.143> 1404 285<365.5 570>
VStem: 322 292<1448.25 1648.47>
DStem2: 174 128 366 124 0.153707 0.988116<25.5593 785.531>
LayerCount: 2
Fore
SplineSet
466 1689 m 0
 546 1689 614 1630 614 1552 c 0
 614 1470 546 1404 466 1404 c 0
 386 1404 322 1472 322 1554 c 0
 322 1632 390 1689 466 1689 c 0
174 128 m 1
 296 904 l 1
 138 930 l 1
 150 1022 l 1
 482 1052 l 1
 506 1024 l 1
 366 124 l 1
 518 86 l 1
 498 0 l 1
 4 0 l 1
 26 88 l 1
 174 128 l 1
EndSplineSet
Validated: 1
EndChar

StartChar: j
Encoding: 106 106 75
Width: 545
Flags: W
HStem: 932 92<108 184.773> 1034 20G<218.667 458.571> 1288 300<330.106 536.798>
VStem: 282 304<1338.25 1541.31>
DStem2: 132 120 320 104 0.156403 0.987693<-233.319 795.877>
LayerCount: 2
Fore
SplineSet
282 1446 m 0
 282 1524 354 1588 430 1588 c 0
 514 1588 586 1522 586 1442 c 0
 586 1360 514 1288 430 1288 c 0
 350 1288 282 1362 282 1446 c 0
-120 -468 m 1
 -180 -372 l 1
 0 -240 102 -84 132 120 c 1
 257 906 l 1
 96 932 l 1
 108 1024 l 1
 440 1054 l 1
 466 1026 l 1
 320 104 l 2
 266 -238 6 -408 -120 -468 c 1
EndSplineSet
Validated: 1
EndChar

StartChar: k
Encoding: 107 107 76
Width: 1071
Flags: W
HStem: 0 90<24 70.26 465.915 498> 972 86<650 685.043 1034.14 1084> 1410 92<228 302.222> 1512 20G<337.333 576>
DStem2: 174 130 366 126 0.156257 0.987716<26.0505 1269.85> 634 590 458 526 0.383879 -0.923384<0 491.556> 462 546 634 590 0.635847 0.771815<143.326 500.12>
LayerCount: 2
Fore
SplineSet
458 526 m 1
 462 546 l 1
 780 932 l 1
 632 972 l 1
 650 1058 l 1
 1110 1058 l 1
 1084 966 l 1
 924 926 l 1
 634 590 l 1
 694 464 l 1
 798 238 840 108 992 88 c 1
 1034 82 l 1
 1008 0 l 1
 984 -8 896 -24 846 -24 c 0
 702 -24 646 78 532 348 c 1
 458 526 l 1
174 130 m 1
 374 1384 l 1
 214 1410 l 1
 228 1502 l 1
 556 1532 l 1
 584 1504 l 1
 366 126 l 1
 518 88 l 1
 498 0 l 1
 4 0 l 1
 24 90 l 1
 174 130 l 1
EndSplineSet
Validated: 1
EndChar

StartChar: l
Encoding: 108 108 77
Width: 553
Flags: W
HStem: 0 90<26 71.6432 467.229 498> 1410 92<228 302.222> 1512 20G<337.333 574.571>
VStem: 4 578
DStem2: 174 130 366 126 0.154858 0.987937<25.781 1269.84>
LayerCount: 2
Fore
SplineSet
174 130 m 1
 374 1384 l 1
 214 1410 l 1
 228 1502 l 1
 556 1532 l 1
 582 1504 l 1
 366 126 l 1
 520 88 l 1
 498 0 l 1
 4 0 l 1
 26 90 l 1
 174 130 l 1
EndSplineSet
Validated: 1
EndChar

StartChar: m
Encoding: 109 109 78
Width: 1619
Flags: W
HStem: 0 88<30 77.5695 466.165 500 988.267 1022 1516.75 1554> 904 178<674.661 885 1193.24 1418> 924 100<150 221.119> 1034 20G<263.333 508.571>
VStem: 1328 202<509.781 887.996>
DStem2: 176 132 374 126 0.149729 0.988727<23.714 753.352> 690 18 898 124 0.154466 0.987998<136.857 750.608> 1222 16 1430 122 0.153015 0.988224<136.579 741.974>
LayerCount: 2
Fore
SplineSet
1520 742 m 2xc8
 1430 122 l 1
 1580 88 l 1
 1554 0 l 1
 1236 0 l 1
 1222 16 l 1
 1318 636 l 2
 1324 680 1328 718 1328 752 c 0
 1328 850 1298 904 1236 904 c 0
 1122 904 1048 846 1004 802 c 1
 1000 772 984 664 976 616 c 2
 946 426 l 1
 898 124 l 1
 1048 90 l 1
 1022 0 l 1
 704 0 l 1
 690 18 l 1
 790 636 l 2
 798 682 802 724 802 762 c 0
 802 848 778 904 708 904 c 0xc8
 606 904 526 846 480 802 c 1
 374 126 l 1
 522 88 l 1
 500 0 l 1
 4 0 l 1
 30 92 l 1
 176 132 l 1
 292 898 l 1
 134 924 l 1
 150 1024 l 1
 490 1054 l 1xb8
 516 1026 l 1
 478 874 l 1
 492 874 l 1
 528 930 664 1082 836 1082 c 0
 934 1082 1008 1028 1008 900 c 0
 1008 896 1008 890 1008 884 c 1
 1022 884 l 1
 1090 974 1206 1082 1358 1082 c 0
 1478 1082 1530 1010 1530 868 c 0
 1530 830 1526 788 1520 742 c 2xc8
EndSplineSet
Validated: 1
EndChar

StartChar: n
Encoding: 110 110 79
Width: 1087
Flags: W
HStem: 0 90<30 82.3264 458.165 492 984.267 1018> 900 182<679.717 884> 924 100<150 221.119> 1034 20G<262 504.571>
VStem: 796 206<534.844 888.48>
DStem2: 176 130 366 128 0.149348 0.988785<26.3985 753.952> 682 18 894 126 0.159735 0.98716<140.477 760.856>
LayerCount: 2
Fore
SplineSet
990 742 m 2xc8
 894 126 l 1
 1044 92 l 1
 1018 4 l 1
 696 4 l 1
 682 18 l 1
 782 636 l 1
 790 692 796 736 796 772 c 0
 796 872 760 900 696 900 c 0xc8
 596 900 528 856 474 804 c 1
 366 128 l 1
 514 90 l 1
 492 0 l 1
 4 0 l 1
 30 90 l 1
 176 130 l 1
 292 898 l 1
 134 924 l 1
 150 1024 l 1
 486 1054 l 1xb8
 512 1026 l 1
 470 874 l 1
 484 874 l 1
 552 964 700 1082 832 1082 c 0
 936 1082 1002 1034 1002 874 c 0
 1002 836 998 794 990 742 c 2xc8
EndSplineSet
Validated: 1
EndChar

StartChar: o
Encoding: 111 111 80
Width: 1007
Flags: W
HStem: -32 90<365.14 552.092> 988 94<457.467 672.297>
VStem: 66 222<170.721 649.053> 746 204<396.063 901.482>
LayerCount: 2
Fore
SplineSet
448 58 m 0
 626 58 746 365 746 665 c 0
 746 863 686 988 580 988 c 0
 380 988 288 692 288 390 c 0
 288 226 340 58 448 58 c 0
950 648 m 0
 950 314 722 -32 408 -32 c 0
 184 -32 66 156 66 398 c 0
 66 738 304 1082 632 1082 c 0
 854 1082 950 914 950 648 c 0
EndSplineSet
Validated: 1
EndChar

StartChar: p
Encoding: 112 112 81
Width: 1117
Flags: W
HStem: -442 86<-50 2.32639 399.075 448> -22 130<380.685 673.491> 904 174<623.052 840> 928 92<126 200.222> 1034 20G<264.353 479.143>
VStem: 836 210<375.919 807.748>
DStem2: 96 -316 282 -318 0.143014 0.989721<24.6211 1197.15>
LayerCount: 2
Fore
SplineSet
96 -316 m 1xe4
 272 902 l 1
 112 928 l 1
 126 1020 l 1
 462 1054 l 1xdc
 486 1026 l 1
 448 872 l 1
 462 872 l 1
 512 968 648 1078 760 1078 c 0
 920 1078 1046 888 1046 644 c 0
 1046 222 760 -22 472 -22 c 0
 440 -22 382 -18 360 -8 c 1
 386 130 l 1
 410 118 468 108 492 108 c 0
 616 108 836 132 836 588 c 0
 836 788 758 904 676 904 c 0
 578 904 530 872 450 800 c 1
 282 -318 l 1
 470 -356 l 1
 448 -442 l 1
 -74 -446 l 1
 -50 -356 l 1
 96 -316 l 1xe4
EndSplineSet
Validated: 1
EndChar

StartChar: q
Encoding: 113 113 82
Width: 1013
Flags: W
HStem: -442 86<360 420.602 836.129 876> -26 150<227.5 487.771> 944 126<489.962 722.015>
VStem: 68 204<189.369 577.486>
DStem2: 546 -312 734 -318 0.146862 0.989157<21.6751 1241.5>
LayerCount: 2
Fore
SplineSet
546 -312 m 1
 724 902 l 1
 680 928 642 944 586 944 c 0
 376 944 272 628 272 400 c 0
 272 252 318 124 412 124 c 0
 478 124 544 146 582 178 c 1
 592 116 l 1
 534 40 457 -26 304 -26 c 0
 151 -26 68 122 68 320 c 0
 68 724 376 1070 672 1070 c 0
 716 1070 756 1066 798 1046 c 1
 918 1064 l 1
 938 1056 l 1
 734 -318 l 1
 898 -356 l 1
 876 -442 l 1
 336 -442 l 1
 360 -352 l 1
 546 -312 l 1
EndSplineSet
Validated: 1
EndChar

StartChar: r
Encoding: 114 114 83
Width: 793
Flags: W
HStem: 0 90<34 85.6096 494.775 552> 844 236<603.096 750.837> 924 100<152 226.222> 1034 20G<262.667 502.571>
DStem2: 178 130 364 128 0.154377 0.988012<26.7381 673.893>
LayerCount: 2
Fore
SplineSet
178 130 m 1xc0
 298 898 l 1
 138 924 l 1
 152 1024 l 1
 484 1054 l 1xb0
 510 1026 l 1
 454 796 l 1
 472 796 l 1
 516 928 590 1080 700 1080 c 0
 752 1080 794 1036 794 980 c 0
 794 916 762 842 728 824 c 1
 692 844 670 844 622 844 c 0
 566 844 492 748 460 688 c 1
 364 128 l 1
 574 90 l 1
 552 0 l 1
 8 0 l 1
 34 90 l 1
 178 130 l 1xc0
EndSplineSet
Validated: 1
EndChar

StartChar: s
Encoding: 115 115 84
Width: 903
Flags: W
HStem: -42 108<335.379 539.239> 1000 92<439.387 621.551>
VStem: 224 176<715.269 896.899> 592 175<145.925 308.367>
LayerCount: 2
Fore
SplineSet
610 1092 m 0
 732 1092 828 1040 828 924 c 0
 828 816 770 754 672 744 c 1
 668 772 l 1
 654 954 604 1000 548 1000 c 0
 470 1000 400 952 400 844 c 0
 400 618 767 532 767 296 c 0
 767 86 534 -42 376 -42 c 0
 198 -42 104 50 104 148 c 0
 104 224 156 290 252 300 c 1
 294 128 352 66 424 66 c 0
 498 66 592 116 592 220 c 0
 592 380 224 458 224 744 c 0
 224 920 394 1092 610 1092 c 0
EndSplineSet
Validated: 1
EndChar

StartChar: t
Encoding: 116 116 85
Width: 715
Flags: W
HStem: -26 172<248 466.263> 940 116<444 680>
VStem: 124 198<156.34 518.453>
DStem2: 136 314 338 420 0.164399 0.986394<1.5779 633.922>
LayerCount: 2
Fore
SplineSet
408 1308 m 1
 486 1308 l 1
 444 1056 l 1
 704 1056 l 1
 680 940 l 1
 420 940 l 1
 338 420 l 2
 328 358 322 338 322 282 c 0
 322 220 338 146 398 146 c 0
 474 146 542 168 586 186 c 1
 602 124 l 1
 536 50 418 -26 304 -26 c 0
 192 -26 124 42 124 184 c 0
 124 218 128 270 136 314 c 2
 236 940 l 1
 102 940 l 1
 114 998 l 1
 236 1084 328 1202 408 1308 c 1
EndSplineSet
Validated: 1
EndChar

StartChar: u
Encoding: 117 117 86
Width: 1049
Flags: W
HStem: -24 166<292 509.788> 932 90<108 176.896 624 694.944> 1032 20G<222 467.143 739.333 987.143>
VStem: 156 203<155.739 550.047> 670 204<69.7878 315.781>
DStem2: 166 320 378 454 0.149003 0.988837<-18.45 590.593> 674 242 902 448 0.149363 0.988782<-3.4774 669.51>
LayerCount: 2
Fore
SplineSet
926 116 m 2
 1006 102 l 1
 984 18 l 1
 942 0 880 -18 814 -18 c 0
 720 -18 670 22 670 120 c 0
 670 132 670 144 672 158 c 1
 660 158 l 1
 626 94 502 -24 342 -24 c 0
 242 -24 156 20 156 198 c 0
 156 234 160 274 166 320 c 2
 254 904 l 1
 96 932 l 1
 108 1022 l 1
 450 1052 l 1
 474 1024 l 1
 378 454 l 2
 366 378 359 318 359 270 c 0
 359 182 384 142 456 142 c 0
 568 142 634 202 674 242 c 1
 774 904 l 1
 612 932 l 1
 624 1022 l 1
 970 1052 l 1
 994 1024 l 1
 902 448 l 2
 884 330 874 254 874 206 c 0
 874 136 892 122 926 116 c 2
EndSplineSet
Validated: 1
EndChar

StartChar: v
Encoding: 118 118 87
Width: 957
Flags: W
HStem: 972 86<22 37.6573 416.506 458 556 581.643>
DStem2: 310 928 116 934 0.133103 -0.991102<0 673.237> 394 260 372 -12 0.426261 0.9046<0 731.507>
LayerCount: 2
Fore
SplineSet
246 -34 m 1
 116 934 l 1
 0 972 l 1
 22 1058 l 1
 480 1058 l 1
 458 974 l 1
 310 928 l 1
 394 260 l 1
 684 932 l 1
 536 972 l 1
 556 1058 l 1
 958 1058 l 1
 934 968 l 1
 814 926 l 1
 372 -12 l 1
 246 -34 l 1
EndSplineSet
Validated: 1
EndChar

StartChar: w
Encoding: 119 119 88
Width: 1495
Flags: W
HStem: 972 86<82 104.517 440.431 488 1102 1137.08>
DStem2: 342 928 178 934 0.0944216 -0.995532<0 657.688> 412 274 410 -14 0.388832 0.921309<0 541.432> 872 1002 724 730 0.124354 -0.992238<251.484 586.436> 950 260 948 -14 0.397443 0.917627<0 728.97>
LayerCount: 2
Fore
SplineSet
710 980 m 1
 872 1002 l 1
 944 420 l 1
 950 260 l 1
 1228 934 l 1
 1082 972 l 1
 1102 1058 l 1
 1496 1058 l 1
 1472 968 l 1
 1356 928 l 1
 948 -14 l 1
 820 -36 l 1
 724 730 l 1
 410 -14 l 1
 270 -36 l 1
 178 934 l 1
 60 972 l 1
 82 1058 l 1
 510 1058 l 1
 488 968 l 1
 342 928 l 1
 402 438 l 1
 412 274 l 1
 710 980 l 1
EndSplineSet
Validated: 1
EndChar

StartChar: x
Encoding: 120 120 89
Width: 1195
Flags: W
HStem: 0 84<453.824 480 582 632.517> 970 86<266 283.749 653.341 702 818 834.858>
DStem2: 198 126 350 128 0.669169 0.74311<103.2 103.2 721.15 1081.94> 560 934 360 934 0.429239 -0.903191<0 316.689 472.557 802.749>
LayerCount: 2
Fore
SplineSet
944 126 m 1
 1058 84 l 1
 1036 0 l 1
 558 0 l 1
 582 84 l 1
 730 126 l 1
 592 426 l 1
 350 128 l 1
 504 86 l 1
 480 0 l 1
 60 0 l 1
 84 84 l 1
 198 126 l 1
 546 526 l 1
 360 934 l 1
 244 970 l 1
 266 1056 l 1
 726 1056 l 1
 702 972 l 1
 560 934 l 1
 696 648 l 1
 922 930 l 1
 796 970 l 1
 818 1056 l 1
 1196 1056 l 1
 1170 970 l 1
 1050 926 l 1
 736 562 l 1
 944 126 l 1
EndSplineSet
Validated: 1
EndChar

StartChar: y
Encoding: 121 121 90
Width: 1057
Flags: W
HStem: -460 224<-120.154 128.12> 972 86<445.774 486 654 675.643 999.929 1034>
DStem2: 336 926 136 934 0.159689 -0.987167<0 661.896> 268 -60 400 -64 0.462139 0.886807<-206.304 47.413 372.984 1115.4>
LayerCount: 2
Fore
SplineSet
438 272 m 1
 778 932 l 1
 630 972 l 1
 654 1058 l 1
 1058 1058 l 1
 1034 968 l 1
 918 930 l 1
 400 -64 l 2
 242 -366 130 -460 -36 -460 c 0
 -148 -460 -194 -400 -194 -324 c 0
 -194 -274 -170 -218 -108 -170 c 1
 -50 -216 0 -236 64 -236 c 0
 124 -236 183 -222 268 -60 c 2
 290 -18 l 1
 136 934 l 1
 22 972 l 1
 42 1058 l 1
 508 1058 l 1
 486 974 l 1
 336 926 l 1
 438 272 l 1
EndSplineSet
Validated: 1
EndChar

StartChar: z
Encoding: 122 122 91
Width: 951
Flags: W
HStem: 0 106<274 640> 956 102<380 726>
DStem2: 70 96 274 106 0.607857 0.794047<131.943 1081.63>
LayerCount: 2
Fore
SplineSet
194 767 m 1
 252 1058 l 1
 952 1058 l 1
 940 976 l 1
 274 106 l 1
 640 106 l 1
 780 304 l 1
 856 294 l 1
 760 0 l 1
 60 0 l 1
 70 96 l 1
 726 956 l 1
 380 956 l 1
 274 752 l 1
 194 767 l 1
EndSplineSet
Validated: 1
EndChar

StartChar: braceleft
Encoding: 123 123 92
Width: 807
Flags: W
HStem: 472 120<212 254> 1400 120<864 912>
VStem: 332 202<-320.2 180.84> 376 206<-144.326 420.03>
LayerCount: 2
Fore
SplineSet
644 -336 m 1xe0
 634 -458 l 1
 560 -458 l 2
 380 -458 332 -346 332 -200 c 0xe0
 332 -58 376 118 376 252 c 0
 376 362 352 446 254 462 c 2
 194 472 l 1
 212 592 l 1
 272 602 l 1
 636 664 375 1520 871 1520 c 2
 942 1520 l 1
 912 1400 l 1
 864 1392 l 2
 650 1356 814 642 434 538 c 1
 432 530 l 1
 552 494 582 387 582 257 c 0xd0
 582 101 534 -84 534 -204 c 0
 534 -274 552 -322 604 -330 c 2
 644 -336 l 1xe0
EndSplineSet
Validated: 1
EndChar

StartChar: bar
Encoding: 124 124 93
Width: 689
Flags: W
HStem: 1500 20G<518.831 660>
VStem: 214 446
DStem2: 214 -424 352 -440 0.156327 0.987705<5.7699 1968.25>
LayerCount: 2
Fore
SplineSet
352 -440 m 1
 214 -424 l 1
 522 1520 l 1
 660 1506 l 1
 352 -440 l 1
EndSplineSet
Validated: 1
EndChar

StartChar: braceright
Encoding: 125 125 94
Width: 807
Flags: W
HStem: -458 122<56 96> 472 120<724 762> 1400 120<346 384>
VStem: 394 206<645.055 1166.31> 446 196<910.316 1384.94>
LayerCount: 2
Fore
SplineSet
56 -336 m 1xf0
 96 -330 l 2
 324 -296 162 426 540 530 c 1
 542 538 l 1
 426 572 394 674 394 796 c 0xf0
 394 952 446 1140 446 1264 c 0
 446 1334 434 1384 384 1392 c 2
 336 1400 l 1
 346 1520 l 1
 418 1520 l 2
 600 1520 642 1404 642 1256 c 0xe8
 642 1112 600 938 600 804 c 0
 600 698 628 620 724 602 c 2
 780 592 l 1
 762 472 l 1
 698 462 l 2
 342 406 602 -458 100 -458 c 2
 26 -458 l 1
 56 -336 l 1xf0
EndSplineSet
Validated: 1
EndChar

StartChar: asciitilde
Encoding: 126 126 95
Width: 1151
Flags: W
HStem: 512 174<727.375 936.572> 568 172<208.822 415.36>
VStem: 100 66<496.525 525.684> 974 78<719.562 758>
LayerCount: 2
Fore
SplineSet
100 500 m 1x70
 100 500 156 740 314 740 c 0
 320 740 324 740 330 740 c 2x70
 871 686 l 2
 873 686 874 686 876 686 c 0
 922 686 974 760 974 760 c 1
 1052 758 l 1
 1052 758 988 512 830 512 c 0xb0
 824 512 818 514 812 514 c 2
 272 568 l 2
 270 568 268 568 266 568 c 0
 216 568 166 484 166 484 c 1
 100 500 l 1x70
EndSplineSet
Validated: 1
EndChar

StartChar: exclamdown
Encoding: 161 161 96
Width: 587
Flags: W
HStem: 828 298<355.346 542.348>
VStem: 304 294<882.71 1073.82> 346 104<474.152 630>
LayerCount: 2
Fore
SplineSet
598 998 m 0xc0
 598 900 522 828 428 828 c 0
 350 828 304 892 304 958 c 0
 304 1058 378 1126 470 1126 c 0
 536 1126 598 1058 598 998 c 0xc0
346 646 m 1xa0
 346 654 l 1
 450 630 l 1
 450 626 l 1
 418 236 368 -296 348 -428 c 1
 346 -432 l 1
 332 -466 222 -480 178 -480 c 0
 148 -480 108 -470 108 -438 c 0
 108 -436 108 -434 108 -432 c 0
 140 -228 252 256 346 646 c 1xa0
EndSplineSet
Validated: 1
EndChar

StartChar: cent
Encoding: 162 162 97
Width: 971
Flags: W
HStem: -36 140<545 791.182>
VStem: 172 248<244.263 651.036>
DStem2: 336 -162 484 -138 0.285073 0.958506<65.1949 178.518 407.406 1186.72 1340.26 1450.34>
LayerCount: 2
Fore
SplineSet
898 1254 m 1
 848 1084 l 1
 1004 1068 1048 1004 1048 920 c 0
 1048 848 980 784 876 776 c 1
 874 812 858 898 798 944 c 1
 562 126 l 1
 594 112 640 104 684 104 c 0
 794 104 878 148 948 188 c 1
 952 180 960 152 964 120 c 1
 846 14 720 -36 552 -36 c 0
 538 -36 526 -36 514 -34 c 1
 484 -138 l 1
 336 -162 l 1
 384 0 l 1
 220 82 172 252 172 404 c 0
 172 788 470 1042 706 1082 c 1
 750 1228 l 1
 898 1254 l 1
474 222 m 1
 686 972 l 1
 566 942 420 724 420 492 c 0
 420 370 424 316 474 222 c 1
EndSplineSet
Validated: 1
EndChar

StartChar: sterling
Encoding: 163 163 98
Width: 1289
Flags: W
HStem: 0 120<488 1046> 0 90<70 123.76> 652 122<228 412> 1386 128<863.504 1111.94>
VStem: 1124 100<1100 1138.76>
DStem2: 394 558 642 624 0.179764 0.98371<-365.636 107.509 282.13 677.983>
LayerCount: 2
Fore
SplineSet
1324 1466 m 1x78
 1224 1084 l 1
 1124 1100 l 1
 1114 1358 l 1
 1090 1372 1060 1386 1016 1386 c 0
 814 1386 754 1256 682 852 c 1
 672 794 l 1
 942 810 l 1
 908 688 l 1
 652 672 l 1
 642 624 l 1
 608 432 564 238 488 120 c 1xb8
 1046 116 l 1
 1252 422 l 1
 1352 400 l 1
 1244 0 l 1
 46 0 l 1
 70 90 l 1
 280 146 l 1
 338 268 360 378 394 558 c 1
 412 664 l 1
 194 652 l 1
 228 774 l 1
 436 786 l 1
 466 952 l 1
 540 1342 774 1514 1048 1514 c 0
 1146 1514 1234 1506 1324 1466 c 1x78
EndSplineSet
Validated: 1
EndChar

StartChar: fraction
Encoding: 8260 8260 99
Width: 1199
Flags: W
DStem2: 162 -36 296 -26 0.650478 0.759525<94.7593 1577.3>
LayerCount: 2
Fore
SplineSet
1188 1162 m 1
 1316 1172 l 1
 296 -26 l 1
 162 -36 l 1
 1188 1162 l 1
EndSplineSet
Validated: 1
EndChar

StartChar: yen
Encoding: 165 165 100
Width: 1465
Flags: W
HStem: 0 90<464 512.64 1020.66 1052> 290 128<336 676 932 1288> 572 128<384 704 1004 1338> 1414 92<390 404.588 874.266 926 1122 1146.76 1525.38 1574>
DStem2: 760 1368 518 1364 0.269738 -0.962934<0 613.215> 920 776 1004 700 0.526793 0.849994<0 688.388>
LayerCount: 2
Fore
SplineSet
722 572 m 1
 350 572 l 1
 384 700 l 1
 704 700 l 1
 518 1364 l 1
 359 1414 l 1
 390 1506 l 1
 956 1506 l 1
 926 1414 l 1
 760 1368 l 1
 920 776 l 1
 1278 1364 l 1
 1094 1414 l 1
 1122 1506 l 1
 1602 1506 l 1
 1574 1414 l 1
 1418 1368 l 1
 1004 700 l 1
 1372 700 l 1
 1338 572 l 1
 956 572 l 1
 932 418 l 1
 1324 418 l 1
 1288 290 l 1
 910 290 l 1
 886 138 l 1
 1078 98 l 1
 1052 0 l 1
 438 0 l 1
 464 90 l 1
 654 146 l 1
 676 290 l 1
 300 290 l 1
 336 418 l 1
 698 418 l 1
 722 572 l 1
EndSplineSet
Validated: 1
EndChar

StartChar: section
Encoding: 167 167 101
Width: 889
Flags: W
HStem: -18 94<296.337 584.802> 1436 84<561.412 783.147>
VStem: 136 88<318.928 374> 284 192<1090.99 1315.82> 696 194<231.45 464.433> 838 82<1158 1327.16>
LayerCount: 2
Fore
SplineSet
250 958 m 1xf8
 660 690 l 2
 788 606 890 528 890 400 c 0
 890 136 614 -18 390 -18 c 0
 250 -18 144 34 80 124 c 1
 136 386 l 1
 224 374 l 1
 240 184 l 1
 276 122 344 76 420 76 c 0
 522 76 696 132 696 312 c 0
 696 496 232 508 232 880 c 0
 232 894 248 948 250 958 c 1xf8
920 570 m 1xf4
 564 794 l 1
 424 886 284 964 284 1148 c 0
 284 1388 522 1520 712 1520 c 0
 796 1520 904 1498 980 1418 c 1
 978 1410 920 1142 920 1142 c 1
 838 1158 l 1
 822 1348 l 1
 818 1370 754 1436 670 1436 c 0
 572 1436 476 1344 476 1220 c 0
 476 938 940 976 940 664 c 0
 940 638 928 592 920 570 c 1xf4
EndSplineSet
Validated: 1
EndChar

StartChar: currency
Encoding: 164 164 102
Width: 941
Flags: W
HStem: 262 118<415.063 660.869> 812 118<472.958 718.596>
VStem: 240 136<418.18 692.919> 762 130<480.409 768.078>
LayerCount: 2
Fore
SplineSet
762 612 m 0
 762 746 716 812 598 812 c 0
 486 812 376 710 376 574 c 0
 376 442 420 380 532 380 c 0
 648 380 762 484 762 612 c 0
156 308 m 1
 272 402 l 1
 248 452 240 472 240 536 c 0
 240 588 286 716 322 760 c 1
 230 864 l 1
 348 964 l 1
 424 858 l 1
 484 902 562 930 622 930 c 0
 688 930 760 907 802 871 c 1
 912 966 l 1
 988 860 l 1
 871 770 l 1
 891 724 892 710 892 648 c 0
 892 548 846 460 806 414 c 1
 904 310 l 1
 782 210 l 1
 704 320 l 1
 642 286 564 262 506 262 c 0
 458 262 398 282 352 312 c 1
 242 204 l 1
 156 308 l 1
EndSplineSet
Validated: 1
EndChar

StartChar: quotesingle
Encoding: 39 39 103
Width: 461
Flags: W
HStem: 1080 498
VStem: 354 116<1094 1150.37>
LayerCount: 2
Fore
SplineSet
368 1578 m 1
 588 1558 l 1
 470 1094 l 1
 354 1080 l 1
 368 1578 l 1
EndSplineSet
Validated: 1
EndChar

StartChar: quotedblleft
Encoding: 8220 8220 104
Width: 831
Flags: W
HStem: 916 220<166 342 548 724> 1476 84<367.244 456.389 749.244 838.389>
VStem: 28 186<1050 1295.33> 410 186<1050 1295.33>
LayerCount: 2
Fore
SplineSet
454 1560 m 1
 468 1476 l 1
 306 1434 214 1332 214 1254 c 0
 214 1188 250 1136 336 1136 c 0
 348 1136 358 1140 372 1144 c 1
 378 1118 380 1108 380 1078 c 0
 380 978 270 916 208 916 c 0
 124 916 28 958 28 1142 c 0
 28 1256 124 1476 454 1560 c 1
836 1560 m 1
 850 1476 l 1
 688 1434 596 1332 596 1254 c 0
 596 1188 632 1136 718 1136 c 0
 730 1136 740 1140 754 1144 c 1
 760 1118 762 1108 762 1078 c 0
 762 978 652 916 590 916 c 0
 506 916 410 958 410 1142 c 0
 410 1256 506 1476 836 1560 c 1
EndSplineSet
Validated: 1
EndChar

StartChar: guillemotleft
Encoding: 171 171 105
Width: 873
Flags: W
LayerCount: 2
Fore
SplineSet
484 568 m 1
 876 994 l 1
 920 922 l 1
 662 558 l 1
 804 170 l 1
 728 94 l 1
 484 544 l 1
 484 568 l 1
184 568 m 1
 576 994 l 1
 620 922 l 1
 362 558 l 1
 504 170 l 1
 428 94 l 1
 184 544 l 1
 184 568 l 1
EndSplineSet
Validated: 1
EndChar

StartChar: guilsinglleft
Encoding: 8249 8249 106
Width: 573
Flags: W
VStem: 172 434
LayerCount: 2
Fore
SplineSet
172 568 m 1
 562 994 l 1
 606 922 l 1
 348 558 l 1
 490 170 l 1
 414 94 l 1
 170 544 l 1
 172 568 l 1
EndSplineSet
Validated: 1
EndChar

StartChar: guilsinglright
Encoding: 8250 8250 107
Width: 573
Flags: W
VStem: 108 446
LayerCount: 2
Fore
SplineSet
554 568 m 1
 548 544 l 1
 160 94 l 1
 108 170 l 1
 374 558 l 1
 232 922 l 1
 296 994 l 1
 554 568 l 1
EndSplineSet
Validated: 1
EndChar

StartChar: endash
Encoding: 8211 8211 108
Width: 959
Flags: W
HStem: 496 126<120 840>
LayerCount: 2
Fore
SplineSet
120 622 m 1
 860 630 l 1
 840 504 l 1
 100 496 l 1
 120 622 l 1
EndSplineSet
Validated: 1
EndChar

StartChar: dagger
Encoding: 8224 8224 109
Width: 1117
Flags: W
HStem: 1500 20G<785.197 948>
LayerCount: 2
Fore
SplineSet
854 992 m 1
 1226 1002 l 1
 1194 854 l 1
 836 868 l 1
 646 -440 l 1
 472 -424 l 1
 696 871 l 1
 326 862 l 1
 356 1002 l 1
 714 992 l 1
 788 1520 l 1
 948 1506 l 1
 854 992 l 1
EndSplineSet
Validated: 1
EndChar

StartChar: daggerdbl
Encoding: 8225 8225 110
Width: 1117
Flags: W
HStem: 78 148<246 564> 88 124<286.174 564 722 1072> 854 148<852 1190> 862 140<356 694 852 1071.45> 1500 20G<783.197 946>
LayerCount: 2
Fore
SplineSet
767 520 m 1x28
 722 210 l 1
 1102 218 l 1
 1072 78 l 1xa8
 704 88 l 1
 630 -440 l 1
 470 -426 l 1
 564 88 l 1x48
 214 78 l 1
 246 226 l 1x88
 584 212 l 1
 656 604 l 1
 694 871 l 1
 326 862 l 1
 356 1002 l 1
 712 992 l 1
 786 1520 l 1
 946 1506 l 1
 852 992 l 1
 1222 1002 l 1x58
 1190 854 l 1
 834 868 l 1
 767 520 l 1x28
EndSplineSet
Validated: 1
EndChar

StartChar: periodcentered
Encoding: 183 183 111
Width: 489
Flags: W
HStem: 462 286<169.75 350>
VStem: 116 288<516.105 694.606>
LayerCount: 2
Fore
SplineSet
116 588 m 0
 116 688 204 748 282 748 c 0
 362 748 404 688 404 612 c 0
 404 528 316 462 236 462 c 0
 156 462 116 504 116 588 c 0
EndSplineSet
Validated: 1
EndChar

StartChar: paragraph
Encoding: 182 182 112
Width: 1677
Flags: W
HStem: 0 90<634 687.76 1450.09 1488> 582 118<599.408 912.14> 1398 110<686.93 1042> 1414 92<1641.93 1708>
VStem: 216 256<820.216 1154.35>
DStem2: 844 146 1044 138 0.156449 0.987686<23.3884 447.509 562.921 1265.58> 1118 146 1300 138 0.157364 0.987541<20.74 1233.35>
LayerCount: 2
Fore
SplineSet
1268 1374 m 1xc8
 1240 1368 l 1
 1044 138 l 1
 1070 134 l 1
 1118 146 l 1
 1312 1364 l 1
 1268 1374 l 1xc8
1736 1506 m 1xd8
 1708 1414 l 1xd8
 1496 1368 l 1
 1300 138 l 1
 1514 98 l 1
 1488 0 l 1
 610 0 l 1
 634 90 l 1
 844 146 l 1
 914 588 l 1
 862 584 808 582 756 582 c 0
 440 582 216 660 216 952 c 0
 216 1292 540 1508 834 1508 c 2xe8
 1736 1506 l 1xd8
932 702 m 1
 1042 1396 l 1
 992 1398 926 1398 914 1398 c 0xe8
 654 1398 472 1268 472 992 c 0
 472 852 532 700 796 700 c 0
 846 700 926 708 926 708 c 1
 932 702 l 1
EndSplineSet
Validated: 1
EndChar

StartChar: bullet
Encoding: 8226 8226 113
Width: 663
Flags: W
HStem: 476 436<242.98 466.242>
VStem: 138 430<575.96 804.383>
LayerCount: 2
Fore
SplineSet
138 662 m 0
 138 806 250 912 386 912 c 0
 502 912 568 818 568 722 c 0
 568 574 460 476 326 476 c 0
 228 476 138 574 138 662 c 0
EndSplineSet
Validated: 1
EndChar

StartChar: quotesinglbase
Encoding: 8218 8218 114
Width: 459
Flags: W
HStem: -380 84<-10.3893 78.7563> 44 220<104 280>
VStem: 232 186<-115.332 130>
LayerCount: 2
Fore
SplineSet
-8 -380 m 1
 -22 -296 l 1
 140 -254 232 -152 232 -74 c 0
 232 -8 196 44 110 44 c 0
 98 44 88 40 74 36 c 1
 68 62 66 72 66 102 c 0
 66 202 176 264 238 264 c 0
 322 264 418 222 418 38 c 0
 418 -76 322 -296 -8 -380 c 1
EndSplineSet
Validated: 1
EndChar

StartChar: quotedblbase
Encoding: 8222 8222 115
Width: 867
Flags: W
HStem: -392 84<-6.38933 82.7563 377.611 466.756> 32 220<108 284 492 668>
VStem: 236 186<-127.332 118> 620 186<-127.332 118>
LayerCount: 2
Fore
SplineSet
380 -392 m 1
 366 -308 l 1
 528 -266 620 -164 620 -86 c 0
 620 -20 584 32 498 32 c 0
 486 32 476 28 462 24 c 1
 456 50 454 60 454 90 c 0
 454 190 564 252 626 252 c 0
 710 252 806 210 806 26 c 0
 806 -88 710 -308 380 -392 c 1
-4 -392 m 1
 -18 -308 l 1
 144 -266 236 -164 236 -86 c 0
 236 -20 200 32 114 32 c 0
 102 32 92 28 78 24 c 1
 72 50 70 60 70 90 c 0
 70 190 180 252 242 252 c 0
 326 252 422 210 422 26 c 0
 422 -88 326 -308 -4 -392 c 1
EndSplineSet
Validated: 1
EndChar

StartChar: quotedblright
Encoding: 8221 8221 116
Width: 833
Flags: W
HStem: 914 84<-6.38933 82.7563 377.611 466.756> 1338 220<108 284 492 668>
VStem: 236 186<1178.67 1424> 620 186<1178.67 1424>
LayerCount: 2
Fore
SplineSet
380 914 m 1
 366 998 l 1
 528 1040 620 1142 620 1220 c 0
 620 1286 584 1338 498 1338 c 0
 486 1338 476 1334 462 1330 c 1
 456 1356 454 1366 454 1396 c 0
 454 1496 564 1558 626 1558 c 0
 710 1558 806 1516 806 1332 c 0
 806 1218 710 998 380 914 c 1
-4 914 m 1
 -18 998 l 1
 144 1040 236 1142 236 1220 c 0
 236 1286 200 1338 114 1338 c 0
 102 1338 92 1334 78 1330 c 1
 72 1356 70 1366 70 1396 c 0
 70 1496 180 1558 242 1558 c 0
 326 1558 422 1516 422 1332 c 0
 422 1218 326 998 -4 914 c 1
EndSplineSet
Validated: 1
EndChar

StartChar: guillemotright
Encoding: 187 187 117
Width: 873
Flags: W
LayerCount: 2
Fore
SplineSet
566 568 m 1
 562 544 l 1
 174 94 l 1
 122 170 l 1
 388 558 l 1
 246 922 l 1
 310 994 l 1
 566 568 l 1
866 568 m 1
 862 544 l 1
 474 94 l 1
 422 170 l 1
 688 558 l 1
 546 922 l 1
 610 994 l 1
 866 568 l 1
EndSplineSet
Validated: 1
EndChar

StartChar: ellipsis
Encoding: 8230 8230 118
Width: 1861
Flags: W
HStem: -40 298<297.652 484.654 837.652 1024.65 1409.65 1596.65>
VStem: 242 294<12.1766 203.29> 782 294<12.1766 203.29> 1354 294<12.1766 203.29>
LayerCount: 2
Fore
SplineSet
242 88 m 0
 242 186 318 258 412 258 c 0
 490 258 536 194 536 128 c 0
 536 28 462 -40 370 -40 c 0
 304 -40 242 28 242 88 c 0
1354 88 m 0
 1354 186 1430 258 1524 258 c 0
 1602 258 1648 194 1648 128 c 0
 1648 28 1574 -40 1482 -40 c 0
 1416 -40 1354 28 1354 88 c 0
782 88 m 0
 782 186 858 258 952 258 c 0
 1030 258 1076 194 1076 128 c 0
 1076 28 1002 -40 910 -40 c 0
 844 -40 782 28 782 88 c 0
EndSplineSet
Validated: 1
EndChar

StartChar: perthousand
Encoding: 8240 8240 119
Width: 2045
Flags: W
HStem: -42 100<976.299 1156.88 1636.3 1816.88> 462 98<1023.26 1206.22 1686.89 1865.47> 576 100<377.041 556.881> 1080 97<423.262 606.222>
VStem: 200 156<693.933 985.378> 628 148<762.807 1062.71> 800 156<74.0935 364.63> 1228 148<144.807 444.864> 1460 156<73.9326 365.484> 1888 148<142.807 442.864>
DStem2: 218 -34 362 -46 0.633653 0.773617<81.9627 1571.84>
LayerCount: 2
Fore
SplineSet
1616 240 m 0
 1616 126 1630 56 1720 56 c 0
 1822 56 1888 176 1888 292 c 0
 1888 392 1874 460 1782 460 c 0
 1678 460 1616 344 1616 240 c 0
2036 284 m 0
 2036 120 1846 -44 1704 -44 c 0
 1551 -44 1460 54 1460 226 c 0
 1460 386 1650 558 1798 558 c 0
 1970 558 2036 448 2036 284 c 0
956 238 m 0
 956 124 970 58 1060 58 c 0
 1162 58 1228 178 1228 294 c 0
 1228 394 1214 462 1122 462 c 0
 1018 462 956 342 956 238 c 0
1376 286 m 0
 1376 122 1186 -42 1044 -42 c 0
 891 -42 800 52 800 224 c 0
 800 384 990 560 1138 560 c 0
 1310 560 1376 450 1376 286 c 0
356 860 m 0
 356 746 370 676 460 676 c 0
 562 676 628 796 628 912 c 0
 628 1012 614 1080 522 1080 c 0
 418 1080 356 964 356 860 c 0
776 904 m 0
 776 740 586 576 444 576 c 0
 291 576 200 674 200 846 c 0
 200 1006 390 1177 538 1177 c 0
 710 1177 776 1068 776 904 c 0
1214 1182 m 1
 1348 1172 l 1
 362 -46 l 1
 218 -34 l 1
 1214 1182 l 1
EndSplineSet
Validated: 1
EndChar

StartChar: questiondown
Encoding: 191 191 120
Width: 727
Flags: W
HStem: -468 211<61.1694 343.87> 834 298<299.346 486.348>
VStem: -132 128<-189.129 50.7302> 248 294<888.71 1079.82> 298 138<406.427 627.217>
LayerCount: 2
Fore
SplineSet
542 1004 m 0xf0
 542 906 466 834 372 834 c 0
 294 834 248 898 248 964 c 0
 248 1064 322 1132 414 1132 c 0
 480 1132 542 1064 542 1004 c 0xf0
406 -170 m 1
 442 -186 476 -226 476 -292 c 0
 476 -356 400 -468 210 -468 c 0
 22 -468 -132 -284 -132 -32 c 0
 -132 356 298 280 298 508 c 0
 298 556 298 568 290 628 c 1
 382 648 l 1
 408 600 436 536 436 436 c 0xe8
 436 104 -4 200 -4 -66 c 0
 -4 -182 88 -257 160 -257 c 0
 252 -257 344 -226 406 -170 c 1
EndSplineSet
Validated: 1
EndChar

StartChar: grave
Encoding: 96 96 121
Width: 767
Flags: W
HStem: 1610 446
VStem: 198 300
LayerCount: 2
Fore
SplineSet
198 2010 m 1
 338 2056 l 1
 498 1652 l 1
 428 1610 l 1
 198 2010 l 1
EndSplineSet
Validated: 1
EndChar

StartChar: acute
Encoding: 180 180 122
Width: 749
Flags: W
HStem: 1634 432
VStem: 278 284
LayerCount: 2
Fore
SplineSet
562 2018 m 1
 340 1634 l 1
 278 1672 l 1
 426 2066 l 1
 562 2018 l 1
EndSplineSet
Validated: 1
EndChar

StartChar: circumflex
Encoding: 710 710 123
Width: 785
Flags: W
HStem: 1646 268
VStem: 146 486
LayerCount: 2
Fore
SplineSet
416 1914 m 1
 632 1689 l 1
 572 1646 l 1
 374 1778 l 1
 362 1778 l 1
 192 1644 l 1
 146 1680 l 1
 350 1898 l 1
 416 1914 l 1
EndSplineSet
Validated: 1
EndChar

StartChar: tilde
Encoding: 732 732 124
Width: 863
Flags: W
HStem: 1680 126<476.48 646.527> 1718 126<212.662 373.861>
VStem: 150 564
LayerCount: 2
Fore
SplineSet
150 1670 m 1x60
 150 1670 190 1844 298 1844 c 0x60
 304 1844 308 1842 314 1842 c 2
 584 1806 l 2
 586 1806 586 1806 588 1806 c 0
 620 1806 656 1856 656 1856 c 1
 714 1854 l 1
 714 1854 670 1680 556 1680 c 0
 552 1680 548 1680 542 1680 c 2xa0
 272 1718 l 2
 270 1718 270 1718 268 1718 c 0
 232 1718 196 1660 196 1660 c 1
 150 1670 l 1x60
EndSplineSet
Validated: 1
EndChar

StartChar: macron
Encoding: 175 175 125
Width: 849
Flags: W
HStem: 1670 121<166 684>
VStem: 150 550
LayerCount: 2
Fore
SplineSet
166 1791 m 1
 700 1791 l 1
 684 1670 l 1
 150 1670 l 1
 166 1791 l 1
EndSplineSet
Validated: 1
EndChar

StartChar: breve
Encoding: 728 728 126
Width: 763
Flags: W
HStem: 1664 132<258.37 496.482>
VStem: 146 66<1853.07 1889.73>
LayerCount: 2
Fore
SplineSet
146 1880 m 1
 202 1918 l 1
 212 1898 l 2
 236 1850 294 1796 376 1796 c 0
 462 1796 516 1848 548 1900 c 2
 560 1920 l 1
 610 1886 l 1
 602 1862 l 2
 569 1764 496 1664 376 1664 c 0
 248 1664 176 1762 152 1856 c 2
 146 1880 l 1
EndSplineSet
Validated: 1
EndChar

StartChar: dotaccent
Encoding: 729 729 127
Width: 591
Flags: W
HStem: 1642 286<192 398>
VStem: 150 292<1685.75 1888.25>
LayerCount: 2
Fore
SplineSet
294 1928 m 0
 374 1928 442 1868 442 1790 c 0
 442 1708 374 1642 294 1642 c 0
 214 1642 150 1709 150 1791 c 0
 150 1869 218 1928 294 1928 c 0
EndSplineSet
Validated: 1
EndChar

StartChar: dieresis
Encoding: 168 168 128
Width: 831
Flags: W
HStem: 1676 192<166.24 340.144 490.24 665.597>
VStem: 150 206<1693.74 1850.53> 474 208<1693.74 1849.83>
LayerCount: 2
Fore
SplineSet
576 1868 m 0
 630 1868 682 1830 682 1774 c 0
 682 1714 630 1676 576 1676 c 0
 524 1676 474 1714 474 1774 c 0
 474 1832 526 1868 576 1868 c 0
252 1868 m 0
 306 1868 356 1830 356 1774 c 0
 356 1714 306 1676 252 1676 c 0
 200 1676 150 1714 150 1774 c 0
 150 1832 202 1868 252 1868 c 0
EndSplineSet
Validated: 1
EndChar

StartChar: ring
Encoding: 730 730 129
Width: 665
Flags: W
HStem: 1650 58<277.477 415.948> 2000 58<267.745 403.936>
VStem: 144 86<1740.23 1975.01> 450 86<1730.13 1966.47>
LayerCount: 2
Fore
SplineSet
334 2000 m 0
 262 2000 230 1932 230 1864 c 0
 230 1790 268 1708 346 1708 c 0
 412 1708 450 1758 450 1846 c 0
 450 1922 410 2000 334 2000 c 0
348 2058 m 0
 464 2058 536 1976 536 1862 c 0
 536 1752 456 1650 332 1650 c 0
 220 1650 144 1726 144 1850 c 0
 144 1962 234 2058 348 2058 c 0
EndSplineSet
Validated: 1
EndChar

StartChar: cedilla
Encoding: 184 184 130
Width: 465
Flags: W
HStem: -472 72<119.221 162.32>
VStem: 204 162<-369.076 -212.387>
LayerCount: 2
Fore
SplineSet
258 -92 m 1
 304 -132 366 -192 366 -274 c 0
 366 -370 264 -430 124 -472 c 1
 100 -400 l 1
 170 -376 204 -336 204 -300 c 0
 204 -258 160 -208 116 -166 c 1
 234 4 l 1
 324 4 l 1
 258 -92 l 1
EndSplineSet
Validated: 1
EndChar

StartChar: hungarumlaut
Encoding: 733 733 131
Width: 941
Flags: W
HStem: 1646 312
VStem: 150 642
LayerCount: 2
Fore
SplineSet
792 1848 m 1
 440 1646 l 1
 406 1706 l 1
 704 1948 l 1
 792 1848 l 1
548 1854 m 1
 184 1646 l 1
 150 1706 l 1
 458 1958 l 1
 548 1854 l 1
EndSplineSet
Validated: 1
EndChar

StartChar: ogonek
Encoding: 731 731 132
Width: 629
Flags: W
HStem: -468 62<437.663 447.711>
VStem: 150 180<-312.815 -124.302>
LayerCount: 2
Fore
SplineSet
330 -180 m 0
 330 -256 370 -342 480 -406 c 1
 438 -468 l 1
 264 -450 150 -356 150 -252 c 0
 150 -188 172 -124 318 4 c 1
 404 4 l 1
 332 -114 330 -158 330 -180 c 0
EndSplineSet
Validated: 1
EndChar

StartChar: caron
Encoding: 711 711 133
Width: 791
Flags: W
HStem: 1644 274
VStem: 150 492
DStem2: 248 1918 150 1844 0.736873 -0.676031<0 250.267> 440 1744 434 1660 0.690318 0.723506<0 226.544>
LayerCount: 2
Fore
SplineSet
368 1644 m 1
 150 1844 l 1
 248 1918 l 1
 428 1744 l 1
 440 1744 l 1
 590 1914 l 1
 642 1878 l 1
 434 1660 l 1
 368 1644 l 1
EndSplineSet
Validated: 1
EndChar

StartChar: emdash
Encoding: 8212 8212 134
Width: 1575
Flags: W
HStem: 496 126<120 1456>
LayerCount: 2
Fore
SplineSet
120 622 m 1
 1476 630 l 1
 1456 504 l 1
 100 496 l 1
 120 622 l 1
EndSplineSet
Validated: 1
EndChar

StartChar: AE
Encoding: 198 198 135
Width: 2225
Flags: W
HStem: 0 116<1226 1762> 0 92<523.441 540 820 866.497> 572 114<752 1088> 710 114<1338 1600> 1396 110<1430 1934>
VStem: 1604 104<514 573.648> 1940 96<1140 1181.05>
DStem2: 202 158 359 152 0.60937 0.792886<90.9137 615.877 753.797 946.074 1203.71 1498.56> 1022 146 1226 116 0.157389 0.987537<2.48119 431.078 546.176 603.872 719.285 1148.87>
LayerCount: 2
Fore
SplineSet
1200 1281 m 1x3e
 752 686 l 1
 1104 686 l 1
 1200 1281 l 1x3e
1088 572 m 1
 674 572 l 1
 359 152 l 1
 566 100 l 1
 540 0 l 1
 14 0 l 1
 36 92 l 1x7e
 202 158 l 1
 1238 1506 l 1
 2132 1506 l 1
 2036 1124 l 1
 1940 1140 l 1
 1934 1396 l 1
 1430 1396 l 1
 1338 824 l 1
 1636 824 l 1
 1708 972 l 1
 1820 980 l 1
 1708 514 l 1
 1604 496 l 1
 1600 710 l 1
 1320 710 l 1
 1226 116 l 1
 1762 116 l 1xbe
 1920 398 l 1
 2010 380 l 1
 1916 0 l 1x7e
 1366 0 l 1xbe
 856 0 l 1
 796 0 l 1x7e
 820 90 l 1
 1016 144 l 1
 1022 146 l 1
 1088 572 l 1
EndSplineSet
Validated: 1
EndChar

StartChar: ordfeminine
Encoding: 170 170 136
Width: 489
Flags: W
HStem: 348 70<108 498> 492 52<203 319.196> 698 34<318.459 390> 892 48<294.598 424>
VStem: 148 88<544.32 656.061> 210 60<807.232 873.739> 376 78<551.052 566> 404 84<661.391 888.648>
DStem2: 374 596 456 614 0.157115 0.98758<6.92292 103.247 126.229 215.406>
LayerCount: 2
Fore
SplineSet
108 418 m 1xf0
 518 418 l 1
 498 348 l 1
 88 348 l 1
 108 418 l 1xf0
374 596 m 1
 390 698 l 1
 266 680 236 644 236 592 c 0xf8
 236 560 248 544 282 544 c 0
 322 544 358 576 374 596 c 1
510 504 m 1
 486 500 472 494 444 494 c 0
 396 494 376 522 376 548 c 0
 376 552 378 556 378 560 c 2
 378 566 l 1
 372 566 l 1
 352 532 292 492 228 492 c 0
 178 492 148 520 148 564 c 0xfa
 148 646 216 700 394 732 c 1
 400 764 l 2
 402 780 404 796 404 810 c 0
 404 856 388 892 340 892 c 0
 294 892 286 858 270 798 c 1
 244 798 210 800 210 838 c 0
 210 896 320 940 388 940 c 0
 458 940 488 908 488 840 c 0xf5
 488 824 486 808 484 790 c 2
 456 614 l 2
 454 604 454 596 454 590 c 0xf2
 454 564 466 554 500 550 c 1
 524 546 l 1
 510 504 l 1
EndSplineSet
Validated: 1
EndChar

StartChar: Oslash
Encoding: 216 216 137
Width: 1601
Flags: W
HStem: -32 128<754 1008.44> 1424 118<769.239 990>
VStem: 166 264<353.533 914.269> 1344 258<597.665 1149.79>
DStem2: 482 -294 654 -284 0.279695 0.960089<57.7085 293.68 461.596 1791.52 1943.15 2015.36>
LayerCount: 2
Fore
SplineSet
754 98 m 1
 768 96 784 96 798 96 c 0
 1272 96 1344 590 1344 864 c 0
 1344 1078 1280 1296 1130 1384 c 1
 754 98 l 1
622 146 m 1
 990 1424 l 1
 984 1424 980 1424 974 1424 c 0
 494 1424 430 930 430 640 c 0
 430 432 486 236 622 146 c 1
1042 1642 m 1
 1218 1652 l 1
 1182 1526 l 1
 1456 1462 1602 1198 1602 882 c 0
 1602 402 1266 -28 728 -32 c 1
 654 -284 l 1
 482 -294 l 1
 564 -12 l 1
 312 60 166 306 166 612 c 0
 166 1132 510 1524 1014 1542 c 1
 1042 1642 l 1
EndSplineSet
Validated: 1
EndChar

StartChar: ordmasculine
Encoding: 186 186 138
Width: 489
Flags: W
HStem: 348 70<108 498> 486 48<276.436 386.075> 886 50<306.881 425.452>
VStem: 152 92<546.39 821.589> 454 70<596.888 865.928>
LayerCount: 2
Fore
SplineSet
108 418 m 1
 518 418 l 1
 498 348 l 1
 88 348 l 1
 108 418 l 1
368 886 m 0
 308 886 244 825 244 665 c 0
 244 599 266 534 330 534 c 0
 392 534 454 610 454 748 c 0
 454 820 438 886 368 886 c 0
394 936 m 0
 514 936 524 850 524 716 c 0
 524 580 422 486 310 486 c 0
 182 486 152 572 152 660 c 0
 152 842 288 936 394 936 c 0
EndSplineSet
Validated: 1
EndChar

StartChar: ae
Encoding: 230 230 139
Width: 1849
Flags: W
HStem: -26 154<269 515.167 974.209 1219.25> 946 126<519.186 751.811> 966 112<1041.18 1226.04>
VStem: 100 196<180.013 601.716> 1256 184<647.322 936.82>
LayerCount: 2
Fore
SplineSet
900 620 m 1xb8
 1230 646 l 1
 1252 690 1256 732 1256 790 c 1
 1254 870 1238 966 1140 966 c 0
 1056 966 952 872 900 620 c 1xb8
650 244 m 1
 754 904 l 1
 720 936 666 946 610 946 c 0xd8
 416 946 296 646 296 388 c 0
 296 206 346 128 442 128 c 0
 534 128 594 182 650 244 c 1
926 964 m 1
 1008 1036 1104 1078 1212 1078 c 0xb8
 1372 1078 1440 972 1440 800 c 0
 1440 692 1419 620 1383 554 c 1
 888 532 l 1
 882 498 880 422 880 392 c 0
 882 212 990 124 1128 124 c 0
 1192 124 1328 184 1356 214 c 1
 1388 160 l 1
 1334 76 1180 -36 1014 -36 c 0
 866 -36 754 34 708 190 c 1
 688 166 666 142 642 116 c 0
 564 34 466 -26 344 -26 c 0
 194 -26 100 108 100 332 c 0
 100 808 450 1072 718 1072 c 0
 794 1072 894 1040 926 964 c 1
EndSplineSet
Validated: 1
EndChar

StartChar: dotlessi
Encoding: 305 305 140
Width: 573
Flags: W
HStem: 0 88<26 71.6432 465.915 498> 930 92<150 225.119> 1032 20G<260.667 499.143>
VStem: 4 514
DStem2: 174 128 366 124 0.153707 0.988116<25.5593 785.531>
LayerCount: 2
Fore
SplineSet
174 128 m 1
 296 904 l 1
 138 930 l 1
 150 1022 l 1
 482 1052 l 1
 506 1024 l 1
 366 124 l 1
 518 86 l 1
 498 0 l 1
 4 0 l 1
 26 88 l 1
 174 128 l 1
EndSplineSet
Validated: 1
EndChar

StartChar: oslash
Encoding: 248 248 141
Width: 1007
Flags: W
HStem: -32 90<442 555.837> 988 92<467.758 576> 1486 20G<712 866.208>
VStem: 66 222<164.609 650.513> 746 204<390.869 900.599>
DStem2: 152 -440 308 -430 0.279695 0.960089<53.2334 457.629 615.437 1456.76 1604.15 2015.36>
LayerCount: 2
Fore
SplineSet
334 148 m 1
 576 988 l 1
 378 984 288 690 288 390 c 0
 288 302 304 212 334 148 c 1
712 1496 m 1
 872 1506 l 1
 744 1064 l 1
 886 1014 950 864 950 648 c 0
 950 320 730 -20 424 -32 c 1
 308 -430 l 1
 152 -440 l 1
 278 -8 l 1
 138 50 66 208 66 398 c 0
 66 724 284 1054 592 1080 c 1
 712 1496 l 1
448 58 m 0
 626 58 746 365 746 665 c 0
 746 775 726 864 692 920 c 1
 442 58 l 1
 444 58 446 58 448 58 c 0
EndSplineSet
Validated: 1
EndChar

StartChar: germandbls
Encoding: 223 223 142
Width: 1207
Flags: W
HStem: -42 108<715.579 919.354> 0 92<24 77.76> 950 82<178 224.918> 1426 132<643.187 858.396>
VStem: 604 186<700.162 890.857> 882 196<1166.23 1401.76> 972 176<145.925 308.36>
DStem2: 174 132 348 0 0.153596 0.988134<0 827.954>
LayerCount: 2
Fore
SplineSet
1078 1310 m 0x7c
 1078 1078 790 1022 790 824 c 0
 790 598 1148 532 1148 296 c 0
 1148 86 914 -42 756 -42 c 0
 580 -42 484 50 484 148 c 0
 484 224 536 290 632 300 c 1
 674 128 732 66 804 66 c 0
 878 66 972 116 972 220 c 0xba
 972 380 604 458 604 744 c 0
 604 944 882 1118 882 1290 c 0
 882 1376 848 1426 744 1426 c 0
 622 1426 558 1354 528 1158 c 2
 348 0 l 1
 4 0 l 1
 24 92 l 1
 174 132 l 1
 302 950 l 1
 158 950 l 1
 178 1032 l 1
 322 1076 l 1
 378 1336 610 1558 802 1558 c 0
 1012 1558 1078 1422 1078 1310 c 0x7c
EndSplineSet
Validated: 1
EndChar

StartChar: onesuperior
Encoding: 185 185 143
Width: 267
Flags: W
HStem: 1222 28<238 295.344 362 416> 1506 28<290 340>
VStem: 230 196
DStem2: 302 1266 362 1264 0.152556 0.988295<7.17675 242.988>
LayerCount: 2
Fore
SplineSet
408 1562 m 1
 362 1264 l 1
 426 1252 l 1
 416 1222 l 1
 230 1222 l 1
 238 1250 l 1
 302 1266 l 1
 340 1506 l 1
 284 1506 l 1
 290 1534 l 1
 398 1562 l 1
 408 1562 l 1
EndSplineSet
Validated: 1
EndChar

StartChar: logicalnot
Encoding: 172 172 144
Width: 1157
Flags: W
HStem: 676 128<178 934>
DStem2: 890 402 1022 424 0.150884 0.988551<41.6648 277.502>
LayerCount: 2
Fore
SplineSet
178 804 m 1
 1080 804 l 1
 1022 424 l 1
 890 402 l 1
 934 676 l 1
 144 676 l 1
 178 804 l 1
EndSplineSet
Validated: 1
EndChar

StartChar: trademark
Encoding: 8482 8482 145
Width: 961
Flags: W
HStem: 1200 30<84 140 220 270 378 434 484 532 762 816 890 938> 1488 108<62 82 354 390.871> 1562 34<114 192 272 354 458 508 922 978>
VStem: 354 34<1488 1537.52>
DStem2: 140 1244 220 1242 0.160396 0.987053<10.8576 322.223> 434 1244 484 1242 0.232186 0.972671<9.66396 282.79> 624 1534 546 1508 0.209977 -0.977706<9.04214 240.398> 670 1298 672 1216 0.488079 0.8728<0 277.711> 816 1244 890 1242 0.102029 0.994781<5.56057 277.212>
LayerCount: 2
Fore
SplineSet
62 1596 m 1xd0
 418 1596 l 1xb0
 388 1484 l 1
 354 1488 l 1xd0
 354 1562 l 1
 272 1562 l 1
 220 1242 l 1
 280 1232 l 1
 270 1200 l 1
 78 1200 l 1
 84 1230 l 1
 140 1244 l 1
 192 1562 l 1
 114 1562 l 1xb0
 82 1484 l 1
 50 1488 l 1
 62 1596 l 1xd0
610 1210 m 1
 546 1508 l 1
 484 1242 l 1
 542 1232 l 1
 532 1200 l 1
 372 1200 l 1
 378 1230 l 1
 434 1244 l 1
 508 1554 l 1
 450 1566 l 1
 458 1596 l 1
 608 1596 l 1
 624 1534 l 1
 670 1298 l 1
 808 1546 l 1
 838 1596 l 1
 986 1596 l 1
 978 1566 l 1
 922 1554 l 1
 890 1242 l 1
 948 1232 l 1
 938 1200 l 1
 754 1200 l 1
 762 1230 l 1
 816 1244 l 1
 842 1520 l 1
 672 1216 l 1
 610 1210 l 1
EndSplineSet
Validated: 1
EndChar

StartChar: Eth
Encoding: 208 208 146
Width: 1607
Flags: W
HStem: 0 126<474 878.654> 0 90<52 97.1801> 662 122<190 342> 694 122<616.192 894> 1372 92<276 329.255> 1400 124<676.505 1051.77>
VStem: 1352 260<673.267 1097.04>
DStem2: 260 156 474 126 0.156043 0.98775<3.76063 520.499 686.045 1194.57>
LayerCount: 2
Fore
SplineSet
562 680 m 1x96
 474 126 l 1
 644 126 l 2
 1074 126 1352 470 1352 852 c 0
 1352 1160 1184 1400 816 1400 c 0
 768 1400 722 1398 674 1392 c 1
 580 800 l 1
 928 816 l 1
 894 694 l 1
 562 680 l 1x96
880 1524 m 0
 1434 1524 1612 1246 1612 930 c 0
 1612 460 1202 0 576 0 c 2x86
 28 0 l 1
 52 90 l 1
 260 156 l 1
 342 670 l 1
 158 662 l 1
 190 784 l 1
 360 792 l 1
 446 1336 l 1
 252 1372 l 1
 276 1464 l 1x6a
 510 1502 712 1524 880 1524 c 0
EndSplineSet
Validated: 1
EndChar

StartChar: onehalf
Encoding: 189 189 147
Width: 1267
Flags: W
HStem: 0 86<932 1176> 520 64<1011.85 1117.79> 608 50<186 231.651 444.186 486> 1084 46<274 330.097>
VStem: 900 74<393.08 487.427> 1132 90<308.017 514.518>
DStem2: 162 -36 294 -26 0.650478 0.759525<93.4584 1577.3> 292 682 392 678 0.158609 0.987341<11.9115 404.77> 820 62 932 86 0.760834 0.648947<100.788 409.483>
LayerCount: 2
Fore
SplineSet
1062 520 m 0
 1006 520 984 434 974 376 c 1
 916 380 900 398 900 428 c 0
 900 512 1036 584 1112 584 c 0
 1200 584 1222 526 1222 436 c 0
 1222 322 1160 262 1024 158 c 1
 932 86 l 1
 1200 86 l 1
 1176 0 l 1
 816 0 l 1
 820 62 l 1
 1024 236 l 1
 1082 284 1132 364 1132 424 c 0
 1132 468 1122 520 1062 520 c 0
472 1176 m 1
 392 678 l 1
 500 658 l 1
 486 608 l 1
 176 608 l 1
 186 654 l 1
 292 682 l 1
 354 1082 l 1
 262 1084 l 1
 274 1130 l 1
 454 1176 l 1
 472 1176 l 1
1188 1162 m 1
 1316 1172 l 1
 294 -26 l 1
 162 -36 l 1
 1188 1162 l 1
EndSplineSet
Validated: 1
EndChar

StartChar: plusminus
Encoding: 177 177 148
Width: 959
Flags: W
HStem: 16 126<140 842> 576 122<208 444 594 828>
DStem2: 400 304 532 290 0.15536 0.987858<6.67757 275.533 419.356 682.284>
LayerCount: 2
Fore
SplineSet
140 142 m 1
 882 150 l 1
 842 24 l 1
 100 16 l 1
 140 142 l 1
576 576 m 1
 532 290 l 1
 400 304 l 1
 444 576 l 1
 176 576 l 1
 208 698 l 1
 462 698 l 1
 506 978 l 1
 634 964 l 1
 594 698 l 1
 860 698 l 1
 828 576 l 1
 576 576 l 1
EndSplineSet
Validated: 1
EndChar

StartChar: Thorn
Encoding: 222 222 149
Width: 1199
Flags: W
HStem: 0 90<62 113.2 626.475 665> 334 110<598 879.307> 1160 100<659.487 949.96> 1414 92<272 309.917 816.423 880>
VStem: 1078 248<684.564 1028.4>
DStem2: 262 146 482 138 0.155798 0.987789<26.3732 1050.94 1156.17 1233.04>
LayerCount: 2
Fore
SplineSet
676 1368 m 1
 658 1254 l 1
 710 1258 762 1260 812 1260 c 0
 1082 1260 1326 1180 1326 898 c 0
 1326 564 1036 334 728 334 c 0
 686 334 642 338 598 344 c 1
 590 444 l 1
 652 444 l 2
 942 444 1078 592 1078 850 c 0
 1078 1024 988 1160 774 1160 c 0
 726 1160 650 1154 650 1154 c 1
 642 1150 l 1
 482 138 l 1
 688 98 l 1
 665 0 l 1
 44 0 l 1
 62 90 l 1
 262 146 l 1
 454 1364 l 1
 252 1414 l 1
 272 1506 l 1
 900 1506 l 1
 880 1414 l 1
 676 1368 l 1
EndSplineSet
Validated: 1
EndChar

StartChar: onequarter
Encoding: 188 188 150
Width: 1265
Flags: W
HStem: -140 50<864 906.205 1112.32 1148> 104 76<796 990 1102 1192> 608 50<186 232.512 445.219 488> 1084 46<274 330.721>
DStem2: 162 -36 296 -26 0.650478 0.759525<94.7593 1577.3> 294 682 394 678 0.158609 0.987341<11.9115 404.77> 714 168 796 180 0.657415 0.753529<62.9504 448.649> 962 -66 1064 -70 0.155493 0.987837<11.9089 172.286 268.728 544.829>
LayerCount: 2
Fore
SplineSet
1056 560 m 1
 1166 578 l 1
 1102 184 l 1
 1214 184 l 1
 1192 104 l 1
 1092 104 l 1
 1064 -70 l 1
 1164 -90 l 1
 1148 -140 l 1
 852 -140 l 1
 864 -94 l 1
 962 -66 l 1
 990 104 l 1
 712 104 l 1
 714 168 l 1
 1056 560 l 1
1004 180 m 1
 1048 472 l 1
 796 180 l 1
 1004 180 l 1
474 1176 m 1
 394 678 l 1
 500 658 l 1
 488 608 l 1
 176 608 l 1
 186 654 l 1
 294 682 l 1
 356 1082 l 1
 262 1084 l 1
 274 1130 l 1
 456 1176 l 1
 474 1176 l 1
1188 1162 m 1
 1316 1172 l 1
 296 -26 l 1
 162 -36 l 1
 1188 1162 l 1
EndSplineSet
Validated: 1
EndChar

StartChar: divide
Encoding: 247 247 151
Width: 1197
Flags: W
HStem: 126 286<521.072 703.855> 550 128<202 1152> 806 286<623.735 808.828>
VStem: 470 282<174.292 359.629> 572 284<854.292 1039.63>
LayerCount: 2
Fore
SplineSet
572 928 m 0xe8
 572 1022 646 1092 736 1092 c 0
 810 1092 856 1032 856 968 c 0
 856 872 784 806 696 806 c 0
 632 806 572 870 572 928 c 0xe8
470 248 m 0xf0
 470 342 544 412 634 412 c 0
 708 412 752 352 752 288 c 0
 752 192 680 126 592 126 c 0
 528 126 470 190 470 248 c 0xf0
202 678 m 1
 1186 678 l 1
 1152 550 l 1
 168 550 l 1
 202 678 l 1
EndSplineSet
Validated: 1
EndChar

StartChar: brokenbar
Encoding: 166 166 152
Width: 689
Flags: W
HStem: 1500 20G<518.813 654>
VStem: 214 440
DStem2: 214 -424 346 -440 0.156327 0.987705<4.83194 957.818 1097.19 1968.25>
LayerCount: 2
Fore
SplineSet
214 -424 m 1
 364 522 l 1
 496 508 l 1
 346 -440 l 1
 214 -424 l 1
384 654 m 1
 522 1520 l 1
 654 1506 l 1
 510 640 l 1
 384 654 l 1
EndSplineSet
Validated: 1
EndChar

StartChar: degree
Encoding: 176 176 153
Width: 481
Flags: W
HStem: 1148 58<156.488 292.832> 1498 58<185.642 318.495>
VStem: 36 90<1221.64 1444.42> 348 88<1272.8 1482.55>
LayerCount: 2
Fore
SplineSet
348 1384 m 0
 348 1424 330 1498 254 1498 c 0
 182 1498 126 1420 126 1332 c 0
 126 1264 154 1206 220 1206 c 0
 286 1206 348 1260 348 1384 c 0
36 1304 m 0
 36 1452 164 1556 278 1556 c 0
 394 1556 436 1518 436 1402 c 0
 436 1290 320 1148 196 1148 c 0
 84 1148 36 1222 36 1304 c 0
EndSplineSet
Validated: 1
EndChar

StartChar: thorn
Encoding: 254 254 154
Width: 1199
Flags: W
HStem: -446 90<-50 2.3264 399.075 448> -22 130<380.685 673.491> 904 174<623.052 840> 1412 92<188 258.944> 1514 20G<298.667 538.571>
VStem: 836 210<375.919 807.748>
DStem2: 96 -316 282 -318 0.143244 0.989687<24.6641 1197.2 1227.86 1717.13>
LayerCount: 2
Fore
SplineSet
460 872 m 1
 462 872 l 1
 512 968 648 1078 760 1078 c 0
 920 1078 1046 888 1046 644 c 0
 1046 222 760 -22 472 -22 c 0
 440 -22 382 -18 360 -8 c 1
 386 130 l 1
 410 118 468 108 492 108 c 0
 616 108 836 132 836 588 c 0
 836 788 758 904 676 904 c 0
 578 904 530 872 450 800 c 1
 282 -318 l 1
 470 -356 l 1
 448 -446 l 1
 -74 -446 l 1
 -50 -356 l 1
 96 -316 l 1
 338 1384 l 1
 176 1412 l 1
 188 1504 l 1
 520 1534 l 1
 546 1506 l 1
 480 1024 l 1
 446 874 l 1
 460 874 l 1
 460 872 l 1
EndSplineSet
Validated: 1
EndChar

StartChar: threequarters
Encoding: 190 190 155
Width: 1279
Flags: W
HStem: -140 50<878 920.205 1124.32 1164> 104 76<812 1004 1116 1206> 460 64<274.818 415.312> 796 56<286 358.057> 1128 66<367.112 487.005>
VStem: 170 92<528.166 609.351> 252 72<1004.98 1085.32> 468 106<568.535 776.357> 500 104<952.195 1122.38>
DStem2: 176 -36 310 -26 0.650478 0.759525<94.7593 1577.3> 726 168 812 180 0.65959 0.751626<65.7442 450.116> 976 -66 1076 -70 0.154005 0.98807<11.4482 172.284 268.578 544.826>
LayerCount: 2
Fore
SplineSet
1202 1162 m 1xf8
 1330 1172 l 1
 310 -26 l 1
 176 -36 l 1
 1202 1162 l 1xf8
1016 180 m 1
 1062 472 l 1
 812 180 l 1
 1016 180 l 1
1070 560 m 1
 1177 578 l 1
 1116 184 l 1
 1228 184 l 1
 1206 104 l 1
 1104 104 l 1
 1076 -70 l 1
 1176 -90 l 1
 1164 -140 l 1
 864 -140 l 1
 878 -94 l 1
 976 -66 l 1
 1004 104 l 1
 726 104 l 1
 726 168 l 1
 1070 560 l 1
286 852 m 1
 304 860 500 893 500 1046 c 0
 500 1084 480 1128 426 1128 c 0
 386 1128 342 1092 324 988 c 1
 280 994 252 1000 252 1040 c 0
 252 1134 404 1194 470 1194 c 0
 562 1194 604 1134 604 1072 c 0xfa80
 604 990 528 896 454 858 c 1
 454 848 l 1
 536 828 574 762 574 700 c 0
 574 576 460 460 334 460 c 0
 190 460 170 528 170 576 c 0
 170 624 236 640 262 644 c 1
 264 584 262 524 334 524 c 0
 408 524 468 590 468 674 c 0xfd
 468 732 435 798 359 798 c 0
 339 798 312 798 286 796 c 1
 286 848 l 1
 286 852 l 1
EndSplineSet
Validated: 1
EndChar

StartChar: twosuperior
Encoding: 178 178 156
Width: 337
Flags: W
HStem: 1224 52<112 254> 1536 40<157.596 223.524>
VStem: 92 44<1454.29 1516.25> 230 68<1405.83 1535.33>
DStem2: 44 1262 112 1276 0.761015 0.648734<60.8313 244.961>
LayerCount: 2
Fore
SplineSet
188 1536 m 0
 154 1536 142 1484 136 1448 c 1
 100 1452 92 1458 92 1484 c 0
 92 1532 172 1576 218 1576 c 0
 270 1576 298 1544 298 1494 c 0
 298 1424 248 1382 166 1318 c 2
 112 1276 l 1
 272 1276 l 1
 254 1224 l 1
 40 1224 l 1
 44 1262 l 1
 166 1366 l 2
 200 1394 230 1432 230 1484 c 0
 230 1516 220 1536 188 1536 c 0
EndSplineSet
Validated: 1
EndChar

StartChar: registered
Encoding: 174 174 157
Width: 567
Flags: W
HStem: 1014 40<354.939 544.134> 1154 22<330 374 430 464> 1284 30<450 482> 1436 28<376 412 468.007 530.594> 1546 38<432.565 615.051>
VStem: 210 50<1141.86 1373.14> 544 62<1338.5 1431.88> 720 47<1225.6 1448.23>
DStem2: 374 1186 430 1188 0.152661 0.988279<10.5256 107.538 138.102 242.988>
LayerCount: 2
Fore
SplineSet
530 1584 m 0
 696 1584 767 1470 767 1352 c 0
 767 1136 604 1014 434 1014 c 0
 276 1014 210 1122 210 1232 c 0
 210 1458 368 1584 530 1584 c 0
720 1348 m 0
 720 1452 660 1546 524 1546 c 0
 390 1546 260 1436 260 1244 c 0
 260 1148 312 1054 444 1054 c 0
 582 1054 720 1154 720 1348 c 0
450 1314 m 1
 492 1314 l 2
 520 1314 544 1350 544 1388 c 0
 544 1420 524 1436 486 1436 c 0
 478 1436 468 1434 468 1434 c 1
 450 1314 l 1
484 1464 m 0
 578 1464 606 1444 606 1396 c 0
 606 1364 576 1328 526 1308 c 1
 564 1242 l 1
 580 1210 596 1189 624 1177 c 1
 632 1176 l 1
 622 1154 l 1
 610 1150 602 1150 592 1150 c 0
 554 1150 528 1178 512 1216 c 2
 482 1284 l 1
 444 1284 l 1
 430 1188 l 1
 470 1176 l 1
 464 1154 l 1
 324 1154 l 1
 330 1176 l 1
 374 1186 l 1
 412 1426 l 1
 370 1434 l 1
 376 1456 l 1
 416 1460 456 1464 484 1464 c 0
EndSplineSet
Validated: 1
EndChar

StartChar: minus
Encoding: 8722 8722 158
Width: 959
Flags: W
HStem: 496 126<140 842>
LayerCount: 2
Fore
SplineSet
140 622 m 1
 882 630 l 1
 842 504 l 1
 100 496 l 1
 140 622 l 1
EndSplineSet
Validated: 1
EndChar

StartChar: eth
Encoding: 240 240 159
Width: 1155
Flags: W
HStem: -32 118<480.959 720.018> 976 112<561.654 814.887>
VStem: 180 212<192.376 678.735> 898 214<445.777 1015.32>
DStem2: 590 1340 562 1246 0.97764 0.210285<0 201.984 389.101 494.981>
LayerCount: 2
Fore
SplineSet
988 1340 m 1
 1080 1172 1112 1016 1112 796 c 0
 1112 188 796 -32 550 -32 c 0
 336 -32 180 102 180 400 c 0
 180 884 498 1088 740 1088 c 0
 786 1088 882 1068 902 978 c 1
 910 978 l 1
 898 1064 850 1210 818 1296 c 1
 562 1246 l 1
 590 1340 l 1
 788 1380 l 1
 750 1460 700 1530 660 1578 c 1
 794 1578 l 1
 824 1552 882 1500 944 1416 c 1
 1120 1454 l 1
 1092 1360 l 1
 988 1340 l 1
710 976 m 0
 540 976 392 844 392 436 c 0
 392 226 452 86 594 86 c 0
 770 86 898 288 898 660 c 0
 898 836 838 976 710 976 c 0
EndSplineSet
Validated: 1
EndChar

StartChar: multiply
Encoding: 215 215 160
Width: 689
Flags: W
HStem: 276 562
VStem: 80 622
DStem2: 80 376 144 276 0.771373 0.636383<0 283.711 424.911 708.892> 252 830 140 750 0.642427 -0.766347<0 235.18 360.555 601.37>
LayerCount: 2
Fore
SplineSet
374 470 m 1
 144 276 l 1
 80 376 l 1
 296 560 l 1
 140 750 l 1
 252 830 l 1
 408 644 l 1
 640 838 l 1
 702 736 l 1
 484 554 l 1
 646 360 l 1
 532 280 l 1
 374 470 l 1
EndSplineSet
Validated: 1
EndChar

StartChar: threesuperior
Encoding: 179 179 161
Width: 727
Flags: W
HStem: 1136 36<297.926 380.435> 1336 34<304 347.433> 1536 40<353.799 425.51>
VStem: 236 54<1174.51 1228.27> 284 44<1458.97 1511.91> 304 102<1343.92 1382.52> 414 66<1193.93 1328.24> 434 62<1425.42 1532.87>
LayerCount: 2
Fore
SplineSet
304 1370 m 1xf6
 316 1374 420 1390 432 1474 c 0
 432 1478 434 1484 434 1488 c 0
 434 1514 418 1536 388 1536 c 0
 366 1536 338 1514 328 1452 c 1
 300 1454 284 1462 284 1482 c 0
 284 1484 284 1486 284 1488 c 0
 294 1544 376 1576 416 1576 c 0
 464 1576 496 1542 496 1504 c 0xe9
 496 1500 494 1494 494 1490 c 0
 488 1442 450 1396 406 1374 c 1
 406 1368 l 1
 454 1354 480 1318 480 1278 c 0
 480 1272 478 1266 478 1260 c 0
 468 1198 408 1136 334 1136 c 0
 254 1136 236 1170 236 1196 c 0
 236 1198 236 1202 236 1204 c 0
 240 1232 276 1244 290 1246 c 1
 290 1208 290 1172 334 1172 c 0
 378 1172 406 1208 412 1250 c 0
 412 1256 414 1260 414 1266 c 0
 414 1304 388 1338 348 1338 c 0
 336 1338 318 1336 304 1336 c 1
 304 1342 304 1348 304 1356 c 0
 304 1360 304 1364 304 1368 c 2
 304 1370 l 1xf6
EndSplineSet
Validated: 1
EndChar

StartChar: copyright
Encoding: 169 169 162
Width: 1673
Flags: W
HStem: -32 114<604.854 1087.03> 316 122<821.202 1016.74> 1148 94<910.973 1100.84> 1442 110<822.28 1287.3>
VStem: 184 140<377.218 895.433> 598 169<493.453 887.93> 1074 140<1050.2 1132.54> 1588 138<607.026 1139.05>
LayerCount: 2
Fore
SplineSet
1588 900 m 0
 1588 1176 1436 1442 1058 1442 c 0
 688 1442 324 1148 324 616 c 0
 324 330 470 82 840 82 c 0
 1220 82 1588 374 1588 900 c 0
1074 1552 m 0
 1532 1552 1726 1238 1726 926 c 0
 1726 300 1278 -32 812 -32 c 0
 370 -32 184 278 184 596 c 0
 184 1180 624 1552 1074 1552 c 0
767 674 m 0
 767 536 814 438 920 438 c 0
 1002 438 1054 466 1102 502 c 1
 1126 450 l 1
 1066 374 956 316 860 316 c 0
 698 316 598 438 598 652 c 0
 598 1016 874 1242 1046 1242 c 0
 1152 1242 1214 1184 1214 1098 c 0
 1214 1030 1148 992 1074 986 c 1
 1070 1052 1052 1148 996 1148 c 0
 898 1148 767 964 767 674 c 0
EndSplineSet
Validated: 1
EndChar

StartChar: Aacute
Encoding: 193 193 163
Width: 1547
Flags: W
HStem: 0 90<522.78 546 896 941.18> 524 122<614 1020> 1516 20G<1008.32 1105.29>
DStem2: 208 156 366 150 0.470725 0.88228<69.0808 486.608 623.432 623.432> 1102 1536 924 1252 0.162321 -0.986738<251.341 864.887 987.866 1362.02>
LayerCount: 2
Fore
SplineSet
1102 1536 m 1
 1330 150 l 1
 1480 98 l 1
 1458 0 l 1
 872 0 l 1
 896 90 l 1
 1104 156 l 1
 1036 524 l 1
 552 524 l 1
 366 150 l 1
 572 98 l 1
 546 0 l 1
 6 0 l 1
 28 90 l 1
 208 156 l 1
 924 1498 l 1
 1102 1536 l 1
614 646 m 1
 1020 646 l 1
 924 1252 l 1
 614 646 l 1
1336 2018 m 1
 1114 1634 l 1
 1052 1672 l 1
 1200 2066 l 1
 1336 2018 l 1
EndSplineSet
Validated: 1
EndChar

StartChar: Acircumflex
Encoding: 194 194 164
Width: 1547
Flags: W
HStem: 0 90<522.78 546 896 941.18> 524 122<614 1020> 1516 20G<1008.32 1105.29>
DStem2: 208 156 366 150 0.470725 0.88228<69.0808 486.608 623.432 623.432> 1102 1536 924 1252 0.162321 -0.986738<251.341 864.887 987.866 1362.02>
LayerCount: 2
Fore
SplineSet
1102 1536 m 1
 1330 150 l 1
 1480 98 l 1
 1458 0 l 1
 872 0 l 1
 896 90 l 1
 1104 156 l 1
 1036 524 l 1
 552 524 l 1
 366 150 l 1
 572 98 l 1
 546 0 l 1
 6 0 l 1
 28 90 l 1
 208 156 l 1
 924 1498 l 1
 1102 1536 l 1
614 646 m 1
 1020 646 l 1
 924 1252 l 1
 614 646 l 1
1050 1914 m 1
 1266 1689 l 1
 1206 1646 l 1
 1008 1778 l 1
 996 1778 l 1
 826 1644 l 1
 780 1680 l 1
 984 1898 l 1
 1050 1914 l 1
EndSplineSet
Validated: 1
EndChar

StartChar: Adieresis
Encoding: 196 196 165
Width: 1547
Flags: W
HStem: 0 90<522.78 546 896 941.18> 524 122<614 1020> 1516 20G<1008.32 1105.29> 1676 192<774.24 948.144 1098.24 1273.6>
VStem: 758 206<1693.74 1850.53> 1082 208<1693.74 1849.83>
DStem2: 208 156 366 150 0.470725 0.88228<69.0808 486.608 623.432 623.432> 1102 1536 924 1252 0.162321 -0.986738<251.341 864.887 987.866 1362.02>
LayerCount: 2
Fore
SplineSet
1102 1536 m 1
 1330 150 l 1
 1480 98 l 1
 1458 0 l 1
 872 0 l 1
 896 90 l 1
 1104 156 l 1
 1036 524 l 1
 552 524 l 1
 366 150 l 1
 572 98 l 1
 546 0 l 1
 6 0 l 1
 28 90 l 1
 208 156 l 1
 924 1498 l 1
 1102 1536 l 1
614 646 m 1
 1020 646 l 1
 924 1252 l 1
 614 646 l 1
1184 1868 m 0
 1238 1868 1290 1830 1290 1774 c 0
 1290 1714 1238 1676 1184 1676 c 0
 1132 1676 1082 1714 1082 1774 c 0
 1082 1832 1134 1868 1184 1868 c 0
860 1868 m 0
 914 1868 964 1830 964 1774 c 0
 964 1714 914 1676 860 1676 c 0
 808 1676 758 1714 758 1774 c 0
 758 1832 810 1868 860 1868 c 0
EndSplineSet
Validated: 1
EndChar

StartChar: Agrave
Encoding: 192 192 166
Width: 1547
Flags: W
HStem: 0 90<522.78 546 896 941.18> 524 122<614 1020> 1516 20G<1008.32 1105.29>
DStem2: 208 156 366 150 0.470725 0.88228<69.0808 486.608 623.432 623.432> 1102 1536 924 1252 0.162321 -0.986738<251.341 864.887 987.866 1362.02>
LayerCount: 2
Fore
SplineSet
1102 1536 m 1
 1330 150 l 1
 1480 98 l 1
 1458 0 l 1
 872 0 l 1
 896 90 l 1
 1104 156 l 1
 1036 524 l 1
 552 524 l 1
 366 150 l 1
 572 98 l 1
 546 0 l 1
 6 0 l 1
 28 90 l 1
 208 156 l 1
 924 1498 l 1
 1102 1536 l 1
614 646 m 1
 1020 646 l 1
 924 1252 l 1
 614 646 l 1
874 2010 m 1
 1014 2056 l 1
 1174 1652 l 1
 1104 1610 l 1
 874 2010 l 1
EndSplineSet
Validated: 1
EndChar

StartChar: Aring
Encoding: 197 197 167
Width: 1547
Flags: W
HStem: 0 90<522.78 546 896 941.18> 524 122<614 1020> 1516 20G<1008.32 1105.29> 1650 58<961.478 1099.95> 2000 58<951.745 1087.94>
VStem: 828 86<1740.23 1975.01> 1134 86<1730.13 1966.47>
DStem2: 208 156 366 150 0.470725 0.88228<69.0808 486.608 623.432 623.432> 1102 1536 924 1252 0.162321 -0.986738<251.341 864.887 987.866 1362.02>
LayerCount: 2
Fore
SplineSet
1102 1536 m 1
 1330 150 l 1
 1480 98 l 1
 1458 0 l 1
 872 0 l 1
 896 90 l 1
 1104 156 l 1
 1036 524 l 1
 552 524 l 1
 366 150 l 1
 572 98 l 1
 546 0 l 1
 6 0 l 1
 28 90 l 1
 208 156 l 1
 924 1498 l 1
 1102 1536 l 1
614 646 m 1
 1020 646 l 1
 924 1252 l 1
 614 646 l 1
1018 2000 m 0
 946 2000 914 1932 914 1864 c 0
 914 1790 952 1708 1030 1708 c 0
 1096 1708 1134 1758 1134 1846 c 0
 1134 1922 1094 2000 1018 2000 c 0
1032 2058 m 0
 1148 2058 1220 1976 1220 1862 c 0
 1220 1752 1140 1650 1016 1650 c 0
 904 1650 828 1726 828 1850 c 0
 828 1962 918 2058 1032 2058 c 0
EndSplineSet
Validated: 1
EndChar

StartChar: Atilde
Encoding: 195 195 168
Width: 1547
Flags: W
HStem: 0 90<522.78 546 896 941.18> 524 122<614 1020> 1516 20G<1008.32 1105.29> 1680 126<1068.48 1238.53> 1718 126<804.662 965.861>
DStem2: 208 156 366 150 0.470725 0.88228<69.0808 486.608 623.432 623.432> 1102 1536 924 1252 0.162321 -0.986738<251.341 864.887 987.866 1362.02>
LayerCount: 2
Fore
SplineSet
1102 1536 m 1xe0
 1330 150 l 1
 1480 98 l 1
 1458 0 l 1
 872 0 l 1
 896 90 l 1
 1104 156 l 1
 1036 524 l 1
 552 524 l 1
 366 150 l 1
 572 98 l 1
 546 0 l 1
 6 0 l 1
 28 90 l 1
 208 156 l 1
 924 1498 l 1
 1102 1536 l 1xe0
614 646 m 1
 1020 646 l 1
 924 1252 l 1
 614 646 l 1
742 1670 m 1
 742 1670 782 1844 890 1844 c 0xe8
 896 1844 900 1842 906 1842 c 2
 1176 1806 l 2
 1178 1806 1178 1806 1180 1806 c 0
 1212 1806 1248 1856 1248 1856 c 1
 1306 1854 l 1
 1306 1854 1262 1680 1148 1680 c 0
 1144 1680 1140 1680 1134 1680 c 2xf0
 864 1718 l 2
 862 1718 862 1718 860 1718 c 0xe8
 824 1718 788 1660 788 1660 c 1
 742 1670 l 1
EndSplineSet
Validated: 1
EndChar

StartChar: Ccedilla
Encoding: 199 199 169
Width: 1345
Flags: W
HStem: -472 72<639.221 682.32> -30 158<658.723 730> 1422 116<781.781 1151.63>
VStem: 158 256<395.067 856.877> 724 162<-369.076 -212.387> 1242 98<1030 1071.63>
LayerCount: 2
Fore
SplineSet
778 -92 m 1
 824 -132 886 -192 886 -274 c 0
 886 -370 784 -430 644 -472 c 1
 620 -400 l 1
 690 -376 724 -336 724 -300 c 0
 724 -258 680 -208 636 -166 c 1
 730 -30 l 1
 422 -26 158 188 158 584 c 0
 158 972 448 1538 1044 1538 c 0
 1196 1538 1344 1504 1440 1416 c 1
 1340 1014 l 1
 1242 1030 l 1
 1238 1296 l 1
 1196 1368 1104 1422 956 1422 c 0
 674 1422 414 1116 414 652 c 0
 414 292 618 128 854 128 c 0
 988 128 1126 176 1274 312 c 1
 1320 246 l 1
 1170 70 990 -6 824 -26 c 1
 778 -92 l 1
EndSplineSet
Validated: 1
EndChar

StartChar: Eacute
Encoding: 201 201 170
Width: 1301
Flags: W
HStem: 0 116<478 1052> 0 90<62 113.2> 706 114<590 890> 1396 110<680 1226> 1414 92<272 309.917>
VStem: 896 102<510 570.16> 1232 98<1136 1177.64>
DStem2: 262 146 478 116 0.155883 0.987776<4.03753 601.478 716.89 1233.04>
LayerCount: 2
Fore
SplineSet
272 1506 m 1x6e
 1426 1506 l 1x6e
 1330 1120 l 1
 1232 1136 l 1
 1226 1396 l 1
 680 1396 l 1
 590 820 l 1
 926 820 l 1
 1000 964 l 1
 1110 980 l 1
 998 510 l 1
 896 494 l 1
 890 706 l 1
 572 706 l 1
 478 116 l 1
 1052 116 l 1xb6
 1210 394 l 1
 1304 380 l 1
 1208 0 l 1
 44 0 l 1
 62 90 l 1
 262 146 l 1
 454 1364 l 1
 252 1414 l 1
 272 1506 l 1x6e
1224 2018 m 1
 1002 1634 l 1
 940 1672 l 1
 1088 2066 l 1
 1224 2018 l 1
EndSplineSet
Validated: 1
EndChar

StartChar: Ecircumflex
Encoding: 202 202 171
Width: 1301
Flags: W
HStem: 0 116<478 1052> 0 90<62 113.2> 706 114<590 890> 1396 110<680 1226> 1414 92<272 309.917>
VStem: 896 102<510 570.16> 1232 98<1136 1177.64>
DStem2: 262 146 478 116 0.155883 0.987776<4.03753 601.478 716.89 1233.04>
LayerCount: 2
Fore
SplineSet
272 1506 m 1x6e
 1426 1506 l 1x6e
 1330 1120 l 1
 1232 1136 l 1
 1226 1396 l 1
 680 1396 l 1
 590 820 l 1
 926 820 l 1
 1000 964 l 1
 1110 980 l 1
 998 510 l 1
 896 494 l 1
 890 706 l 1
 572 706 l 1
 478 116 l 1
 1052 116 l 1xb6
 1210 394 l 1
 1304 380 l 1
 1208 0 l 1
 44 0 l 1
 62 90 l 1
 262 146 l 1
 454 1364 l 1
 252 1414 l 1
 272 1506 l 1x6e
938 1914 m 1
 1154 1689 l 1
 1094 1646 l 1
 896 1778 l 1
 884 1778 l 1
 714 1644 l 1
 668 1680 l 1
 872 1898 l 1
 938 1914 l 1
EndSplineSet
Validated: 1
EndChar

StartChar: Edieresis
Encoding: 203 203 172
Width: 1301
Flags: W
HStem: 0 116<478 1052> 0 90<62 113.2> 706 114<590 890> 1396 110<680 1226> 1414 92<272 309.917> 1676 192<662.24 836.144 986.24 1160.87>
VStem: 646 206<1693.74 1850.53> 896 102<510 570.16> 970 207<1693.74 1850.53> 1232 98<1136 1177.64>
DStem2: 262 146 478 116 0.155883 0.987776<4.03753 601.478 716.89 1233.04>
LayerCount: 2
Fore
SplineSet
272 1506 m 1x6f40
 1426 1506 l 1x6f40
 1330 1120 l 1
 1232 1136 l 1
 1226 1396 l 1
 680 1396 l 1
 590 820 l 1
 926 820 l 1
 1000 964 l 1
 1110 980 l 1
 998 510 l 1
 896 494 l 1
 890 706 l 1
 572 706 l 1
 478 116 l 1
 1052 116 l 1xb740
 1210 394 l 1
 1304 380 l 1
 1208 0 l 1
 44 0 l 1
 62 90 l 1
 262 146 l 1
 454 1364 l 1
 252 1414 l 1
 272 1506 l 1x6f40
1072 1868 m 0
 1126 1868 1177 1830 1177 1774 c 0
 1177 1714 1126 1676 1072 1676 c 0
 1020 1676 970 1714 970 1774 c 0x26c0
 970 1832 1022 1868 1072 1868 c 0
748 1868 m 0
 802 1868 852 1830 852 1774 c 0
 852 1714 802 1676 748 1676 c 0
 696 1676 646 1714 646 1774 c 0
 646 1832 698 1868 748 1868 c 0
EndSplineSet
Validated: 1
EndChar

StartChar: Egrave
Encoding: 200 200 173
Width: 1301
Flags: W
HStem: 0 116<478 1052> 0 90<62 113.2> 706 114<590 890> 1396 110<680 1226> 1414 92<272 309.917>
VStem: 896 102<510 570.16> 1232 98<1136 1177.64>
DStem2: 262 146 478 116 0.155883 0.987776<4.03753 601.478 716.89 1233.04>
LayerCount: 2
Fore
SplineSet
272 1506 m 1x6e
 1426 1506 l 1x6e
 1330 1120 l 1
 1232 1136 l 1
 1226 1396 l 1
 680 1396 l 1
 590 820 l 1
 926 820 l 1
 1000 964 l 1
 1110 980 l 1
 998 510 l 1
 896 494 l 1
 890 706 l 1
 572 706 l 1
 478 116 l 1
 1052 116 l 1xb6
 1210 394 l 1
 1304 380 l 1
 1208 0 l 1
 44 0 l 1
 62 90 l 1
 262 146 l 1
 454 1364 l 1
 252 1414 l 1
 272 1506 l 1x6e
762 2010 m 1
 902 2056 l 1
 1062 1652 l 1
 992 1610 l 1
 762 2010 l 1
EndSplineSet
Validated: 1
EndChar

StartChar: Iacute
Encoding: 205 205 174
Width: 727
Flags: W
HStem: 0 90<62 113.2 626.475 665> 1414 92<272 309.917 816.423 880>
DStem2: 262 146 482 138 0.155798 0.987789<26.3732 1233.04>
LayerCount: 2
Fore
SplineSet
665 0 m 1
 44 0 l 1
 62 90 l 1
 262 146 l 1
 454 1364 l 1
 252 1414 l 1
 272 1506 l 1
 900 1506 l 1
 880 1414 l 1
 676 1368 l 1
 482 138 l 1
 688 98 l 1
 665 0 l 1
918 2018 m 1
 696 1634 l 1
 634 1672 l 1
 782 2066 l 1
 918 2018 l 1
EndSplineSet
Validated: 1
EndChar

StartChar: Icircumflex
Encoding: 206 206 175
Width: 727
Flags: W
HStem: 0 90<62 113.2 626.475 665> 1414 92<272 309.917 816.423 880>
DStem2: 262 146 482 138 0.155798 0.987789<26.3732 1233.04>
LayerCount: 2
Fore
SplineSet
665 0 m 1
 44 0 l 1
 62 90 l 1
 262 146 l 1
 454 1364 l 1
 252 1414 l 1
 272 1506 l 1
 900 1506 l 1
 880 1414 l 1
 676 1368 l 1
 482 138 l 1
 688 98 l 1
 665 0 l 1
632 1914 m 1
 848 1689 l 1
 788 1646 l 1
 590 1778 l 1
 578 1778 l 1
 408 1644 l 1
 362 1680 l 1
 566 1898 l 1
 632 1914 l 1
EndSplineSet
Validated: 1
EndChar

StartChar: Idieresis
Encoding: 207 207 176
Width: 727
Flags: W
HStem: 0 90<62 113.2 626.475 665> 1414 92<272 309.917 816.423 880> 1676 192<356.24 530.144 680.24 855.597>
VStem: 340 206<1693.74 1850.53> 664 208<1693.74 1849.83>
DStem2: 262 146 482 138 0.155798 0.987789<26.3732 1233.04>
LayerCount: 2
Fore
SplineSet
665 0 m 1
 44 0 l 1
 62 90 l 1
 262 146 l 1
 454 1364 l 1
 252 1414 l 1
 272 1506 l 1
 900 1506 l 1
 880 1414 l 1
 676 1368 l 1
 482 138 l 1
 688 98 l 1
 665 0 l 1
766 1868 m 0
 820 1868 872 1830 872 1774 c 0
 872 1714 820 1676 766 1676 c 0
 714 1676 664 1714 664 1774 c 0
 664 1832 716 1868 766 1868 c 0
442 1868 m 0
 496 1868 546 1830 546 1774 c 0
 546 1714 496 1676 442 1676 c 0
 390 1676 340 1714 340 1774 c 0
 340 1832 392 1868 442 1868 c 0
EndSplineSet
Validated: 1
EndChar

StartChar: Igrave
Encoding: 204 204 177
Width: 727
Flags: W
HStem: 0 90<62 113.2 626.475 665> 1414 92<272 309.917 816.423 880>
DStem2: 262 146 482 138 0.155798 0.987789<26.3732 1233.04>
LayerCount: 2
Fore
SplineSet
665 0 m 1
 44 0 l 1
 62 90 l 1
 262 146 l 1
 454 1364 l 1
 252 1414 l 1
 272 1506 l 1
 900 1506 l 1
 880 1414 l 1
 676 1368 l 1
 482 138 l 1
 688 98 l 1
 665 0 l 1
456 2010 m 1
 596 2056 l 1
 756 1652 l 1
 686 1610 l 1
 456 2010 l 1
EndSplineSet
Validated: 1
EndChar

StartChar: Ntilde
Encoding: 209 209 178
Width: 1619
Flags: W
HStem: 0 90<62 113.2 551.877 592> 1414 92<272 299.787 1210 1247.06 1673.67 1736> 1680 126<1056.48 1226.53> 1718 126<792.662 953.861>
DStem2: 262 146 406 138 0.155375 0.987856<14.4711 1053.18> 676 1506 568 1164 0.432731 -0.901523<261.586 1300.79> 1232 330 1320 0 0.155963 0.987763<0 1046.61>
LayerCount: 2
Fore
SplineSet
1144 -36 m 1xc0
 568 1164 l 1
 406 138 l 1
 614 98 l 1
 592 0 l 1
 44 0 l 1
 62 90 l 1
 262 146 l 1
 452 1354 l 1
 252 1414 l 1
 272 1506 l 1
 676 1506 l 1
 1232 330 l 1
 1394 1364 l 1
 1188 1414 l 1
 1210 1506 l 1
 1758 1506 l 1
 1736 1414 l 1
 1536 1368 l 1
 1320 0 l 1
 1144 -36 l 1xc0
730 1670 m 1
 730 1670 770 1844 878 1844 c 0xd0
 884 1844 888 1842 894 1842 c 2
 1164 1806 l 2
 1166 1806 1166 1806 1168 1806 c 0
 1200 1806 1236 1856 1236 1856 c 1
 1294 1854 l 1
 1294 1854 1250 1680 1136 1680 c 0
 1132 1680 1128 1680 1122 1680 c 2xe0
 852 1718 l 2
 850 1718 850 1718 848 1718 c 0xd0
 812 1718 776 1660 776 1660 c 1
 730 1670 l 1
EndSplineSet
Validated: 1
EndChar

StartChar: Oacute
Encoding: 211 211 179
Width: 1601
Flags: W
HStem: -32 128<639.744 1005.93> 1424 118<766.802 1131.79>
VStem: 166 264<356.381 917.479> 1344 258<597.081 1152.25>
LayerCount: 2
Fore
SplineSet
1344 864 m 0
 1344 1140 1238 1424 974 1424 c 0
 494 1424 430 930 430 640 c 0
 430 358 534 96 798 96 c 0
 1272 96 1344 590 1344 864 c 0
1048 1542 m 0
 1408 1542 1602 1246 1602 882 c 0
 1602 400 1264 -32 720 -32 c 0
 374 -32 166 248 166 612 c 0
 166 1144 524 1542 1048 1542 c 0
1372 2022 m 1
 1150 1638 l 1
 1088 1676 l 1
 1236 2070 l 1
 1372 2022 l 1
EndSplineSet
Validated: 1
EndChar

StartChar: Ocircumflex
Encoding: 212 212 180
Width: 1601
Flags: W
HStem: -32 128<639.744 1005.93> 1424 118<766.802 1131.79>
VStem: 166 264<356.381 917.479> 1344 258<597.081 1152.25>
LayerCount: 2
Fore
SplineSet
1344 864 m 0
 1344 1140 1238 1424 974 1424 c 0
 494 1424 430 930 430 640 c 0
 430 358 534 96 798 96 c 0
 1272 96 1344 590 1344 864 c 0
1048 1542 m 0
 1408 1542 1602 1246 1602 882 c 0
 1602 400 1264 -32 720 -32 c 0
 374 -32 166 248 166 612 c 0
 166 1144 524 1542 1048 1542 c 0
1086 1918 m 1
 1302 1694 l 1
 1242 1650 l 1
 1044 1782 l 1
 1032 1782 l 1
 862 1648 l 1
 816 1684 l 1
 1020 1902 l 1
 1086 1918 l 1
EndSplineSet
Validated: 1
EndChar

StartChar: Odieresis
Encoding: 214 214 181
Width: 1601
Flags: W
HStem: -32 128<639.744 1005.93> 1424 118<766.802 1131.79> 1680 192<810.24 984.144 1134.24 1309.6>
VStem: 166 264<356.381 917.479> 794 206<1697.74 1854.53> 1118 208<1697.74 1853.83> 1344 258<597.081 1152.25>
LayerCount: 2
Fore
SplineSet
1344 864 m 0
 1344 1140 1238 1424 974 1424 c 0
 494 1424 430 930 430 640 c 0
 430 358 534 96 798 96 c 0
 1272 96 1344 590 1344 864 c 0
1048 1542 m 0
 1408 1542 1602 1246 1602 882 c 0
 1602 400 1264 -32 720 -32 c 0
 374 -32 166 248 166 612 c 0
 166 1144 524 1542 1048 1542 c 0
1220 1872 m 0
 1274 1872 1326 1834 1326 1778 c 0
 1326 1718 1274 1680 1220 1680 c 0
 1168 1680 1118 1718 1118 1778 c 0
 1118 1836 1170 1872 1220 1872 c 0
896 1872 m 0
 950 1872 1000 1834 1000 1778 c 0
 1000 1718 950 1680 896 1680 c 0
 844 1680 794 1718 794 1778 c 0
 794 1836 846 1872 896 1872 c 0
EndSplineSet
Validated: 1
EndChar

StartChar: Ograve
Encoding: 210 210 182
Width: 1601
Flags: W
HStem: -32 128<639.744 1005.93> 1424 118<766.802 1131.79>
VStem: 166 264<356.381 917.479> 1344 258<597.081 1152.25>
LayerCount: 2
Fore
SplineSet
1344 864 m 0
 1344 1140 1238 1424 974 1424 c 0
 494 1424 430 930 430 640 c 0
 430 358 534 96 798 96 c 0
 1272 96 1344 590 1344 864 c 0
1048 1542 m 0
 1408 1542 1602 1246 1602 882 c 0
 1602 400 1264 -32 720 -32 c 0
 374 -32 166 248 166 612 c 0
 166 1144 524 1542 1048 1542 c 0
910 2014 m 1
 1050 2060 l 1
 1210 1656 l 1
 1140 1614 l 1
 910 2014 l 1
EndSplineSet
Validated: 1
EndChar

StartChar: Otilde
Encoding: 213 213 183
Width: 1601
Flags: W
HStem: -32 128<639.744 1005.93> 1424 118<766.802 1131.79> 1684 126<1104.48 1274.53> 1722 126<840.662 1001.86>
VStem: 166 264<356.381 917.479> 1344 258<597.081 1152.25>
LayerCount: 2
Fore
SplineSet
1344 864 m 0xcc
 1344 1140 1238 1424 974 1424 c 0
 494 1424 430 930 430 640 c 0
 430 358 534 96 798 96 c 0
 1272 96 1344 590 1344 864 c 0xcc
1048 1542 m 0
 1408 1542 1602 1246 1602 882 c 0
 1602 400 1264 -32 720 -32 c 0
 374 -32 166 248 166 612 c 0
 166 1144 524 1542 1048 1542 c 0
778 1674 m 1
 778 1674 818 1848 926 1848 c 0xdc
 932 1848 936 1846 942 1846 c 2
 1212 1810 l 2
 1214 1810 1214 1810 1216 1810 c 0
 1248 1810 1284 1860 1284 1860 c 1
 1342 1858 l 1
 1342 1858 1298 1684 1184 1684 c 0
 1180 1684 1176 1684 1170 1684 c 2xec
 900 1722 l 2
 898 1722 898 1722 896 1722 c 0xdc
 860 1722 824 1664 824 1664 c 1
 778 1674 l 1
EndSplineSet
Validated: 1
EndChar

StartChar: Scaron
Encoding: 352 352 184
Width: 1045
Flags: W
HStem: -30 124<335.48 665.548> 1074 21G<886 1004.56> 1434 104<581.664 837.235>
VStem: 144 114<403.693 454> 252 214<1018.44 1234.81> 800 228<278.199 480.238> 886 114<1088 1264.91>
DStem2: 652 1922 554 1848 0.736873 -0.676031<0 250.267> 844 1748 838 1664 0.690318 0.723506<0 226.544>
LayerCount: 2
Fore
SplineSet
1000 1074 m 1xea
 886 1088 l 1
 892 1320 l 1
 884 1354 814 1434 716 1434 c 0
 584 1434 466 1332 466 1152 c 0xea
 466 858 1028 800 1028 464 c 0
 1028 158 726 -30 436 -30 c 0
 270 -30 122 50 76 148 c 1
 144 472 l 1
 258 454 l 1
 264 226 l 1
 296 148 370 94 484 94 c 0
 616 94 800 161 800 359 c 0xf4
 800 625 252 692 252 1034 c 0
 252 1344 520 1538 772 1538 c 0
 874 1538 1002 1510 1078 1416 c 1
 1076 1406 1000 1074 1000 1074 c 1xea
772 1648 m 1
 554 1848 l 1
 652 1922 l 1
 832 1748 l 1
 844 1748 l 1
 994 1918 l 1
 1046 1882 l 1
 838 1664 l 1
 772 1648 l 1
EndSplineSet
Validated: 1
EndChar

StartChar: Uacute
Encoding: 218 218 185
Width: 1657
Flags: W
HStem: -32 144<670.928 1039.95> 1414 92<254 291.064 796.423 860 1254 1293.34 1723.05 1786>
VStem: 300 224<263.052 766.719>
DStem2: 312 568 536 598 0.156345 0.987703<-67.7207 805.911> 1312 582 1458 604 0.156611 0.98766<-258.898 791.77>
LayerCount: 2
Fore
SplineSet
536 598 m 2
 528 548 524 504 524 464 c 0
 524 216 660 112 862 112 c 0
 1208 112 1282 394 1312 582 c 2
 1436 1364 l 1
 1236 1414 l 1
 1254 1506 l 1
 1806 1506 l 1
 1786 1414 l 1
 1584 1368 l 1
 1458 604 l 1
 1380 138 1118 -32 764 -32 c 0
 570 -32 300 40 300 416 c 0
 300 462 304 512 312 568 c 2
 438 1364 l 1
 232 1414 l 1
 254 1506 l 1
 878 1506 l 1
 860 1414 l 1
 656 1368 l 1
 536 598 l 2
1398 2018 m 1
 1176 1634 l 1
 1114 1672 l 1
 1262 2066 l 1
 1398 2018 l 1
EndSplineSet
Validated: 1
EndChar

StartChar: Ucircumflex
Encoding: 219 219 186
Width: 1657
Flags: W
HStem: -32 144<670.928 1039.95> 1414 92<254 291.064 796.423 860 1254 1293.34 1723.05 1786>
VStem: 300 224<263.052 766.719>
DStem2: 312 568 536 598 0.156345 0.987703<-67.7207 805.911> 1312 582 1458 604 0.156611 0.98766<-258.898 791.77>
LayerCount: 2
Fore
SplineSet
536 598 m 2
 528 548 524 504 524 464 c 0
 524 216 660 112 862 112 c 0
 1208 112 1282 394 1312 582 c 2
 1436 1364 l 1
 1236 1414 l 1
 1254 1506 l 1
 1806 1506 l 1
 1786 1414 l 1
 1584 1368 l 1
 1458 604 l 1
 1380 138 1118 -32 764 -32 c 0
 570 -32 300 40 300 416 c 0
 300 462 304 512 312 568 c 2
 438 1364 l 1
 232 1414 l 1
 254 1506 l 1
 878 1506 l 1
 860 1414 l 1
 656 1368 l 1
 536 598 l 2
1112 1914 m 1
 1328 1689 l 1
 1268 1646 l 1
 1070 1778 l 1
 1058 1778 l 1
 888 1644 l 1
 842 1680 l 1
 1046 1898 l 1
 1112 1914 l 1
EndSplineSet
Validated: 1
EndChar

StartChar: Udieresis
Encoding: 220 220 187
Width: 1657
Flags: W
HStem: -32 144<670.928 1039.95> 1414 92<254 291.064 796.423 860 1254 1293.34 1723.05 1786> 1676 192<836.24 1010.14 1160.24 1335.6>
VStem: 300 224<263.052 766.719> 820 206<1693.74 1850.53> 1144 208<1693.74 1849.83>
DStem2: 312 568 536 598 0.156345 0.987703<-67.7207 805.911> 1312 582 1458 604 0.156611 0.98766<-258.898 791.77>
LayerCount: 2
Fore
SplineSet
536 598 m 2
 528 548 524 504 524 464 c 0
 524 216 660 112 862 112 c 0
 1208 112 1282 394 1312 582 c 2
 1436 1364 l 1
 1236 1414 l 1
 1254 1506 l 1
 1806 1506 l 1
 1786 1414 l 1
 1584 1368 l 1
 1458 604 l 1
 1380 138 1118 -32 764 -32 c 0
 570 -32 300 40 300 416 c 0
 300 462 304 512 312 568 c 2
 438 1364 l 1
 232 1414 l 1
 254 1506 l 1
 878 1506 l 1
 860 1414 l 1
 656 1368 l 1
 536 598 l 2
1246 1868 m 0
 1300 1868 1352 1830 1352 1774 c 0
 1352 1714 1300 1676 1246 1676 c 0
 1194 1676 1144 1714 1144 1774 c 0
 1144 1832 1196 1868 1246 1868 c 0
922 1868 m 0
 976 1868 1026 1830 1026 1774 c 0
 1026 1714 976 1676 922 1676 c 0
 870 1676 820 1714 820 1774 c 0
 820 1832 872 1868 922 1868 c 0
EndSplineSet
Validated: 1
EndChar

StartChar: Ugrave
Encoding: 217 217 188
Width: 1657
Flags: W
HStem: -32 144<670.928 1039.95> 1414 92<254 291.064 796.423 860 1254 1293.34 1723.05 1786>
VStem: 300 224<263.052 766.719>
DStem2: 312 568 536 598 0.156345 0.987703<-67.7207 805.911> 1312 582 1458 604 0.156611 0.98766<-258.898 791.77>
LayerCount: 2
Fore
SplineSet
536 598 m 2
 528 548 524 504 524 464 c 0
 524 216 660 112 862 112 c 0
 1208 112 1282 394 1312 582 c 2
 1436 1364 l 1
 1236 1414 l 1
 1254 1506 l 1
 1806 1506 l 1
 1786 1414 l 1
 1584 1368 l 1
 1458 604 l 1
 1380 138 1118 -32 764 -32 c 0
 570 -32 300 40 300 416 c 0
 300 462 304 512 312 568 c 2
 438 1364 l 1
 232 1414 l 1
 254 1506 l 1
 878 1506 l 1
 860 1414 l 1
 656 1368 l 1
 536 598 l 2
936 2010 m 1
 1076 2056 l 1
 1236 1652 l 1
 1166 1610 l 1
 936 2010 l 1
EndSplineSet
Validated: 1
EndChar

StartChar: Yacute
Encoding: 221 221 189
Width: 1465
Flags: W
HStem: 0 90<444 490.592 976.448 1010> 1414 92<780.786 840 1096 1135.34 1542.63 1590>
DStem2: 650 1368 408 1364 0.361968 -0.932191<0 639.562> 626 146 846 138 0.157377 0.987539<26.7226 471.839> 882 772 926 640 0.575271 0.817963<0 712.041>
LayerCount: 2
Fore
SplineSet
926 640 m 1
 846 138 l 1
 1032 98 l 1
 1010 0 l 1
 424 0 l 1
 444 90 l 1
 626 146 l 1
 700 612 l 1
 408 1364 l 1
 260 1414 l 1
 284 1506 l 1
 862 1506 l 1
 840 1414 l 1
 650 1368 l 1
 882 772 l 1
 1278 1364 l 1
 1078 1414 l 1
 1096 1506 l 1
 1608 1506 l 1
 1590 1414 l 1
 1438 1368 l 1
 926 640 l 1
1270 2018 m 1
 1048 1634 l 1
 986 1672 l 1
 1134 2066 l 1
 1270 2018 l 1
EndSplineSet
Validated: 1
EndChar

StartChar: Zcaron
Encoding: 381 381 190
Width: 1221
Flags: W
HStem: 0 122<286 932> 1392 114<448 1098>
DStem2: 38 126 286 122 0.643442 0.765495<156.512 1651.16> 684 1918 586 1844 0.736873 -0.676031<0 250.267> 876 1744 871 1660 0.688575 0.725166<0 226.564>
LayerCount: 2
Fore
SplineSet
278 1506 m 1
 1386 1506 l 1
 1372 1414 l 1
 286 122 l 1
 932 122 l 1
 1104 424 l 1
 1214 406 l 1
 1114 0 l 1
 30 0 l 1
 38 126 l 1
 1098 1392 l 1
 448 1392 l 1
 338 1094 l 1
 232 1116 l 1
 278 1506 l 1
804 1644 m 1
 586 1844 l 1
 684 1918 l 1
 864 1744 l 1
 876 1744 l 1
 1026 1914 l 1
 1078 1878 l 1
 871 1660 l 1
 804 1644 l 1
EndSplineSet
Validated: 1
EndChar

StartChar: aacute
Encoding: 225 225 191
Width: 1019
Flags: W
HStem: -26 154<269 493.62> 946 126<519.186 751.89>
VStem: 100 196<180.013 601.716>
DStem2: 650 244 876 458 0.155655 0.987811<-14.8781 687.072>
LayerCount: 2
Fore
SplineSet
896 116 m 2
 978 102 l 1
 954 18 l 1
 912 0 852 -18 784 -18 c 0
 712 -18 640 12 640 100 c 0
 640 104 640 110 640 114 c 2
 644 160 l 1
 630 160 l 1
 574 60 466 -26 344 -26 c 0
 194 -26 100 108 100 332 c 0
 100 808 450 1072 718 1072 c 0
 796 1072 884 1066 942 1030 c 1
 962 1008 l 1
 876 458 l 2
 856 328 844 246 844 196 c 0
 844 140 858 122 896 116 c 2
650 244 m 1
 754 904 l 1
 720 936 666 946 610 946 c 0
 416 946 296 646 296 388 c 0
 296 206 346 128 442 128 c 0
 534 128 594 182 650 244 c 1
1094 1590 m 1
 872 1206 l 1
 810 1244 l 1
 958 1638 l 1
 1094 1590 l 1
EndSplineSet
Validated: 1
EndChar

StartChar: acircumflex
Encoding: 226 226 192
Width: 1019
Flags: W
HStem: -26 154<269 493.62> 946 126<519.186 751.89>
VStem: 100 196<180.013 601.716>
DStem2: 650 244 876 458 0.155655 0.987811<-14.8781 687.072>
LayerCount: 2
Fore
SplineSet
896 116 m 2
 978 102 l 1
 954 18 l 1
 912 0 852 -18 784 -18 c 0
 712 -18 640 12 640 100 c 0
 640 104 640 110 640 114 c 2
 644 160 l 1
 630 160 l 1
 574 60 466 -26 344 -26 c 0
 194 -26 100 108 100 332 c 0
 100 808 450 1072 718 1072 c 0
 796 1072 884 1066 942 1030 c 1
 962 1008 l 1
 876 458 l 2
 856 328 844 246 844 196 c 0
 844 140 858 122 896 116 c 2
650 244 m 1
 754 904 l 1
 720 936 666 946 610 946 c 0
 416 946 296 646 296 388 c 0
 296 206 346 128 442 128 c 0
 534 128 594 182 650 244 c 1
808 1486 m 1
 1024 1262 l 1
 964 1218 l 1
 766 1350 l 1
 754 1350 l 1
 584 1216 l 1
 538 1252 l 1
 742 1470 l 1
 808 1486 l 1
EndSplineSet
Validated: 1
EndChar

StartChar: adieresis
Encoding: 228 228 193
Width: 1019
Flags: W
HStem: -26 154<269 493.62> 946 126<519.186 751.89> 1248 192<532.24 706.144 856.24 1031.6>
VStem: 100 196<180.013 601.716> 516 206<1265.74 1422.53> 840 208<1265.74 1421.83>
DStem2: 650 244 876 458 0.155655 0.987811<-14.8781 687.072>
LayerCount: 2
Fore
SplineSet
896 116 m 2
 978 102 l 1
 954 18 l 1
 912 0 852 -18 784 -18 c 0
 712 -18 640 12 640 100 c 0
 640 104 640 110 640 114 c 2
 644 160 l 1
 630 160 l 1
 574 60 466 -26 344 -26 c 0
 194 -26 100 108 100 332 c 0
 100 808 450 1072 718 1072 c 0
 796 1072 884 1066 942 1030 c 1
 962 1008 l 1
 876 458 l 2
 856 328 844 246 844 196 c 0
 844 140 858 122 896 116 c 2
650 244 m 1
 754 904 l 1
 720 936 666 946 610 946 c 0
 416 946 296 646 296 388 c 0
 296 206 346 128 442 128 c 0
 534 128 594 182 650 244 c 1
942 1440 m 0
 996 1440 1048 1402 1048 1346 c 0
 1048 1286 996 1248 942 1248 c 0
 890 1248 840 1286 840 1346 c 0
 840 1404 892 1440 942 1440 c 0
618 1440 m 0
 672 1440 722 1402 722 1346 c 0
 722 1286 672 1248 618 1248 c 0
 566 1248 516 1286 516 1346 c 0
 516 1404 568 1440 618 1440 c 0
EndSplineSet
Validated: 1
EndChar

StartChar: agrave
Encoding: 224 224 194
Width: 1019
Flags: HW
HStem: -26 154<269 493.62> 946 126<519.186 751.89>
VStem: 100 196<180.013 601.716>
DStem2: 650 244 876 458 0.155655 0.987811<-14.8781 687.072>
LayerCount: 2
Fore
SplineSet
896 116 m 2
 978 102 l 1
 954 18 l 1
 912 0 852 -18 784 -18 c 0
 712 -18 640 12 640 100 c 0
 640 104 640 110 640 114 c 2
 644 160 l 1
 630 160 l 1
 574 60 466 -26 344 -26 c 0
 194 -26 100 108 100 332 c 0
 100 808 450 1072 718 1072 c 0
 796 1072 884 1066 942 1030 c 1
 962 1008 l 1
 876 458 l 2
 856 328 844 246 844 196 c 0
 844 140 858 122 896 116 c 2
650 244 m 1
 754 904 l 1
 720 936 666 946 610 946 c 0
 416 946 296 646 296 388 c 0
 296 206 346 128 442 128 c 0
 534 128 594 182 650 244 c 1
592 1582 m 1
 732 1628 l 1
 892 1224 l 1
 822 1182 l 1
 592 1582 l 1
EndSplineSet
Validated: 1
EndChar

StartChar: aring
Encoding: 229 229 195
Width: 1019
Flags: W
HStem: -26 154<269 493.62> 946 126<519.186 751.89> 1222 59<719.478 858.864> 1572 58<709.745 845.936>
VStem: 100 196<180.013 601.716> 586 86<1314.63 1547.01> 892 86<1302.46 1538.47>
DStem2: 650 244 876 458 0.155655 0.987811<-14.8781 687.072>
LayerCount: 2
Fore
SplineSet
896 116 m 2
 978 102 l 1
 954 18 l 1
 912 0 852 -18 784 -18 c 0
 712 -18 640 12 640 100 c 0
 640 104 640 110 640 114 c 2
 644 160 l 1
 630 160 l 1
 574 60 466 -26 344 -26 c 0
 194 -26 100 108 100 332 c 0
 100 808 450 1072 718 1072 c 0
 796 1072 884 1066 942 1030 c 1
 962 1008 l 1
 876 458 l 2
 856 328 844 246 844 196 c 0
 844 140 858 122 896 116 c 2
650 244 m 1
 754 904 l 1
 720 936 666 946 610 946 c 0
 416 946 296 646 296 388 c 0
 296 206 346 128 442 128 c 0
 534 128 594 182 650 244 c 1
776 1572 m 0
 704 1572 672 1504 672 1436 c 0
 672 1362 710 1281 788 1281 c 0
 854 1281 892 1330 892 1418 c 0
 892 1494 852 1572 776 1572 c 0
790 1630 m 0
 906 1630 978 1548 978 1434 c 0
 978 1324 898 1222 774 1222 c 0
 662 1222 586 1298 586 1422 c 0
 586 1534 676 1630 790 1630 c 0
EndSplineSet
Validated: 1
EndChar

StartChar: atilde
Encoding: 227 227 196
Width: 1019
Flags: W
HStem: -26 154<269 493.62> 946 126<519.186 751.89> 1252 126<826.48 996.527> 1290 126<562.662 723.861>
VStem: 100 196<180.013 601.716>
DStem2: 650 244 876 458 0.155655 0.987811<-14.8781 687.072>
LayerCount: 2
Fore
SplineSet
896 116 m 2xc8
 978 102 l 1
 954 18 l 1
 912 0 852 -18 784 -18 c 0
 712 -18 640 12 640 100 c 0
 640 104 640 110 640 114 c 2
 644 160 l 1
 630 160 l 1
 574 60 466 -26 344 -26 c 0
 194 -26 100 108 100 332 c 0
 100 808 450 1072 718 1072 c 0
 796 1072 884 1066 942 1030 c 1
 962 1008 l 1
 876 458 l 2
 856 328 844 246 844 196 c 0
 844 140 858 122 896 116 c 2xc8
650 244 m 1
 754 904 l 1
 720 936 666 946 610 946 c 0
 416 946 296 646 296 388 c 0
 296 206 346 128 442 128 c 0
 534 128 594 182 650 244 c 1
500 1242 m 1
 500 1242 540 1416 648 1416 c 0xd8
 654 1416 658 1414 664 1414 c 2
 934 1378 l 2
 936 1378 936 1378 938 1378 c 0
 970 1378 1006 1428 1006 1428 c 1
 1064 1426 l 1
 1064 1426 1020 1252 906 1252 c 0
 902 1252 898 1252 892 1252 c 2xe8
 622 1290 l 2
 620 1290 620 1290 618 1290 c 0xd8
 582 1290 546 1232 546 1232 c 1
 500 1242 l 1
EndSplineSet
Validated: 1
EndChar

StartChar: ccedilla
Encoding: 231 231 197
Width: 818
Flags: W
HStem: -472 72<293.221 336.32> 4 108<408 498> 976 114<464.538 681.209>
VStem: 72 208<192.053 638.191> 378 162<-369.076 -212.387> 652 168<860.125 944.324>
LayerCount: 2
Fore
SplineSet
280 400 m 0
 280 232 334 112 464 112 c 0
 564 112 626 148 686 188 c 1
 714 128 l 1
 658 58 570 0 480 -24 c 1
 498 4 l 1
 408 4 l 1
 380 -36 l 1
 384 -36 386 -36 390 -36 c 0
 420 -36 450 -32 480 -24 c 1
 432 -92 l 1
 478 -132 540 -192 540 -274 c 0
 540 -370 438 -430 298 -472 c 1
 274 -400 l 1
 344 -376 378 -336 378 -300 c 0
 378 -258 334 -208 290 -166 c 1
 380 -36 l 1
 188 -32 72 115 72 372 c 0
 72 816 408 1090 616 1090 c 0
 746 1090 820 1020 820 916 c 0
 820 832 740 786 652 778 c 1
 646 860 624 976 556 976 c 0
 438 976 280 752 280 400 c 0
EndSplineSet
Validated: 5
EndChar

StartChar: eacute
Encoding: 233 233 198
Width: 823
Flags: W
HStem: -36 160<335.383 554.56> 966 112<396.398 582.043>
VStem: 42 194<227.587 593.075> 612 184<648.018 938.521>
LayerCount: 2
Fore
SplineSet
257 620 m 1
 586 646 l 1
 608 690 612 732 612 790 c 1
 610 870 594 966 496 966 c 0
 412 966 309 872 257 620 c 1
796 792 m 0
 796 690 772 618 738 554 c 1
 244 532 l 1
 238 498 236 422 236 392 c 0
 238 212 346 124 484 124 c 0
 548 124 684 184 712 214 c 1
 744 160 l 1
 690 76 536 -36 370 -36 c 0
 180 -36 42 86 42 370 c 0
 42 748 268 1078 568 1078 c 0
 728 1078 796 972 796 792 c 0
849 1590 m 1
 627 1206 l 1
 566 1244 l 1
 713 1638 l 1
 849 1590 l 1
EndSplineSet
Validated: 1
EndChar

StartChar: ecircumflex
Encoding: 234 234 199
Width: 823
Flags: W
HStem: -36 160<335.383 554.56> 966 112<396.398 582.043>
VStem: 42 194<227.587 593.075> 612 184<648.018 938.521>
LayerCount: 2
Fore
SplineSet
257 620 m 1
 586 646 l 1
 608 690 612 732 612 790 c 1
 610 870 594 966 496 966 c 0
 412 966 309 872 257 620 c 1
796 792 m 0
 796 690 772 618 738 554 c 1
 244 532 l 1
 238 498 236 422 236 392 c 0
 238 212 346 124 484 124 c 0
 548 124 684 184 712 214 c 1
 744 160 l 1
 690 76 536 -36 370 -36 c 0
 180 -36 42 86 42 370 c 0
 42 748 268 1078 568 1078 c 0
 728 1078 796 972 796 792 c 0
633 1494 m 1
 849 1269 l 1
 789 1226 l 1
 591 1358 l 1
 579 1358 l 1
 409 1224 l 1
 364 1260 l 1
 568 1477 l 1
 633 1494 l 1
EndSplineSet
Validated: 1
EndChar

StartChar: edieresis
Encoding: 235 235 200
Width: 823
Flags: W
HStem: -36 160<335.383 554.56> 966 112<396.398 582.043> 1248 192<354.24 528.144 677.24 852.597>
VStem: 42 194<227.587 593.075> 338 206<1265.74 1422.53> 612 184<648.018 938.521> 661 208<1265.74 1421.83>
LayerCount: 2
Fore
SplineSet
257 620 m 1xfc
 586 646 l 1
 608 690 612 732 612 790 c 1
 610 870 594 966 496 966 c 0
 412 966 309 872 257 620 c 1xfc
796 792 m 0
 796 690 772 618 738 554 c 1
 244 532 l 1
 238 498 236 422 236 392 c 0
 238 212 346 124 484 124 c 0
 548 124 684 184 712 214 c 1
 744 160 l 1
 690 76 536 -36 370 -36 c 0
 180 -36 42 86 42 370 c 0
 42 748 268 1078 568 1078 c 0
 728 1078 796 972 796 792 c 0
763 1440 m 0
 817 1440 869 1402 869 1346 c 0
 869 1286 817 1248 763 1248 c 0
 711 1248 661 1286 661 1346 c 0xfa
 661 1404 713 1440 763 1440 c 0
440 1440 m 0
 494 1440 544 1402 544 1346 c 0
 544 1286 494 1248 440 1248 c 0
 388 1248 338 1286 338 1346 c 0
 338 1404 390 1440 440 1440 c 0
EndSplineSet
Validated: 1
EndChar

StartChar: egrave
Encoding: 232 232 201
Width: 823
Flags: W
HStem: -36 160<335.383 554.56> 966 112<396.398 582.043>
VStem: 42 194<227.587 593.075> 612 184<648.018 938.521>
LayerCount: 2
Fore
SplineSet
257 620 m 1
 586 646 l 1
 608 690 612 732 612 790 c 1
 610 870 594 966 496 966 c 0
 412 966 309 872 257 620 c 1
796 792 m 0
 796 690 772 618 738 554 c 1
 244 532 l 1
 238 498 236 422 236 392 c 0
 238 212 346 124 484 124 c 0
 548 124 684 184 712 214 c 1
 744 160 l 1
 690 76 536 -36 370 -36 c 0
 180 -36 42 86 42 370 c 0
 42 748 268 1078 568 1078 c 0
 728 1078 796 972 796 792 c 0
347 1582 m 1
 487 1628 l 1
 647 1224 l 1
 577 1182 l 1
 347 1582 l 1
EndSplineSet
Validated: 1
EndChar

StartChar: iacute
Encoding: 237 237 202
Width: 573
Flags: W
HStem: 0 88<26 71.6432 465.915 498> 930 92<150 225.119> 1032 20G<260.667 499.143>
VStem: 4 675
DStem2: 174 128 366 124 0.153707 0.988116<25.5593 785.531>
LayerCount: 2
Fore
SplineSet
174 128 m 1
 296 904 l 1
 138 930 l 1
 150 1022 l 1
 482 1052 l 1
 506 1024 l 1
 366 124 l 1
 518 86 l 1
 498 0 l 1
 4 0 l 1
 26 88 l 1
 174 128 l 1
679 1590 m 1
 457 1206 l 1
 395 1244 l 1
 543 1638 l 1
 679 1590 l 1
EndSplineSet
Validated: 1
EndChar

StartChar: icircumflex
Encoding: 238 238 203
Width: 573
Flags: W
HStem: 0 88<26 71.6432 465.915 498> 930 92<150 225.119> 1032 20G<260.667 499.143>
DStem2: 174 128 366 124 0.153707 0.988116<25.5593 785.531>
LayerCount: 2
Fore
SplineSet
174 128 m 1
 296 904 l 1
 138 930 l 1
 150 1022 l 1
 482 1052 l 1
 506 1024 l 1
 366 124 l 1
 518 86 l 1
 498 0 l 1
 4 0 l 1
 26 88 l 1
 174 128 l 1
494 1486 m 1
 710 1262 l 1
 650 1218 l 1
 452 1350 l 1
 440 1350 l 1
 270 1216 l 1
 224 1252 l 1
 428 1470 l 1
 494 1486 l 1
EndSplineSet
Validated: 1
EndChar

StartChar: idieresis
Encoding: 239 239 204
Width: 573
Flags: W
HStem: 0 88<26 71.6432 465.915 498> 930 92<150 225.119> 1032 20G<260.667 499.143> 1248 192<218.24 392.144 542.24 717.597>
VStem: 202 206<1265.74 1422.53> 526 208<1265.74 1421.83>
DStem2: 174 128 366 124 0.153707 0.988116<25.5593 785.531>
LayerCount: 2
Fore
SplineSet
174 128 m 1
 296 904 l 1
 138 930 l 1
 150 1022 l 1
 482 1052 l 1
 506 1024 l 1
 366 124 l 1
 518 86 l 1
 498 0 l 1
 4 0 l 1
 26 88 l 1
 174 128 l 1
628 1440 m 0
 682 1440 734 1402 734 1346 c 0
 734 1286 682 1248 628 1248 c 0
 576 1248 526 1286 526 1346 c 0
 526 1404 578 1440 628 1440 c 0
304 1440 m 0
 358 1440 408 1402 408 1346 c 0
 408 1286 358 1248 304 1248 c 0
 252 1248 202 1286 202 1346 c 0
 202 1404 254 1440 304 1440 c 0
EndSplineSet
Validated: 1
EndChar

StartChar: igrave
Encoding: 236 236 205
Width: 573
Flags: W
HStem: 0 88<26 71.6432 465.915 498> 930 92<150 225.119> 1032 20G<260.667 499.143>
VStem: 4 514
DStem2: 174 128 366 124 0.153707 0.988116<25.5593 785.531>
LayerCount: 2
Fore
SplineSet
174 128 m 1
 296 904 l 1
 138 930 l 1
 150 1022 l 1
 482 1052 l 1
 506 1024 l 1
 366 124 l 1
 518 86 l 1
 498 0 l 1
 4 0 l 1
 26 88 l 1
 174 128 l 1
157 1582 m 1
 297 1628 l 1
 456 1224 l 1
 387 1182 l 1
 157 1582 l 1
EndSplineSet
Validated: 1
EndChar

StartChar: ntilde
Encoding: 241 241 206
Width: 1087
Flags: W
HStem: 0 90<30 82.3264 458.165 492 984.267 1018> 900 182<679.717 884> 924 100<150 221.119> 1034 20G<262 504.571> 1252 126<728.48 898.527> 1290 126<464.662 625.861>
VStem: 796 206<534.844 888.48>
DStem2: 176 130 366 128 0.149348 0.988785<26.3985 753.952> 682 18 894 126 0.159735 0.98716<140.477 760.856>
LayerCount: 2
Fore
SplineSet
990 742 m 2xc2
 894 126 l 1
 1044 92 l 1
 1018 4 l 1
 696 4 l 1
 682 18 l 1
 782 636 l 1
 790 692 796 736 796 772 c 0
 796 872 760 900 696 900 c 0xc2
 596 900 528 856 474 804 c 1
 366 128 l 1
 514 90 l 1
 492 0 l 1
 4 0 l 1
 30 90 l 1
 176 130 l 1
 292 898 l 1
 134 924 l 1
 150 1024 l 1
 486 1054 l 1xb2
 512 1026 l 1
 470 874 l 1
 484 874 l 1
 552 964 700 1082 832 1082 c 0
 936 1082 1002 1034 1002 874 c 0
 1002 836 998 794 990 742 c 2xc2
402 1242 m 1
 402 1242 442 1416 550 1416 c 0x86
 556 1416 560 1414 566 1414 c 2
 836 1378 l 2
 838 1378 838 1378 840 1378 c 0
 872 1378 908 1428 908 1428 c 1
 966 1426 l 1
 966 1426 922 1252 808 1252 c 0
 804 1252 800 1252 794 1252 c 2x8a
 524 1290 l 2
 522 1290 522 1290 520 1290 c 0x86
 484 1290 448 1232 448 1232 c 1
 402 1242 l 1
EndSplineSet
Validated: 1
EndChar

StartChar: oacute
Encoding: 243 243 207
Width: 1007
Flags: W
HStem: -32 90<365.14 552.092> 988 94<457.467 672.297>
VStem: 66 222<170.721 649.053> 746 204<396.063 901.482>
LayerCount: 2
Fore
SplineSet
448 58 m 0
 626 58 746 365 746 665 c 0
 746 863 686 988 580 988 c 0
 380 988 288 692 288 390 c 0
 288 226 340 58 448 58 c 0
950 648 m 0
 950 314 722 -32 408 -32 c 0
 184 -32 66 156 66 398 c 0
 66 738 304 1082 632 1082 c 0
 854 1082 950 914 950 648 c 0
934 1590 m 1
 712 1206 l 1
 650 1244 l 1
 798 1638 l 1
 934 1590 l 1
EndSplineSet
Validated: 1
EndChar

StartChar: ocircumflex
Encoding: 244 244 208
Width: 1007
Flags: W
HStem: -32 90<365.14 552.092> 988 94<457.467 672.297>
VStem: 66 222<170.721 649.053> 746 204<396.063 901.482>
LayerCount: 2
Fore
SplineSet
448 58 m 0
 626 58 746 365 746 665 c 0
 746 863 686 988 580 988 c 0
 380 988 288 692 288 390 c 0
 288 226 340 58 448 58 c 0
950 648 m 0
 950 314 722 -32 408 -32 c 0
 184 -32 66 156 66 398 c 0
 66 738 304 1082 632 1082 c 0
 854 1082 950 914 950 648 c 0
648 1486 m 1
 864 1262 l 1
 804 1218 l 1
 606 1350 l 1
 594 1350 l 1
 424 1216 l 1
 378 1252 l 1
 582 1470 l 1
 648 1486 l 1
EndSplineSet
Validated: 1
EndChar

StartChar: odieresis
Encoding: 246 246 209
Width: 1007
Flags: W
HStem: -32 90<365.14 552.092> 988 94<457.467 672.297> 1248 192<372.24 546.144 696.24 871.597>
VStem: 66 222<170.721 649.053> 356 206<1265.74 1422.53> 680 208<1265.74 1421.83> 746 204<396.063 901.482>
LayerCount: 2
Fore
SplineSet
448 58 m 0xfa
 626 58 746 365 746 665 c 0
 746 863 686 988 580 988 c 0
 380 988 288 692 288 390 c 0
 288 226 340 58 448 58 c 0xfa
950 648 m 0
 950 314 722 -32 408 -32 c 0
 184 -32 66 156 66 398 c 0
 66 738 304 1082 632 1082 c 0
 854 1082 950 914 950 648 c 0
782 1440 m 0
 836 1440 888 1402 888 1346 c 0
 888 1286 836 1248 782 1248 c 0
 730 1248 680 1286 680 1346 c 0xfc
 680 1404 732 1440 782 1440 c 0
458 1440 m 0
 512 1440 562 1402 562 1346 c 0
 562 1286 512 1248 458 1248 c 0
 406 1248 356 1286 356 1346 c 0
 356 1404 408 1440 458 1440 c 0
EndSplineSet
Validated: 1
EndChar

StartChar: ograve
Encoding: 242 242 210
Width: 1007
Flags: W
HStem: -32 90<365.14 552.092> 988 94<457.467 672.297>
VStem: 66 222<170.721 649.053> 746 204<396.063 901.482>
LayerCount: 2
Fore
SplineSet
448 58 m 0
 626 58 746 365 746 665 c 0
 746 863 686 988 580 988 c 0
 380 988 288 692 288 390 c 0
 288 226 340 58 448 58 c 0
950 648 m 0
 950 314 722 -32 408 -32 c 0
 184 -32 66 156 66 398 c 0
 66 738 304 1082 632 1082 c 0
 854 1082 950 914 950 648 c 0
472 1582 m 1
 612 1628 l 1
 772 1224 l 1
 702 1182 l 1
 472 1582 l 1
EndSplineSet
Validated: 1
EndChar

StartChar: otilde
Encoding: 245 245 211
Width: 1007
Flags: W
HStem: -32 90<365.14 552.092> 988 94<457.467 672.297> 1252 126<666.48 836.527> 1290 126<402.662 563.861>
VStem: 66 222<170.721 649.053> 746 204<396.063 901.482>
LayerCount: 2
Fore
SplineSet
448 58 m 0xcc
 626 58 746 365 746 665 c 0
 746 863 686 988 580 988 c 0
 380 988 288 692 288 390 c 0
 288 226 340 58 448 58 c 0xcc
950 648 m 0
 950 314 722 -32 408 -32 c 0
 184 -32 66 156 66 398 c 0
 66 738 304 1082 632 1082 c 0
 854 1082 950 914 950 648 c 0
340 1242 m 1
 340 1242 380 1416 488 1416 c 0xdc
 494 1416 498 1414 504 1414 c 2
 774 1378 l 2
 776 1378 776 1378 778 1378 c 0
 810 1378 846 1428 846 1428 c 1
 904 1426 l 1
 904 1426 860 1252 746 1252 c 0
 742 1252 738 1252 732 1252 c 2xec
 462 1290 l 2
 460 1290 460 1290 458 1290 c 0xdc
 422 1290 386 1232 386 1232 c 1
 340 1242 l 1
EndSplineSet
Validated: 1
EndChar

StartChar: scaron
Encoding: 353 353 212
Width: 903
Flags: W
HStem: -42 108<335.379 539.239> 1000 92<439.387 621.551>
VStem: 224 176<715.269 896.899> 592 175<145.925 308.367>
DStem2: 464 1490 366 1416 0.736873 -0.676031<0 250.267> 656 1316 650 1232 0.690318 0.723506<0 226.544>
LayerCount: 2
Fore
SplineSet
610 1092 m 0
 732 1092 828 1040 828 924 c 0
 828 816 770 754 672 744 c 1
 668 772 l 1
 654 954 604 1000 548 1000 c 0
 470 1000 400 952 400 844 c 0
 400 618 767 532 767 296 c 0
 767 86 534 -42 376 -42 c 0
 198 -42 104 50 104 148 c 0
 104 224 156 290 252 300 c 1
 294 128 352 66 424 66 c 0
 498 66 592 116 592 220 c 0
 592 380 224 458 224 744 c 0
 224 920 394 1092 610 1092 c 0
584 1216 m 1
 366 1416 l 1
 464 1490 l 1
 644 1316 l 1
 656 1316 l 1
 806 1486 l 1
 858 1450 l 1
 650 1232 l 1
 584 1216 l 1
EndSplineSet
Validated: 1
EndChar

StartChar: uacute
Encoding: 250 250 213
Width: 1049
Flags: W
HStem: -24 166<292 509.788> 932 90<108 176.896 624 694.944> 1032 20G<222 467.143 739.333 987.143>
VStem: 156 203<155.739 550.047> 670 204<69.7878 315.781>
DStem2: 166 320 378 454 0.149003 0.988837<-18.45 590.593> 674 242 902 448 0.149363 0.988782<-3.4774 669.51>
LayerCount: 2
Fore
SplineSet
926 116 m 2
 1006 102 l 1
 984 18 l 1
 942 0 880 -18 814 -18 c 0
 720 -18 670 22 670 120 c 0
 670 132 670 144 672 158 c 1
 660 158 l 1
 626 94 502 -24 342 -24 c 0
 242 -24 156 20 156 198 c 0
 156 234 160 274 166 320 c 2
 254 904 l 1
 96 932 l 1
 108 1022 l 1
 450 1052 l 1
 474 1024 l 1
 378 454 l 2
 366 378 359 318 359 270 c 0
 359 182 384 142 456 142 c 0
 568 142 634 202 674 242 c 1
 774 904 l 1
 612 932 l 1
 624 1022 l 1
 970 1052 l 1
 994 1024 l 1
 902 448 l 2
 884 330 874 254 874 206 c 0
 874 136 892 122 926 116 c 2
906 1590 m 1
 684 1206 l 1
 622 1244 l 1
 770 1638 l 1
 906 1590 l 1
EndSplineSet
Validated: 1
EndChar

StartChar: ucircumflex
Encoding: 251 251 214
Width: 1049
Flags: W
HStem: -24 166<292 509.788> 932 90<108 176.896 624 694.944> 1032 20G<222 467.143 739.333 987.143>
VStem: 156 203<155.739 550.047> 670 204<69.7878 315.781>
DStem2: 166 320 378 454 0.149003 0.988837<-18.45 590.593> 674 242 902 448 0.149363 0.988782<-3.4774 669.51>
LayerCount: 2
Fore
SplineSet
926 116 m 2
 1006 102 l 1
 984 18 l 1
 942 0 880 -18 814 -18 c 0
 720 -18 670 22 670 120 c 0
 670 132 670 144 672 158 c 1
 660 158 l 1
 626 94 502 -24 342 -24 c 0
 242 -24 156 20 156 198 c 0
 156 234 160 274 166 320 c 2
 254 904 l 1
 96 932 l 1
 108 1022 l 1
 450 1052 l 1
 474 1024 l 1
 378 454 l 2
 366 378 359 318 359 270 c 0
 359 182 384 142 456 142 c 0
 568 142 634 202 674 242 c 1
 774 904 l 1
 612 932 l 1
 624 1022 l 1
 970 1052 l 1
 994 1024 l 1
 902 448 l 2
 884 330 874 254 874 206 c 0
 874 136 892 122 926 116 c 2
620 1486 m 1
 836 1262 l 1
 776 1218 l 1
 578 1350 l 1
 566 1350 l 1
 396 1216 l 1
 350 1252 l 1
 554 1470 l 1
 620 1486 l 1
EndSplineSet
Validated: 1
EndChar

StartChar: udieresis
Encoding: 252 252 215
Width: 1049
Flags: W
HStem: -24 166<292 509.788> 932 90<108 176.896 624 694.944> 1032 20G<222 467.143 739.333 987.143> 1248 192<344.24 518.144 668.24 843.597>
VStem: 156 203<155.739 550.047> 328 206<1265.74 1422.53> 652 208<1265.74 1421.83> 670 204<69.7878 315.781>
DStem2: 166 320 378 454 0.149003 0.988837<-18.45 590.593> 674 242 902 448 0.149363 0.988782<-3.4774 669.51>
LayerCount: 2
Fore
SplineSet
926 116 m 2xf9
 1006 102 l 1
 984 18 l 1
 942 0 880 -18 814 -18 c 0
 720 -18 670 22 670 120 c 0
 670 132 670 144 672 158 c 1
 660 158 l 1
 626 94 502 -24 342 -24 c 0
 242 -24 156 20 156 198 c 0
 156 234 160 274 166 320 c 2
 254 904 l 1
 96 932 l 1
 108 1022 l 1
 450 1052 l 1
 474 1024 l 1
 378 454 l 2
 366 378 359 318 359 270 c 0
 359 182 384 142 456 142 c 0
 568 142 634 202 674 242 c 1
 774 904 l 1
 612 932 l 1
 624 1022 l 1
 970 1052 l 1
 994 1024 l 1
 902 448 l 2
 884 330 874 254 874 206 c 0
 874 136 892 122 926 116 c 2xf9
754 1440 m 0
 808 1440 860 1402 860 1346 c 0
 860 1286 808 1248 754 1248 c 0
 702 1248 652 1286 652 1346 c 0xf2
 652 1404 704 1440 754 1440 c 0
430 1440 m 0
 484 1440 534 1402 534 1346 c 0
 534 1286 484 1248 430 1248 c 0
 378 1248 328 1286 328 1346 c 0xf4
 328 1404 380 1440 430 1440 c 0
EndSplineSet
Validated: 1
EndChar

StartChar: ugrave
Encoding: 249 249 216
Width: 1049
Flags: W
HStem: -24 166<292 509.788> 932 90<108 176.896 624 694.944> 1032 20G<222 467.143 739.333 987.143>
VStem: 156 203<155.739 550.047> 670 204<69.7878 315.781>
DStem2: 166 320 378 454 0.149003 0.988837<-18.45 590.593> 674 242 902 448 0.149363 0.988782<-3.4774 669.51>
LayerCount: 2
Fore
SplineSet
926 116 m 2
 1006 102 l 1
 984 18 l 1
 942 0 880 -18 814 -18 c 0
 720 -18 670 22 670 120 c 0
 670 132 670 144 672 158 c 1
 660 158 l 1
 626 94 502 -24 342 -24 c 0
 242 -24 156 20 156 198 c 0
 156 234 160 274 166 320 c 2
 254 904 l 1
 96 932 l 1
 108 1022 l 1
 450 1052 l 1
 474 1024 l 1
 378 454 l 2
 366 378 359 318 359 270 c 0
 359 182 384 142 456 142 c 0
 568 142 634 202 674 242 c 1
 774 904 l 1
 612 932 l 1
 624 1022 l 1
 970 1052 l 1
 994 1024 l 1
 902 448 l 2
 884 330 874 254 874 206 c 0
 874 136 892 122 926 116 c 2
444 1582 m 1
 584 1628 l 1
 744 1224 l 1
 674 1182 l 1
 444 1582 l 1
EndSplineSet
Validated: 1
EndChar

StartChar: yacute
Encoding: 253 253 217
Width: 1057
Flags: W
HStem: -460 224<-120.154 128.12> 972 86<445.774 486 654 675.643 999.929 1034>
DStem2: 336 926 136 934 0.159689 -0.987167<0 661.896> 268 -60 400 -64 0.462139 0.886807<-206.304 47.413 372.984 1115.4>
LayerCount: 2
Fore
SplineSet
438 272 m 1
 778 932 l 1
 630 972 l 1
 654 1058 l 1
 1058 1058 l 1
 1034 968 l 1
 918 930 l 1
 400 -64 l 2
 242 -366 130 -460 -36 -460 c 0
 -148 -460 -194 -400 -194 -324 c 0
 -194 -274 -170 -218 -108 -170 c 1
 -50 -216 0 -236 64 -236 c 0
 124 -236 183 -222 268 -60 c 2
 290 -18 l 1
 136 934 l 1
 22 972 l 1
 42 1058 l 1
 508 1058 l 1
 486 974 l 1
 336 926 l 1
 438 272 l 1
900 1590 m 1
 678 1206 l 1
 616 1244 l 1
 764 1638 l 1
 900 1590 l 1
EndSplineSet
Validated: 1
EndChar

StartChar: ydieresis
Encoding: 255 255 218
Width: 1057
Flags: W
HStem: -460 224<-120.154 128.12> 972 86<445.774 486 654 675.643 999.929 1034> 1248 192<338.24 512.144 662.24 837.597>
VStem: 322 206<1265.74 1422.53> 646 208<1265.74 1421.83>
DStem2: 336 926 136 934 0.159689 -0.987167<0 661.896> 268 -60 400 -64 0.462139 0.886807<-206.304 47.413 372.984 1115.4>
LayerCount: 2
Fore
SplineSet
438 272 m 1
 778 932 l 1
 630 972 l 1
 654 1058 l 1
 1058 1058 l 1
 1034 968 l 1
 918 930 l 1
 400 -64 l 2
 242 -366 130 -460 -36 -460 c 0
 -148 -460 -194 -400 -194 -324 c 0
 -194 -274 -170 -218 -108 -170 c 1
 -50 -216 0 -236 64 -236 c 0
 124 -236 183 -222 268 -60 c 2
 290 -18 l 1
 136 934 l 1
 22 972 l 1
 42 1058 l 1
 508 1058 l 1
 486 974 l 1
 336 926 l 1
 438 272 l 1
748 1440 m 0
 802 1440 854 1402 854 1346 c 0
 854 1286 802 1248 748 1248 c 0
 696 1248 646 1286 646 1346 c 0
 646 1404 698 1440 748 1440 c 0
424 1440 m 0
 478 1440 528 1402 528 1346 c 0
 528 1286 478 1248 424 1248 c 0
 372 1248 322 1286 322 1346 c 0
 322 1404 374 1440 424 1440 c 0
EndSplineSet
Validated: 1
EndChar

StartChar: zcaron
Encoding: 382 382 219
Width: 951
Flags: W
HStem: 0 106<274 640> 956 102<380 726>
DStem2: 70 96 274 106 0.607857 0.794047<131.943 1081.63> 448 1490 350 1416 0.736873 -0.676031<0 250.267> 640 1316 634 1232 0.690318 0.723506<0 226.544>
LayerCount: 2
Fore
SplineSet
194 767 m 1
 252 1058 l 1
 952 1058 l 1
 940 976 l 1
 274 106 l 1
 640 106 l 1
 780 304 l 1
 856 294 l 1
 760 0 l 1
 60 0 l 1
 70 96 l 1
 726 956 l 1
 380 956 l 1
 274 752 l 1
 194 767 l 1
568 1216 m 1
 350 1416 l 1
 448 1490 l 1
 628 1316 l 1
 640 1316 l 1
 790 1486 l 1
 842 1450 l 1
 634 1232 l 1
 568 1216 l 1
EndSplineSet
Validated: 1
EndChar

StartChar: Abreve
Encoding: 258 258 220
Width: 1547
Flags: W
HStem: 0 90<522.78 546 896 941.18> 524 122<614 1020> 1516 20G<1008.32 1105.29> 1664 132<904.37 1142.48>
VStem: 792 66<1853.07 1889.73>
DStem2: 208 156 366 150 0.470725 0.88228<69.0808 486.608 623.432 623.432> 1102 1536 924 1252 0.162321 -0.986738<251.341 864.887 987.866 1362.02>
LayerCount: 2
Fore
SplineSet
1102 1536 m 1
 1330 150 l 1
 1480 98 l 1
 1458 0 l 1
 872 0 l 1
 896 90 l 1
 1104 156 l 1
 1036 524 l 1
 552 524 l 1
 366 150 l 1
 572 98 l 1
 546 0 l 1
 6 0 l 1
 28 90 l 1
 208 156 l 1
 924 1498 l 1
 1102 1536 l 1
614 646 m 1
 1020 646 l 1
 924 1252 l 1
 614 646 l 1
792 1880 m 1
 848 1918 l 1
 858 1898 l 2
 882 1850 940 1796 1022 1796 c 0
 1108 1796 1162 1848 1194 1900 c 2
 1206 1920 l 1
 1256 1886 l 1
 1248 1862 l 2
 1215 1764 1142 1664 1022 1664 c 0
 894 1664 822 1762 798 1856 c 2
 792 1880 l 1
EndSplineSet
Validated: 1
EndChar

StartChar: Amacron
Encoding: 256 256 221
Width: 1547
Flags: W
HStem: 0 90<522.78 546 896 941.18> 524 122<614 1020> 1516 20G<1008.32 1105.29> 1670 121<764 1282>
DStem2: 208 156 366 150 0.470725 0.88228<69.0808 486.608 623.432 623.432> 1102 1536 924 1252 0.162321 -0.986738<251.341 864.887 987.866 1362.02>
LayerCount: 2
Fore
SplineSet
1102 1536 m 1
 1330 150 l 1
 1480 98 l 1
 1458 0 l 1
 872 0 l 1
 896 90 l 1
 1104 156 l 1
 1036 524 l 1
 552 524 l 1
 366 150 l 1
 572 98 l 1
 546 0 l 1
 6 0 l 1
 28 90 l 1
 208 156 l 1
 924 1498 l 1
 1102 1536 l 1
614 646 m 1
 1020 646 l 1
 924 1252 l 1
 614 646 l 1
764 1791 m 1
 1298 1791 l 1
 1282 1670 l 1
 748 1670 l 1
 764 1791 l 1
EndSplineSet
Validated: 1
EndChar

StartChar: Aogonek
Encoding: 260 260 222
Width: 1547
Flags: W
HStem: -452 62<1483.66 1493.71> 0 90<522.78 546 896 941.18> 524 122<614 1020> 1516 20G<1008.32 1105.29>
VStem: 1196 180<-296.815 -108.772> 1438 20<0 20>
DStem2: 208 156 366 150 0.470725 0.88228<69.0808 486.608 623.432 623.432> 1102 1536 924 1252 0.162321 -0.986738<251.341 864.887 987.866 1362.02>
LayerCount: 2
Fore
SplineSet
1102 1536 m 1
 1330 150 l 1
 1480 98 l 1
 1458 0 l 1
 1438 0 l 1
 1450 20 l 1
 1364 20 l 1
 1342 0 l 1
 1374 0 1406 0 1438 0 c 1
 1378 -104 1376 -144 1376 -164 c 0
 1376 -240 1416 -326 1526 -390 c 1
 1484 -452 l 1
 1310 -434 1196 -340 1196 -236 c 0
 1196 -176 1216 -114 1342 0 c 1
 872 0 l 1
 896 90 l 1
 1104 156 l 1
 1036 524 l 1
 552 524 l 1
 366 150 l 1
 572 98 l 1
 546 0 l 1
 6 0 l 1
 28 90 l 1
 208 156 l 1
 924 1498 l 1
 1102 1536 l 1
614 646 m 1
 1020 646 l 1
 924 1252 l 1
 614 646 l 1
EndSplineSet
Validated: 5
EndChar

StartChar: Cacute
Encoding: 262 262 223
Width: 1345
Flags: W
HStem: -30 158<661.281 990.199> 1422 116<781.781 1151.63>
VStem: 158 256<394.213 856.877> 1242 98<1030 1071.63>
LayerCount: 2
Fore
SplineSet
956 1422 m 0
 674 1422 414 1116 414 652 c 0
 414 292 618 128 854 128 c 0
 988 128 1126 176 1274 312 c 1
 1320 246 l 1
 1144 40 926 -30 738 -30 c 0
 426 -30 158 184 158 584 c 0
 158 972 448 1538 1044 1538 c 0
 1196 1538 1344 1504 1440 1416 c 1
 1340 1014 l 1
 1242 1030 l 1
 1238 1296 l 1
 1196 1368 1104 1422 956 1422 c 0
1366 2018 m 1
 1144 1634 l 1
 1082 1672 l 1
 1230 2066 l 1
 1366 2018 l 1
EndSplineSet
Validated: 1
EndChar

StartChar: Ccaron
Encoding: 268 268 224
Width: 1345
Flags: W
HStem: -30 158<661.281 990.199> 1422 116<781.781 1151.63>
VStem: 158 256<394.213 856.877> 1242 98<1030 1071.63>
DStem2: 906 1918 808 1844 0.7286 -0.684939<0 250.327> 1098 1744 1092 1660 0.690318 0.723506<0 226.544>
LayerCount: 2
Fore
SplineSet
956 1422 m 0
 674 1422 414 1116 414 652 c 0
 414 292 618 128 854 128 c 0
 988 128 1126 176 1274 312 c 1
 1320 246 l 1
 1144 40 926 -30 738 -30 c 0
 426 -30 158 184 158 584 c 0
 158 972 448 1538 1044 1538 c 0
 1196 1538 1344 1504 1440 1416 c 1
 1340 1014 l 1
 1242 1030 l 1
 1238 1296 l 1
 1196 1368 1104 1422 956 1422 c 0
1026 1644 m 1
 808 1844 l 1
 906 1918 l 1
 1086 1744 l 1
 1098 1744 l 1
 1248 1914 l 1
 1300 1878 l 1
 1092 1660 l 1
 1026 1644 l 1
EndSplineSet
Validated: 1
EndChar

StartChar: Dcaron
Encoding: 270 270 225
Width: 1607
Flags: W
HStem: 0 126<474 878.654> 0 90<52 97.1801> 1372 92<276 329.255> 1400 124<676.505 1051.77>
VStem: 1352 260<671.631 1086.09>
DStem2: 260 156 474 126 0.156043 0.98775<3.76063 1194.57> 856 1918 758 1844 0.736873 -0.676031<0 250.267> 1048 1744 1042 1660 0.690318 0.723506<0 226.544>
LayerCount: 2
Fore
SplineSet
674 1392 m 1x98
 474 126 l 1
 644 126 l 2
 1074 126 1352 468 1352 850 c 0
 1352 1150 1184 1400 816 1400 c 0
 768 1400 722 1398 674 1392 c 1x98
880 1524 m 0
 1434 1524 1612 1244 1612 926 c 0
 1612 462 1202 0 576 0 c 2x98
 28 0 l 1
 52 90 l 1
 260 156 l 1
 446 1336 l 1
 252 1372 l 1
 276 1464 l 1x68
 510 1502 712 1524 880 1524 c 0
976 1644 m 1
 758 1844 l 1
 856 1918 l 1
 1036 1744 l 1
 1048 1744 l 1
 1198 1914 l 1
 1250 1878 l 1
 1042 1660 l 1
 976 1644 l 1
EndSplineSet
Validated: 1
EndChar

StartChar: Dcroat
Encoding: 272 272 226
Width: 1607
Flags: W
HStem: 0 126<474 878.654> 0 90<52 97.1801> 1372 92<276 329.255> 1400 124<676.505 1051.77> 1670 121<744 1262>
VStem: 1352 260<671.631 1086.09>
DStem2: 260 156 474 126 0.156043 0.98775<3.76063 1194.57>
LayerCount: 2
Fore
SplineSet
674 1392 m 1x9c
 474 126 l 1
 644 126 l 2
 1074 126 1352 468 1352 850 c 0
 1352 1150 1184 1400 816 1400 c 0
 768 1400 722 1398 674 1392 c 1x9c
880 1524 m 0
 1434 1524 1612 1244 1612 926 c 0
 1612 462 1202 0 576 0 c 2x9c
 28 0 l 1
 52 90 l 1
 260 156 l 1
 446 1336 l 1
 252 1372 l 1
 276 1464 l 1x6c
 510 1502 712 1524 880 1524 c 0
744 1791 m 1
 1278 1791 l 1
 1262 1670 l 1
 728 1670 l 1
 744 1791 l 1
EndSplineSet
Validated: 1
EndChar

StartChar: Ecaron
Encoding: 282 282 227
Width: 1301
Flags: W
HStem: 0 116<478 1052> 0 90<62 113.2> 706 114<590 890> 1396 110<680 1226> 1414 92<272 309.917>
VStem: 896 102<510 570.16> 1232 98<1136 1177.64>
DStem2: 262 146 478 116 0.155883 0.987776<4.03753 601.478 716.89 1233.04> 764 1918 665 1844 0.738412 -0.674349<0 250.251> 956 1744 950 1660 0.690318 0.723506<0 226.544>
LayerCount: 2
Fore
SplineSet
272 1506 m 1x6e
 1426 1506 l 1x6e
 1330 1120 l 1
 1232 1136 l 1
 1226 1396 l 1
 680 1396 l 1
 590 820 l 1
 926 820 l 1
 1000 964 l 1
 1110 980 l 1
 998 510 l 1
 896 494 l 1
 890 706 l 1
 572 706 l 1
 478 116 l 1
 1052 116 l 1xb6
 1210 394 l 1
 1304 380 l 1
 1208 0 l 1
 44 0 l 1
 62 90 l 1
 262 146 l 1
 454 1364 l 1
 252 1414 l 1
 272 1506 l 1x6e
884 1644 m 1
 665 1844 l 1
 764 1918 l 1
 944 1744 l 1
 956 1744 l 1
 1106 1914 l 1
 1158 1878 l 1
 950 1660 l 1
 884 1644 l 1
EndSplineSet
Validated: 1
EndChar

StartChar: Edotaccent
Encoding: 278 278 228
Width: 1301
Flags: W
HStem: 0 116<478 1052> 0 90<62 113.2> 706 114<590 890> 1396 110<680 1226> 1414 92<272 309.917> 1642 286<808 1014>
VStem: 766 292<1685.75 1888.25> 896 102<510 570.16> 1232 98<1136 1177.64>
DStem2: 262 146 478 116 0.155883 0.987776<4.03753 601.478 716.89 1233.04>
LayerCount: 2
Fore
SplineSet
272 1506 m 1x6d80
 1426 1506 l 1x6d80
 1330 1120 l 1
 1232 1136 l 1
 1226 1396 l 1
 680 1396 l 1
 590 820 l 1
 926 820 l 1
 1000 964 l 1
 1110 980 l 1
 998 510 l 1
 896 494 l 1
 890 706 l 1
 572 706 l 1
 478 116 l 1
 1052 116 l 1xb580
 1210 394 l 1
 1304 380 l 1
 1208 0 l 1
 44 0 l 1
 62 90 l 1
 262 146 l 1
 454 1364 l 1
 252 1414 l 1
 272 1506 l 1x6d80
910 1928 m 0
 990 1928 1058 1868 1058 1790 c 0
 1058 1708 990 1642 910 1642 c 0
 830 1642 766 1709 766 1791 c 0x2680
 766 1869 834 1928 910 1928 c 0
EndSplineSet
Validated: 1
EndChar

StartChar: Emacron
Encoding: 274 274 229
Width: 1301
Flags: W
HStem: 0 116<478 1052> 0 90<62 113.2> 706 114<590 890> 1396 110<680 1226> 1414 92<272 309.917> 1670 121<652 1170>
VStem: 896 102<510 570.16> 1232 98<1136 1177.64>
DStem2: 262 146 478 116 0.155883 0.987776<4.03753 601.478 716.89 1233.04>
LayerCount: 2
Fore
SplineSet
272 1506 m 1x6f
 1426 1506 l 1x6f
 1330 1120 l 1
 1232 1136 l 1
 1226 1396 l 1
 680 1396 l 1
 590 820 l 1
 926 820 l 1
 1000 964 l 1
 1110 980 l 1
 998 510 l 1
 896 494 l 1
 890 706 l 1
 572 706 l 1
 478 116 l 1
 1052 116 l 1xb7
 1210 394 l 1
 1304 380 l 1
 1208 0 l 1
 44 0 l 1
 62 90 l 1
 262 146 l 1
 454 1364 l 1
 252 1414 l 1
 272 1506 l 1x6f
652 1791 m 1
 1186 1791 l 1
 1170 1670 l 1
 636 1670 l 1
 652 1791 l 1
EndSplineSet
Validated: 1
EndChar

StartChar: Eogonek
Encoding: 280 280 230
Width: 1301
Flags: W
HStem: -452 62<1229.66 1239.71> 0 116<478 1052> 0 90<62 113.2> 706 114<590 890> 1396 110<680 1226> 1414 92<272 309.917>
VStem: 896 102<510 570.16> 942 180<-296.815 -108.772> 1184 24<0 20> 1232 98<1136 1177.64>
DStem2: 262 146 478 116 0.155883 0.987776<4.03753 601.478 716.89 1233.04>
LayerCount: 2
Fore
SplineSet
272 1506 m 1xb5c0
 1426 1506 l 1xb5c0
 1330 1120 l 1
 1232 1136 l 1
 1226 1396 l 1
 680 1396 l 1
 590 820 l 1
 926 820 l 1
 1000 964 l 1
 1110 980 l 1
 998 510 l 1
 896 494 l 1
 890 706 l 1
 572 706 l 1
 478 116 l 1
 1052 116 l 1xdac0
 1210 394 l 1
 1304 380 l 1
 1208 0 l 1
 1184 0 l 1
 1196 20 l 1
 1110 20 l 1
 1088 0 l 1
 1120 0 1152 0 1184 0 c 1
 1124 -104 1122 -144 1122 -164 c 0
 1122 -240 1162 -326 1272 -390 c 1
 1230 -452 l 1
 1056 -434 942 -340 942 -236 c 0
 942 -176 962 -114 1088 0 c 1
 44 0 l 1
 62 90 l 1
 262 146 l 1
 454 1364 l 1
 252 1414 l 1
 272 1506 l 1xb5c0
EndSplineSet
Validated: 5
EndChar

StartChar: Euro
Encoding: 8364 8364 231
Width: 1345
Flags: W
HStem: -30 132<630.226 976.844> 588 128<80 162 436 988> 800 128<120 190 472 1076> 1422 116<778.368 1137.55>
VStem: 160 270<332.833 588 716 798.688> 1218 102<1030 1070.5>
LayerCount: 2
Fore
SplineSet
1058 210 m 1
 1150 476 l 1
 1258 492 l 1
 1240 134 l 1
 1068 14 934 -30 736 -30 c 0
 410 -30 160 170 160 544 c 0
 160 558 162 574 162 588 c 1
 38 588 l 1
 80 716 l 1
 174 716 l 1
 178 744 184 772 190 800 c 1
 78 800 l 1
 120 928 l 1
 228 928 l 1
 338 1234 596 1538 1044 1538 c 0
 1204 1538 1320 1504 1422 1416 c 1
 1320 1014 l 1
 1218 1030 l 1
 1210 1296 l 1
 1166 1368 1112 1422 956 1422 c 0
 734 1422 554 1240 472 928 c 1
 1132 928 l 1
 1076 800 l 1
 446 800 l 1
 446 798 l 1
 442 770 438 742 436 716 c 1
 1044 716 l 1
 988 588 l 1
 430 588 l 1
 430 586 l 2
 430 268 576 102 816 102 c 0
 892 102 988 130 1058 210 c 1
EndSplineSet
Validated: 1
EndChar

StartChar: Gcommaaccent
Encoding: 290 290 232
Width: 1545
Flags: W
HStem: -484 48<605.611 658.48> -236 128<667.424 776> -38 130<668.66 1081.91> 1406 120<788.766 1217.15>
VStem: 156 260<373.97 860.833> 748 108<-357.585 -185.773> 1336 98<1036 1077.48>
DStem2: 1100 148 1322 106 0.153103 0.98821<-35.8982 382.73>
LayerCount: 2
Fore
SplineSet
1528 1408 m 1
 1434 1018 l 1
 1336 1036 l 1
 1332 1268 l 1
 1294 1332 1186 1406 976 1406 c 0
 704 1406 416 1208 416 652 c 0
 416 288 570 92 884 92 c 0
 1004 92 1068 120 1100 148 c 1
 1160 526 l 1
 894 572 l 1
 918 672 l 1
 1560 672 l 1
 1538 582 l 1
 1388 532 l 1
 1322 106 l 1
 1190 18 981 -38 724 -38 c 0
 328 -38 156 242 156 564 c 0
 156 1176 624 1526 1054 1526 c 0
 1276 1526 1424 1488 1528 1408 c 1
608 -484 m 1
 600 -436 l 1
 694 -410 748 -350 748 -306 c 0
 748 -266 726 -236 676 -236 c 0
 670 -236 664 -238 656 -240 c 1
 652 -226 650 -220 650 -202 c 0
 650 -144 714 -108 752 -108 c 0
 800 -108 856 -132 856 -240 c 0
 856 -306 800 -436 608 -484 c 1
EndSplineSet
Validated: 1
EndChar

StartChar: Germandbls
Encoding: 7838 7838 233
Width: 1559
Flags: W
HStem: -30 124<909.827 1239.77> 0 90<66 119.76> 1428 110<877.268 1168.58>
VStem: 706 114<393.795 444> 804 236<770 1149.94> 1352 240<249.56 458.892>
DStem2: 276 146 486 0 0.155643 0.987813<0 1075.76>
LayerCount: 2
Fore
SplineSet
1286 1368 m 0x6c
 1182 1368 1040 1264 1040 1142 c 0x6c
 1040 780 1592 864 1592 436 c 0
 1592 140 1296 -30 1020 -30 c 0
 846 -30 690 36 640 148 c 1
 706 462 l 1
 820 444 l 1
 828 226 l 1
 862 156 954 94 1068 94 c 0xb4
 1220 94 1352 170 1352 344 c 0
 1352 624 804 560 804 980 c 0
 804 1176 992 1380 1170 1420 c 1
 1172 1424 l 1
 1148 1426 1090 1428 1066 1428 c 0
 826 1428 686 1264 636 952 c 2
 486 0 l 1
 40 0 l 1
 66 90 l 1
 276 146 l 1
 400 924 l 2
 469 1356 736 1538 1100 1538 c 0
 1328 1538 1652 1484 1652 1296 c 0
 1652 1200 1574 1136 1474 1104 c 1
 1450 1232 1426 1368 1286 1368 c 0x6c
EndSplineSet
Validated: 1
EndChar

StartChar: Germandbls.alt
Encoding: 1114113 -1 234
Width: 1559
Flags: W
HStem: -30 124<924.894 1223.17> 0 90<66 119.76> 1428 110<873.211 1341.28>
VStem: 710 120<413.693 464> 1352 208<251.901 482.705>
DStem2: 276 146 486 0 0.155845 0.987782<0 1039.41> 864 846 1184 924 0.66574 0.746184<271.239 721.002>
LayerCount: 2
Fore
SplineSet
1184 924 m 1x78
 1280 848 1560 760 1560 436 c 0
 1560 154 1296 -30 1020 -30 c 0
 846 -30 692 46 642 158 c 1
 710 482 l 1
 830 464 l 1
 842 236 l 1
 876 166 954 94 1068 94 c 0xb8
 1196 94 1352 180 1352 360 c 0
 1352 556 1064 670 884 786 c 1
 864 846 l 1
 1344 1384 l 1
 1344 1390 l 1
 1296 1412 1090 1428 1066 1428 c 0
 826 1428 690 1296 622 862 c 2
 486 0 l 1
 40 0 l 1
 66 90 l 1
 276 146 l 1
 384 834 l 1
 470 1372 736 1538 1100 1538 c 0
 1300 1538 1572 1516 1642 1492 c 1
 1630 1404 l 1
 1184 924 l 1x78
EndSplineSet
Validated: 1
EndChar

StartChar: Germandbls.alt2
Encoding: 1114114 -1 235
Width: 1559
Flags: W
HStem: -30 124<916.917 1248.47> 0 90<66 119.76> 1074 21G<1446 1566.68> 1428 110<877.268 1167.19>
VStem: 708 120<403.693 454> 808 228<783.079 1167.59> 1352 234<214.153 451.671> 1446 116<1088 1135.29>
DStem2: 276 146 486 0 0.155643 0.987813<0 1075.76>
LayerCount: 2
Fore
SplineSet
1448 1308 m 1x75
 1416 1336 1360 1370 1276 1370 c 0
 1188 1370 1036 1260 1036 1140 c 0x75
 1036 778 1586 840 1586 388 c 0
 1586 106 1296 -30 1020 -30 c 0
 846 -30 690 36 640 148 c 1
 708 472 l 1
 828 454 l 1
 840 226 l 1
 874 156 954 94 1068 94 c 0
 1196 94 1352 150 1352 324 c 0xba
 1352 632 808 580 808 988 c 0
 808 1204 992 1380 1170 1420 c 1
 1172 1424 l 1
 1148 1426 1090 1428 1066 1428 c 0
 826 1428 686 1264 636 952 c 2
 486 0 l 1
 40 0 l 1
 66 90 l 1
 276 146 l 1
 400 924 l 2
 469 1356 736 1538 1100 1538 c 0
 1328 1538 1536 1490 1642 1416 c 1
 1562 1074 l 1
 1446 1088 l 1
 1448 1308 l 1x75
EndSplineSet
Validated: 1
EndChar

StartChar: Imacron
Encoding: 298 298 236
Width: 727
Flags: W
HStem: 0 90<62 113.2 626.475 665> 1414 92<272 309.917 816.423 880> 1670 121<346 864>
DStem2: 262 146 482 138 0.155798 0.987789<26.3732 1233.04>
LayerCount: 2
Fore
SplineSet
665 0 m 1
 44 0 l 1
 62 90 l 1
 262 146 l 1
 454 1364 l 1
 252 1414 l 1
 272 1506 l 1
 900 1506 l 1
 880 1414 l 1
 676 1368 l 1
 482 138 l 1
 688 98 l 1
 665 0 l 1
346 1791 m 1
 880 1791 l 1
 864 1670 l 1
 330 1670 l 1
 346 1791 l 1
EndSplineSet
Validated: 1
EndChar

StartChar: Iogonek
Encoding: 302 302 237
Width: 727
Flags: W
HStem: -452 62<737.663 747.711> 0 90<62 113.2> 1414 92<272 309.917 816.423 880>
VStem: 450 180<-296.815 -109.793>
DStem2: 262 146 482 138 0.155798 0.987789<26.3732 1233.04>
LayerCount: 2
Fore
SplineSet
630 -164 m 0
 630 -240 670 -326 780 -390 c 1
 738 -452 l 1
 564 -434 450 -340 450 -236 c 0
 450 -176 470 -114 596 0 c 1
 44 0 l 1
 62 90 l 1
 262 146 l 1
 454 1364 l 1
 252 1414 l 1
 272 1506 l 1
 900 1506 l 1
 880 1414 l 1
 676 1368 l 1
 482 138 l 1
 688 98 l 1
 670 20 l 1
 704 20 l 1
 632 -98 630 -142 630 -164 c 0
670 20 m 1
 618 20 l 1
 596 0 l 1
 665 0 l 1
 670 20 l 1
EndSplineSet
Validated: 5
EndChar

StartChar: Kcommaaccent
Encoding: 310 310 238
Width: 1487
Flags: W
HStem: -484 48<555.611 608.48> -236 128<617.424 726> 0 90<54 99.6145 645.824 674> 1414 92<268 293.698 828.752 882 1016 1043.57 1513.22 1568>
VStem: 698 108<-357.585 -185.773>
DStem2: 264 156 486 150 0.153778 0.988105<28.2101 1212.66> 762 892 826 786 0.67828 0.734803<-34.4792 623.226>
LayerCount: 2
Fore
SplineSet
844 316 m 1
 690 616 l 1
 690 616 638 702 610 732 c 1
 616 762 l 1
 656 792 718 842 762 892 c 2
 1176 1358 l 1
 998 1414 l 1
 1016 1506 l 1
 1590 1506 l 1
 1568 1414 l 1
 1354 1358 l 1
 826 786 l 1
 1036 460 l 1
 1178 242 1252 151 1392 102 c 2
 1432 88 l 1
 1406 0 l 1
 1354 -18 1302 -26 1254 -26 c 0
 1062 -26 940 124 844 316 c 1
486 150 m 1
 696 98 l 1
 674 0 l 1
 36 0 l 1
 54 90 l 1
 264 156 l 1
 452 1354 l 1
 244 1414 l 1
 268 1506 l 1
 902 1506 l 1
 882 1414 l 1
 674 1358 l 1
 486 150 l 1
558 -484 m 1
 550 -436 l 1
 644 -410 698 -350 698 -306 c 0
 698 -266 676 -236 626 -236 c 0
 620 -236 614 -238 606 -240 c 1
 602 -226 600 -220 600 -202 c 0
 600 -144 664 -108 702 -108 c 0
 750 -108 806 -132 806 -240 c 0
 806 -306 750 -436 558 -484 c 1
EndSplineSet
Validated: 1
EndChar

StartChar: Lacute
Encoding: 313 313 239
Width: 1289
Flags: W
HStem: 0 116<486 996> 0 90<68 119.712> 1414 92<276 301.698 836.752 890>
DStem2: 270 146 486 116 0.155881 0.987776<4.037 1222.85>
LayerCount: 2
Fore
SplineSet
910 1506 m 1x60
 890 1414 l 1
 682 1358 l 1
 486 116 l 1
 996 116 l 1xa0
 1194 416 l 1
 1292 400 l 1
 1186 0 l 1
 52 0 l 1
 68 90 l 1
 270 146 l 1
 460 1354 l 1
 252 1414 l 1
 276 1506 l 1
 910 1506 l 1x60
958 2018 m 1
 736 1634 l 1
 674 1672 l 1
 822 2066 l 1
 958 2018 l 1
EndSplineSet
Validated: 1
EndChar

StartChar: Lcaron
Encoding: 317 317 240
Width: 1289
Flags: W
HStem: 0 116<486 996> 0 90<68 119.712> 908 84<7.61067 96.7563> 1332 220<122 278> 1414 92<836.752 890>
VStem: 250 186<1172.67 1343.72>
DStem2: 270 146 486 116 0.155881 0.987776<4.037 1222.85>
LayerCount: 2
Fore
SplineSet
10 908 m 1x64
 -4 992 l 1
 158 1034 250 1136 250 1214 c 0
 250 1280 214 1332 128 1332 c 0
 116 1332 106 1328 92 1324 c 1
 86 1350 84 1360 84 1390 c 0
 84 1490 195 1552 257 1552 c 0x74
 299 1552 346 1542 380 1506 c 1
 910 1506 l 1
 890 1414 l 1
 682 1358 l 1
 486 116 l 1
 996 116 l 1xac
 1194 416 l 1
 1292 400 l 1
 1186 0 l 1
 52 0 l 1
 68 90 l 1
 270 146 l 1
 460 1354 l 1
 434 1362 l 1
 434 1350 436 1338 436 1326 c 0
 436 1212 340 992 10 908 c 1x64
EndSplineSet
Validated: 1
EndChar

StartChar: Lcommaaccent
Encoding: 315 315 241
Width: 1289
Flags: W
HStem: -484 48<457.611 510.48> -236 128<519.424 628> 0 116<486 996> 0 90<68 119.712> 1414 92<276 301.698 836.752 890>
VStem: 600 108<-357.585 -185.773>
DStem2: 270 146 486 116 0.155881 0.987776<4.037 1222.85>
LayerCount: 2
Fore
SplineSet
910 1506 m 1xdc
 890 1414 l 1
 682 1358 l 1
 486 116 l 1
 996 116 l 1xec
 1194 416 l 1
 1292 400 l 1
 1186 0 l 1
 52 0 l 1
 68 90 l 1
 270 146 l 1
 460 1354 l 1
 252 1414 l 1
 276 1506 l 1
 910 1506 l 1xdc
460 -484 m 1
 452 -436 l 1
 546 -410 600 -350 600 -306 c 0
 600 -266 578 -236 528 -236 c 0
 522 -236 516 -238 508 -240 c 1
 504 -226 502 -220 502 -202 c 0
 502 -144 566 -108 604 -108 c 0
 652 -108 708 -132 708 -240 c 0
 708 -306 652 -436 460 -484 c 1
EndSplineSet
Validated: 1
EndChar

StartChar: Nacute
Encoding: 323 323 242
Width: 1619
Flags: W
HStem: 0 90<62 113.2 551.877 592> 1414 92<272 299.787 1210 1247.06 1673.67 1736>
DStem2: 262 146 406 138 0.155375 0.987856<14.4711 1053.18> 676 1506 568 1164 0.432731 -0.901523<261.586 1300.79> 1232 330 1320 0 0.155963 0.987763<0 1046.61>
LayerCount: 2
Fore
SplineSet
1144 -36 m 1
 568 1164 l 1
 406 138 l 1
 614 98 l 1
 592 0 l 1
 44 0 l 1
 62 90 l 1
 262 146 l 1
 452 1354 l 1
 252 1414 l 1
 272 1506 l 1
 676 1506 l 1
 1232 330 l 1
 1394 1364 l 1
 1188 1414 l 1
 1210 1506 l 1
 1758 1506 l 1
 1736 1414 l 1
 1536 1368 l 1
 1320 0 l 1
 1144 -36 l 1
1324 2018 m 1
 1102 1634 l 1
 1040 1672 l 1
 1188 2066 l 1
 1324 2018 l 1
EndSplineSet
Validated: 1
EndChar

StartChar: Ncaron
Encoding: 327 327 243
Width: 1619
Flags: W
HStem: 0 90<62 113.2 551.877 592> 1414 92<272 299.787 1210 1247.06 1673.67 1736>
DStem2: 262 146 406 138 0.155375 0.987856<14.4711 1053.18> 676 1506 568 1164 0.432731 -0.901523<261.586 1300.79> 864 1918 766 1844 0.736873 -0.676031<0 250.267> 1056 1744 1050 1660 0.690318 0.723506<0 226.544> 1232 330 1320 0 0.155963 0.987763<0 1046.61>
LayerCount: 2
Fore
SplineSet
1144 -36 m 1
 568 1164 l 1
 406 138 l 1
 614 98 l 1
 592 0 l 1
 44 0 l 1
 62 90 l 1
 262 146 l 1
 452 1354 l 1
 252 1414 l 1
 272 1506 l 1
 676 1506 l 1
 1232 330 l 1
 1394 1364 l 1
 1188 1414 l 1
 1210 1506 l 1
 1758 1506 l 1
 1736 1414 l 1
 1536 1368 l 1
 1320 0 l 1
 1144 -36 l 1
984 1644 m 1
 766 1844 l 1
 864 1918 l 1
 1044 1744 l 1
 1056 1744 l 1
 1206 1914 l 1
 1258 1878 l 1
 1050 1660 l 1
 984 1644 l 1
EndSplineSet
Validated: 1
EndChar

StartChar: Ncommaaccent
Encoding: 325 325 244
Width: 1619
Flags: W
HStem: -484 48<621.611 674.48> -236 128<682.315 791> 0 90<62 113.2 551.877 592> 1414 92<272 299.787 1210 1247.06 1673.67 1736>
VStem: 764 108<-357.585 -185.773>
DStem2: 262 146 406 138 0.155375 0.987856<14.4711 1053.18> 676 1506 568 1164 0.432731 -0.901523<261.586 1300.79> 1232 330 1320 0 0.155963 0.987763<0 1046.61>
LayerCount: 2
Fore
SplineSet
1144 -36 m 1
 568 1164 l 1
 406 138 l 1
 614 98 l 1
 592 0 l 1
 44 0 l 1
 62 90 l 1
 262 146 l 1
 452 1354 l 1
 252 1414 l 1
 272 1506 l 1
 676 1506 l 1
 1232 330 l 1
 1394 1364 l 1
 1188 1414 l 1
 1210 1506 l 1
 1758 1506 l 1
 1736 1414 l 1
 1536 1368 l 1
 1320 0 l 1
 1144 -36 l 1
624 -484 m 1
 616 -436 l 1
 710 -410 764 -350 764 -306 c 0
 764 -266 742 -236 692 -236 c 0
 686 -236 680 -238 672 -240 c 1
 668 -226 665 -220 665 -202 c 0
 665 -144 729 -108 767 -108 c 0
 815 -108 872 -132 872 -240 c 0
 872 -306 816 -436 624 -484 c 1
EndSplineSet
Validated: 1
EndChar

StartChar: Ohungarumlaut
Encoding: 336 336 245
Width: 1601
Flags: W
HStem: -32 128<635.296 1005.93> 1424 118<766.802 1131.79>
VStem: 166 264<355.676 916.672> 1344 258<597.081 1152.25>
LayerCount: 2
Fore
SplineSet
1344 864 m 0
 1344 1140 1238 1424 974 1424 c 0
 494 1424 430 928 430 638 c 0
 430 356 534 96 798 96 c 0
 1272 96 1344 590 1344 864 c 0
1048 1542 m 0
 1408 1542 1602 1246 1602 882 c 0
 1602 400 1264 -32 720 -32 c 0
 374 -32 166 248 166 612 c 0
 166 1144 524 1542 1048 1542 c 0
1548 1852 m 1
 1196 1650 l 1
 1162 1710 l 1
 1460 1952 l 1
 1548 1852 l 1
1304 1858 m 1
 940 1650 l 1
 906 1710 l 1
 1214 1962 l 1
 1304 1858 l 1
EndSplineSet
Validated: 1
EndChar

StartChar: Omacron
Encoding: 332 332 246
Width: 1601
Flags: W
HStem: -32 128<635.296 1005.93> 1424 118<766.802 1131.79> 1674 122<800 1318>
VStem: 166 264<355.676 916.672> 1344 258<597.081 1152.25>
LayerCount: 2
Fore
SplineSet
1344 864 m 0
 1344 1140 1238 1424 974 1424 c 0
 494 1424 430 928 430 638 c 0
 430 356 534 96 798 96 c 0
 1272 96 1344 590 1344 864 c 0
1048 1542 m 0
 1408 1542 1602 1246 1602 882 c 0
 1602 400 1264 -32 720 -32 c 0
 374 -32 166 248 166 612 c 0
 166 1144 524 1542 1048 1542 c 0
800 1796 m 1
 1334 1796 l 1
 1318 1674 l 1
 784 1674 l 1
 800 1796 l 1
EndSplineSet
Validated: 1
EndChar

StartChar: Racute
Encoding: 340 340 247
Width: 1469
Flags: W
HStem: 0 90<54 105.968 639.443 665> 650 110<572 756> 1370 92<278 327.255> 1416 102<675.179 969.19>
VStem: 1086 250<1010.92 1294.49>
DStem2: 257 146 478 152 0.155479 0.987839<40.2878 544.359 655.509 1202.63>
LayerCount: 2
Fore
SplineSet
814 1518 m 0xd8
 1124 1518 1334 1420 1336 1186 c 1
 1336 998 1193 818 936 726 c 1
 936 724 l 1
 1096 422 l 2
 1200 226 1246 143 1384 94 c 2
 1418 82 l 1
 1388 0 l 1
 1336 -18 1288 -26 1244 -26 c 0
 1062 -26 960 118 888 306 c 2
 756 650 l 1
 556 650 l 1
 478 152 l 1
 688 100 l 1
 665 0 l 1
 34 0 l 1
 54 90 l 1
 257 146 l 1
 444 1334 l 1
 250 1370 l 1
 278 1462 l 1xe8
 450 1490 644 1518 814 1518 c 0xd8
572 760 m 1
 764 760 l 2
 917 760 1086 906 1086 1120 c 0
 1086 1290 992 1416 818 1416 c 0xd8
 736 1416 676 1410 676 1410 c 1
 572 760 l 1
1200 2018 m 1
 978 1634 l 1
 916 1672 l 1
 1064 2066 l 1
 1200 2018 l 1
EndSplineSet
Validated: 1
EndChar

StartChar: Rcaron
Encoding: 344 344 248
Width: 1469
Flags: W
HStem: 0 90<54 105.968 639.443 665> 650 110<572 756> 1370 92<278 327.255> 1416 102<675.179 969.19>
VStem: 1086 250<1010.92 1294.49>
DStem2: 257 146 478 152 0.155479 0.987839<40.2878 544.359 655.509 1202.63> 740 1918 642 1844 0.736873 -0.676031<0 250.267> 932 1744 926 1660 0.690318 0.723506<0 226.544>
LayerCount: 2
Fore
SplineSet
814 1518 m 0xd8
 1124 1518 1334 1420 1336 1186 c 1
 1336 998 1193 818 936 726 c 1
 936 724 l 1
 1096 422 l 2
 1200 226 1246 143 1384 94 c 2
 1418 82 l 1
 1388 0 l 1
 1336 -18 1288 -26 1244 -26 c 0
 1062 -26 960 118 888 306 c 2
 756 650 l 1
 556 650 l 1
 478 152 l 1
 688 100 l 1
 665 0 l 1
 34 0 l 1
 54 90 l 1
 257 146 l 1
 444 1334 l 1
 250 1370 l 1
 278 1462 l 1xe8
 450 1490 644 1518 814 1518 c 0xd8
572 760 m 1
 764 760 l 2
 917 760 1086 906 1086 1120 c 0
 1086 1290 992 1416 818 1416 c 0xd8
 736 1416 676 1410 676 1410 c 1
 572 760 l 1
860 1644 m 1
 642 1844 l 1
 740 1918 l 1
 920 1744 l 1
 932 1744 l 1
 1082 1914 l 1
 1134 1878 l 1
 926 1660 l 1
 860 1644 l 1
EndSplineSet
Validated: 1
EndChar

StartChar: Rcommaaccent
Encoding: 342 342 249
Width: 1469
Flags: W
HStem: 0 90<54 105.968 639.443 665> 650 110<572 756> 1370 92<278 327.255> 1416 102<675.179 969.19>
VStem: 1086 250<1010.92 1294.49>
DStem2: 257 146 478 152 0.155479 0.987839<40.2878 544.359 655.509 1202.63>
LayerCount: 2
Fore
SplineSet
814 1518 m 0xd8
 1124 1518 1334 1420 1336 1186 c 1
 1336 998 1193 818 936 726 c 1
 936 724 l 1
 1096 422 l 2
 1200 226 1246 143 1384 94 c 2
 1418 82 l 1
 1388 0 l 1
 1336 -18 1288 -26 1244 -26 c 0
 1062 -26 960 118 888 306 c 2
 756 650 l 1
 556 650 l 1
 478 152 l 1
 688 100 l 1
 665 0 l 1
 34 0 l 1
 54 90 l 1
 257 146 l 1
 444 1334 l 1
 250 1370 l 1
 278 1462 l 1xe8
 450 1490 644 1518 814 1518 c 0xd8
572 760 m 1
 764 760 l 2
 917 760 1086 906 1086 1120 c 0
 1086 1290 992 1416 818 1416 c 0xd8
 736 1416 676 1410 676 1410 c 1
 572 760 l 1
EndSplineSet
Validated: 1
EndChar

StartChar: Sacute
Encoding: 346 346 250
Width: 1045
Flags: W
HStem: -30 124<335.48 665.548> 1074 21G<886 1004.56> 1434 104<581.664 837.235>
VStem: 144 114<403.693 454> 252 214<1018.73 1234.81> 800 228<278.199 480.419> 886 114<1088 1264.91>
LayerCount: 2
Fore
SplineSet
1000 1074 m 1xea
 886 1088 l 1
 892 1320 l 1
 884 1354 814 1434 716 1434 c 0
 584 1434 466 1332 466 1152 c 0xea
 466 858 1028 808 1028 464 c 0
 1028 158 726 -30 436 -30 c 0
 270 -30 122 50 76 148 c 1
 144 472 l 1
 258 454 l 1
 264 226 l 1
 296 148 370 94 484 94 c 0
 616 94 800 161 800 359 c 0xf4
 800 625 252 692 252 1034 c 0
 252 1344 520 1538 772 1538 c 0
 874 1538 1002 1510 1078 1416 c 1
 1076 1406 1000 1074 1000 1074 c 1xea
1112 2022 m 1
 890 1638 l 1
 828 1676 l 1
 976 2070 l 1
 1112 2022 l 1
EndSplineSet
Validated: 1
EndChar

StartChar: Scedilla
Encoding: 350 350 251
Width: 1045
Flags: W
HStem: -472 72<369.221 412.32> 4 90<484 574> 1074 21G<886 1004.56> 1434 104<581.664 837.235>
VStem: 144 114<403.693 454> 252 214<1018.73 1234.81> 454 162<-369.076 -212.387> 800 228<274.307 480.419> 886 114<1088 1264.91>
LayerCount: 2
Fore
SplineSet
1000 1074 m 1xf480
 886 1088 l 1
 892 1320 l 1
 884 1354 814 1434 716 1434 c 0
 584 1434 466 1332 466 1152 c 0xf480
 466 858 1028 808 1028 464 c 0
 1028 200 804 24 558 -20 c 1
 574 4 l 1
 484 4 l 1
 460 -30 l 1
 492 -28 526 -26 558 -20 c 1
 508 -92 l 1
 554 -132 616 -192 616 -274 c 0
 616 -370 514 -430 374 -472 c 1
 350 -400 l 1
 420 -376 454 -336 454 -300 c 0
 454 -258 410 -208 366 -166 c 1
 460 -30 l 1
 452 -30 444 -30 436 -30 c 0
 270 -30 122 50 76 148 c 1
 144 472 l 1
 258 454 l 1
 264 226 l 1
 296 148 370 94 484 94 c 0
 616 94 800 161 800 359 c 0xfb
 800 625 252 692 252 1034 c 0
 252 1344 520 1538 772 1538 c 0
 874 1538 1002 1510 1078 1416 c 1
 1076 1406 1000 1074 1000 1074 c 1xf480
EndSplineSet
Validated: 5
EndChar

StartChar: Tcaron
Encoding: 356 356 252
Width: 1393
Flags: W
HStem: 0 90<348 399.712 914.475 952> 1396 110<408 748 970 1320>
VStem: 1320 108<1116 1155.34>
DStem2: 550 146 770 138 0.157011 0.987597<26.6416 1265.58> 766 1918 668 1844 0.736873 -0.676031<0 250.267> 958 1744 952 1660 0.690318 0.723506<0 226.544>
LayerCount: 2
Fore
SplineSet
248 1506 m 1
 1530 1506 l 1
 1428 1098 l 1
 1320 1116 l 1
 1320 1396 l 1
 970 1396 l 1
 770 138 l 1
 976 98 l 1
 952 0 l 1
 328 0 l 1
 348 90 l 1
 550 146 l 1
 748 1396 l 1
 408 1396 l 1
 300 1102 l 1
 196 1118 l 1
 248 1506 l 1
886 1644 m 1
 668 1844 l 1
 766 1918 l 1
 946 1744 l 1
 958 1744 l 1
 1108 1914 l 1
 1160 1878 l 1
 952 1660 l 1
 886 1644 l 1
EndSplineSet
Validated: 1
EndChar

StartChar: Tcedilla
Encoding: 354 354 253
Width: 1393
Flags: W
HStem: -472 72<523.221 566.32> 0 90<348 399.712 914.475 952> 1396 110<408 748 970 1320>
VStem: 608 162<-369.076 -212.387> 1320 108<1116 1155.34>
DStem2: 550 146 770 138 0.157011 0.987597<26.6416 1265.58>
LayerCount: 2
Fore
SplineSet
248 1506 m 1
 1530 1506 l 1
 1428 1098 l 1
 1320 1116 l 1
 1320 1396 l 1
 970 1396 l 1
 770 138 l 1
 976 98 l 1
 952 0 l 1
 726 0 l 1
 728 4 l 1
 638 4 l 1
 636 0 l 1
 666 0 696 0 726 0 c 1
 662 -92 l 1
 708 -132 770 -192 770 -274 c 0
 770 -370 668 -430 528 -472 c 1
 504 -400 l 1
 574 -376 608 -336 608 -300 c 0
 608 -258 564 -208 520 -166 c 1
 636 0 l 1
 328 0 l 1
 348 90 l 1
 550 146 l 1
 748 1396 l 1
 408 1396 l 1
 300 1102 l 1
 196 1118 l 1
 248 1506 l 1
EndSplineSet
Validated: 5
EndChar

StartChar: Uhungarumlaut
Encoding: 368 368 254
Width: 1657
Flags: W
HStem: -32 144<670.928 1039.95> 1414 92<254 291.064 796.423 860 1254 1293.34 1723.05 1786>
VStem: 300 224<263.052 766.719>
DStem2: 312 568 536 598 0.156345 0.987703<-67.7207 805.911> 1312 582 1458 604 0.156611 0.98766<-258.898 791.77>
LayerCount: 2
Fore
SplineSet
536 598 m 2
 528 548 524 504 524 464 c 0
 524 216 660 112 862 112 c 0
 1208 112 1282 394 1312 582 c 2
 1436 1364 l 1
 1236 1414 l 1
 1254 1506 l 1
 1806 1506 l 1
 1786 1414 l 1
 1584 1368 l 1
 1458 604 l 1
 1380 138 1118 -32 764 -32 c 0
 570 -32 300 40 300 416 c 0
 300 462 304 512 312 568 c 2
 438 1364 l 1
 232 1414 l 1
 254 1506 l 1
 878 1506 l 1
 860 1414 l 1
 656 1368 l 1
 536 598 l 2
1574 1848 m 1
 1222 1646 l 1
 1188 1706 l 1
 1486 1948 l 1
 1574 1848 l 1
1330 1854 m 1
 966 1646 l 1
 932 1706 l 1
 1240 1958 l 1
 1330 1854 l 1
EndSplineSet
Validated: 1
EndChar

StartChar: Umacron
Encoding: 362 362 255
Width: 1657
Flags: W
HStem: -32 144<670.928 1039.95> 1414 92<254 291.064 796.423 860 1254 1293.34 1723.05 1786> 1670 121<826 1344>
VStem: 300 224<263.052 766.719>
DStem2: 312 568 536 598 0.156345 0.987703<-67.7207 805.911> 1312 582 1458 604 0.156611 0.98766<-258.898 791.77>
LayerCount: 2
Fore
SplineSet
536 598 m 2
 528 548 524 504 524 464 c 0
 524 216 660 112 862 112 c 0
 1208 112 1282 394 1312 582 c 2
 1436 1364 l 1
 1236 1414 l 1
 1254 1506 l 1
 1806 1506 l 1
 1786 1414 l 1
 1584 1368 l 1
 1458 604 l 1
 1380 138 1118 -32 764 -32 c 0
 570 -32 300 40 300 416 c 0
 300 462 304 512 312 568 c 2
 438 1364 l 1
 232 1414 l 1
 254 1506 l 1
 878 1506 l 1
 860 1414 l 1
 656 1368 l 1
 536 598 l 2
826 1791 m 1
 1360 1791 l 1
 1344 1670 l 1
 810 1670 l 1
 826 1791 l 1
EndSplineSet
Validated: 1
EndChar

StartChar: Uogonek
Encoding: 370 370 256
Width: 1657
Flags: W
HStem: -452 62<1031.66 1041.71> 20 92<863.752 998> 1414 92<254 291.064 796.423 860 1254 1293.34 1723.05 1786>
VStem: 300 224<263.052 766.719> 744 180<-296.815 -108.941>
DStem2: 312 568 536 598 0.156345 0.987703<-67.7207 805.911> 1312 582 1458 604 0.156611 0.98766<-255.93 791.77>
LayerCount: 2
Fore
SplineSet
536 598 m 2
 528 548 524 504 524 464 c 0
 524 216 660 112 862 112 c 0
 1208 112 1282 394 1312 582 c 2
 1436 1364 l 1
 1236 1414 l 1
 1254 1506 l 1
 1806 1506 l 1
 1786 1414 l 1
 1584 1368 l 1
 1458 604 l 2
 1398 240 1224 56 982 -6 c 1
 998 20 l 1
 912 20 l 1
 892 4 876 -14 860 -28 c 1
 902 -24 944 -16 982 -6 c 1
 926 -104 924 -144 924 -164 c 0
 924 -240 964 -326 1074 -390 c 1
 1032 -452 l 1
 858 -434 744 -340 744 -236 c 0
 744 -180 760 -126 860 -28 c 1
 828 -32 796 -32 764 -32 c 0
 570 -32 300 40 300 416 c 0
 300 462 304 512 312 568 c 2
 438 1364 l 1
 232 1414 l 1
 254 1506 l 1
 878 1506 l 1
 860 1414 l 1
 656 1368 l 1
 536 598 l 2
EndSplineSet
Validated: 5
EndChar

StartChar: Uring
Encoding: 366 366 257
Width: 1657
Flags: W
HStem: -32 144<670.928 1039.95> 1414 92<254 291.064 796.423 860 1254 1293.34 1723.05 1786> 1650 58<1023.48 1161.95> 2000 58<1013.74 1149.94>
VStem: 300 224<263.052 766.719> 890 86<1740.23 1975.01> 1196 86<1730.13 1966.47>
DStem2: 312 568 536 598 0.156345 0.987703<-67.7207 805.911> 1312 582 1458 604 0.156611 0.98766<-258.898 791.77>
LayerCount: 2
Fore
SplineSet
536 598 m 2
 528 548 524 504 524 464 c 0
 524 216 660 112 862 112 c 0
 1208 112 1282 394 1312 582 c 2
 1436 1364 l 1
 1236 1414 l 1
 1254 1506 l 1
 1806 1506 l 1
 1786 1414 l 1
 1584 1368 l 1
 1458 604 l 1
 1380 138 1118 -32 764 -32 c 0
 570 -32 300 40 300 416 c 0
 300 462 304 512 312 568 c 2
 438 1364 l 1
 232 1414 l 1
 254 1506 l 1
 878 1506 l 1
 860 1414 l 1
 656 1368 l 1
 536 598 l 2
1080 2000 m 0
 1008 2000 976 1932 976 1864 c 0
 976 1790 1014 1708 1092 1708 c 0
 1158 1708 1196 1758 1196 1846 c 0
 1196 1922 1156 2000 1080 2000 c 0
1094 2058 m 0
 1210 2058 1282 1976 1282 1862 c 0
 1282 1752 1202 1650 1078 1650 c 0
 966 1650 890 1726 890 1850 c 0
 890 1962 980 2058 1094 2058 c 0
EndSplineSet
Validated: 1
EndChar

StartChar: Zacute
Encoding: 377 377 258
Width: 1221
Flags: W
HStem: 0 122<286 932> 1392 114<448 1098>
DStem2: 38 126 286 122 0.643442 0.765495<156.512 1651.16>
LayerCount: 2
Fore
SplineSet
278 1506 m 1
 1386 1506 l 1
 1372 1414 l 1
 286 122 l 1
 932 122 l 1
 1104 424 l 1
 1214 406 l 1
 1114 0 l 1
 30 0 l 1
 38 126 l 1
 1098 1392 l 1
 448 1392 l 1
 338 1094 l 1
 232 1116 l 1
 278 1506 l 1
1144 2018 m 1
 922 1634 l 1
 860 1672 l 1
 1008 2066 l 1
 1144 2018 l 1
EndSplineSet
Validated: 1
EndChar

StartChar: Zdotaccent
Encoding: 379 379 259
Width: 1221
Flags: W
HStem: 0 122<286 932> 1392 114<448 1098> 1642 286<728 934>
VStem: 686 292<1685.75 1888.25>
DStem2: 38 126 286 122 0.643442 0.765495<156.512 1651.16>
LayerCount: 2
Fore
SplineSet
278 1506 m 1
 1386 1506 l 1
 1372 1414 l 1
 286 122 l 1
 932 122 l 1
 1104 424 l 1
 1214 406 l 1
 1114 0 l 1
 30 0 l 1
 38 126 l 1
 1098 1392 l 1
 448 1392 l 1
 338 1094 l 1
 232 1116 l 1
 278 1506 l 1
830 1928 m 0
 910 1928 978 1868 978 1790 c 0
 978 1708 910 1642 830 1642 c 0
 750 1642 686 1709 686 1791 c 0
 686 1869 754 1928 830 1928 c 0
EndSplineSet
Validated: 1
EndChar

StartChar: abreve
Encoding: 259 259 260
Width: 1019
Flags: W
HStem: -26 154<269 493.62> 946 126<519.186 751.89> 1236 132<662.37 900.482>
VStem: 100 196<180.013 601.716> 550 66<1425.07 1461.73>
DStem2: 650 244 876 458 0.155655 0.987811<-14.8781 687.072>
LayerCount: 2
Fore
SplineSet
896 116 m 2
 978 102 l 1
 954 18 l 1
 912 0 852 -18 784 -18 c 0
 712 -18 640 12 640 100 c 0
 640 104 640 110 640 114 c 2
 644 160 l 1
 630 160 l 1
 574 60 466 -26 344 -26 c 0
 194 -26 100 108 100 332 c 0
 100 808 450 1072 718 1072 c 0
 796 1072 884 1066 942 1030 c 1
 962 1008 l 1
 876 458 l 2
 856 328 844 246 844 196 c 0
 844 140 858 122 896 116 c 2
650 244 m 1
 754 904 l 1
 720 936 666 946 610 946 c 0
 416 946 296 646 296 388 c 0
 296 206 346 128 442 128 c 0
 534 128 594 182 650 244 c 1
550 1452 m 1
 606 1490 l 1
 616 1470 l 2
 640 1422 698 1368 780 1368 c 0
 866 1368 920 1420 952 1472 c 2
 964 1492 l 1
 1014 1458 l 1
 1006 1434 l 2
 973 1336 900 1236 780 1236 c 0
 652 1236 580 1334 556 1428 c 2
 550 1452 l 1
EndSplineSet
Validated: 1
EndChar

StartChar: amacron
Encoding: 257 257 261
Width: 1019
Flags: W
HStem: -26 154<269 493.62> 946 126<519.186 751.89> 1242 122<522 1040>
VStem: 100 196<180.013 601.716>
DStem2: 650 244 876 458 0.155655 0.987811<-14.8781 687.072>
LayerCount: 2
Fore
SplineSet
896 116 m 2
 978 102 l 1
 954 18 l 1
 912 0 852 -18 784 -18 c 0
 712 -18 640 12 640 100 c 0
 640 104 640 110 640 114 c 2
 644 160 l 1
 630 160 l 1
 574 60 466 -26 344 -26 c 0
 194 -26 100 108 100 332 c 0
 100 808 450 1072 718 1072 c 0
 796 1072 884 1066 942 1030 c 1
 962 1008 l 1
 876 458 l 2
 856 328 844 246 844 196 c 0
 844 140 858 122 896 116 c 2
650 244 m 1
 754 904 l 1
 720 936 666 946 610 946 c 0
 416 946 296 646 296 388 c 0
 296 206 346 128 442 128 c 0
 534 128 594 182 650 244 c 1
522 1364 m 1
 1056 1364 l 1
 1040 1242 l 1
 506 1242 l 1
 522 1364 l 1
EndSplineSet
Validated: 1
EndChar

StartChar: aogonek
Encoding: 261 261 262
Width: 1019
Flags: W
HStem: -452 62<981.663 991.711> -26 154<269 493.62> 946 126<519.186 751.89>
VStem: 100 196<180.013 601.716> 694 180<-296.815 -109.156> 944 10<18 20>
DStem2: 650 244 876 458 0.155655 0.987811<-14.8781 687.072>
LayerCount: 2
Fore
SplineSet
896 116 m 2
 978 102 l 1
 954 18 l 1
 944 14 l 1
 948 20 l 1
 862 20 l 1
 822 -16 l 1
 870 -12 912 0 944 14 c 1
 876 -100 874 -142 874 -164 c 0
 874 -240 914 -326 1024 -390 c 1
 982 -452 l 1
 808 -434 694 -340 694 -236 c 0
 694 -178 712 -120 822 -16 c 1
 810 -18 798 -18 784 -18 c 0
 712 -18 640 12 640 100 c 0
 640 104 640 110 640 114 c 2
 644 160 l 1
 630 160 l 1
 574 60 466 -26 344 -26 c 0
 194 -26 100 108 100 332 c 0
 100 808 450 1072 718 1072 c 0
 796 1072 884 1066 942 1030 c 1
 962 1008 l 1
 876 458 l 2
 856 328 844 246 844 196 c 0
 844 140 858 122 896 116 c 2
650 244 m 1
 754 904 l 1
 720 936 666 946 610 946 c 0
 416 946 296 646 296 388 c 0
 296 206 346 128 442 128 c 0
 534 128 594 182 650 244 c 1
EndSplineSet
Validated: 5
EndChar

StartChar: approxequal
Encoding: 8776 8776 263
Width: 1199
Flags: W
HStem: 356 174<727.375 936.572> 412 172<208.822 418.065> 665 175<727.375 936.572> 722 172<208.822 415.36>
VStem: 100 66<340.525 369.684 650.525 679.684> 974 78<563.562 602 873.406 912>
LayerCount: 2
Fore
SplineSet
100 654 m 1x1c
 100 654 156 894 314 894 c 0
 320 894 324 894 330 894 c 2x1c
 871 840 l 2
 873 840 874 840 876 840 c 0
 922 840 974 914 974 914 c 1
 1052 912 l 1
 1052 912 988 665 830 665 c 0x2c
 824 665 818 668 812 668 c 2
 272 722 l 2
 270 722 268 722 266 722 c 0
 216 722 166 638 166 638 c 1
 100 654 l 1x1c
100 344 m 1
 100 344 156 584 314 584 c 0
 320 584 324 584 330 584 c 2x4c
 871 530 l 2
 873 530 874 530 876 530 c 0
 922 530 974 604 974 604 c 1
 1052 602 l 1
 1052 602 988 356 830 356 c 0x8c
 824 356 818 359 812 359 c 2
 272 412 l 2
 270 412 268 412 266 412 c 0x4c
 216 412 166 328 166 328 c 1
 100 344 l 1
EndSplineSet
Validated: 1
EndChar

StartChar: cacute
Encoding: 263 263 264
Width: 818
Flags: W
HStem: -36 148<353.034 562.754> 976 114<464.538 681.209>
VStem: 72 208<195.781 638.191> 652 168<860.125 944.324>
LayerCount: 2
Fore
SplineSet
280 400 m 0
 280 232 334 112 464 112 c 0
 564 112 626 148 686 188 c 1
 714 128 l 1
 640 36 508 -36 390 -36 c 0
 192 -36 72 112 72 372 c 0
 72 816 408 1090 616 1090 c 0
 746 1090 820 1020 820 916 c 0
 820 832 740 786 652 778 c 1
 646 860 624 976 556 976 c 0
 438 976 280 752 280 400 c 0
940 1590 m 1
 718 1206 l 1
 656 1244 l 1
 804 1638 l 1
 940 1590 l 1
EndSplineSet
Validated: 1
EndChar

StartChar: ccaron
Encoding: 269 269 265
Width: 818
Flags: W
HStem: -36 148<353.034 562.754> 976 114<464.538 681.209>
VStem: 72 208<195.781 638.191> 652 168<860.125 944.324>
DStem2: 480 1490 382 1416 0.736873 -0.676031<0 250.267> 672 1316 665 1232 0.692049 0.72185<0 226.522>
LayerCount: 2
Fore
SplineSet
280 400 m 0
 280 232 334 112 464 112 c 0
 564 112 626 148 686 188 c 1
 714 128 l 1
 640 36 508 -36 390 -36 c 0
 192 -36 72 112 72 372 c 0
 72 816 408 1090 616 1090 c 0
 746 1090 820 1020 820 916 c 0
 820 832 740 786 652 778 c 1
 646 860 624 976 556 976 c 0
 438 976 280 752 280 400 c 0
600 1216 m 1
 382 1416 l 1
 480 1490 l 1
 660 1316 l 1
 672 1316 l 1
 822 1486 l 1
 874 1450 l 1
 665 1232 l 1
 600 1216 l 1
EndSplineSet
Validated: 1
EndChar

StartChar: commaaccent
Encoding: 806 806 266
Width: 1199
Flags: W
HStem: -484 48<-8.38933 44.48> -236 128<53.4244 162>
VStem: 134 108<-357.585 -185.773>
LayerCount: 2
Fore
SplineSet
-6 -484 m 1
 -14 -436 l 1
 80 -410 134 -350 134 -306 c 0
 134 -266 112 -236 62 -236 c 0
 56 -236 50 -238 42 -240 c 1
 38 -226 36 -220 36 -202 c 0
 36 -144 100 -108 138 -108 c 0
 186 -108 242 -132 242 -240 c 0
 242 -306 186 -436 -6 -484 c 1
EndSplineSet
Validated: 1
EndChar

StartChar: dcaron
Encoding: 271 271 267
Width: 979
Flags: W
HStem: -26 154<238 461.858> 908 84<7.61067 96.7563> 946 126<488.924 720.954> 1332 220<122 299> 1432 88<652 713.056>
VStem: 72 196<181.791 593.547> 250 186<1172.67 1418>
DStem2: 616 244 844 460 0.127147 0.991884<-60.4102 691.849> 762 1064 1010 1522 0.154434 0.988003<-832.71 -151.704 0 339.073>
LayerCount: 2
Fore
SplineSet
864 118 m 2xac
 944 104 l 1
 920 18 l 1
 880 4 820 -18 752 -18 c 0
 648 -18 610 32 608 90 c 0
 608 118 612 146 614 160 c 1
 598 160 l 1
 542 60 434 -26 312 -26 c 0
 164 -26 72 71 72 328 c 0
 72 768 406 1072 670 1072 c 0
 700 1072 728 1072 754 1064 c 1
 762 1064 l 1
 808 1400 l 1
 636 1432 l 1
 652 1520 l 1
 986 1550 l 1
 1010 1522 l 1
 844 460 l 1
 824 322 812 242 812 194 c 0
 812 136 828 124 864 118 c 2xac
616 244 m 1
 722 902 l 1
 692 928 652 946 580 946 c 0
 386 946 268 652 268 400 c 0
 268 202 322 128 418 128 c 0
 512 128 562 182 616 244 c 1
10 908 m 1xd2
 -4 992 l 1
 158 1034 250 1136 250 1214 c 0
 250 1280 214 1332 128 1332 c 0
 116 1332 106 1328 92 1324 c 1
 86 1350 84 1360 84 1390 c 0
 84 1490 195 1552 257 1552 c 0
 341 1552 436 1510 436 1326 c 0
 436 1212 340 992 10 908 c 1xd2
EndSplineSet
Validated: 1
EndChar

StartChar: dcroat
Encoding: 273 273 268
Width: 979
Flags: W
HStem: -26 154<238 461.858> 946 126<488.924 720.954> 1432 88<652 713.056> 1670 121<616 1134>
VStem: 72 196<181.791 593.547>
DStem2: 616 244 844 460 0.127147 0.991884<-60.4102 691.849> 762 1064 1010 1522 0.154434 0.988003<-832.71 -151.704 0 339.073>
LayerCount: 2
Fore
SplineSet
864 118 m 2
 944 104 l 1
 920 18 l 1
 880 4 820 -18 752 -18 c 0
 648 -18 610 32 608 90 c 0
 608 118 612 146 614 160 c 1
 598 160 l 1
 542 60 434 -26 312 -26 c 0
 164 -26 72 71 72 328 c 0
 72 768 406 1072 670 1072 c 0
 700 1072 728 1072 754 1064 c 1
 762 1064 l 1
 808 1400 l 1
 636 1432 l 1
 652 1520 l 1
 986 1550 l 1
 1010 1522 l 1
 844 460 l 1
 824 322 812 242 812 194 c 0
 812 136 828 124 864 118 c 2
616 244 m 1
 722 902 l 1
 692 928 652 946 580 946 c 0
 386 946 268 652 268 400 c 0
 268 202 322 128 418 128 c 0
 512 128 562 182 616 244 c 1
616 1791 m 5
 1150 1791 l 5
 1134 1670 l 5
 600 1670 l 5
 616 1791 l 5
EndSplineSet
Validated: 1
EndChar

StartChar: dotlessj
Encoding: 567 567 269
Width: 545
Flags: W
HStem: 932 92<108 184.773> 1034 20G<218.667 458.571>
VStem: -180 646
DStem2: 132 120 320 104 0.156403 0.987693<-233.319 795.877>
LayerCount: 2
Fore
SplineSet
-120 -468 m 1
 -180 -372 l 1
 0 -240 102 -84 132 120 c 1
 257 906 l 1
 96 932 l 1
 108 1024 l 1
 440 1054 l 1
 466 1026 l 1
 320 104 l 2
 266 -238 6 -408 -120 -468 c 1
EndSplineSet
Validated: 1
EndChar

StartChar: ecaron
Encoding: 283 283 270
Width: 823
Flags: W
HStem: -36 160<335.609 554.56> 966 112<396.398 582.043>
VStem: 42 194<228.784 593.075> 612 184<648.018 936.749>
DStem2: 460 1490 362 1416 0.736873 -0.676031<0 250.267> 652 1316 646 1232 0.690318 0.723506<0 226.544>
LayerCount: 2
Fore
SplineSet
257 620 m 1
 586 646 l 1
 608 690 612 732 612 790 c 1
 610 870 594 966 496 966 c 0
 412 966 309 872 257 620 c 1
796 792 m 0
 796 690 772 618 738 554 c 1
 244 532 l 1
 238 498 236 422 236 392 c 0
 238 212 346 124 484 124 c 0
 548 124 684 184 712 214 c 1
 744 160 l 1
 690 76 536 -36 370 -36 c 0
 116 -36 42 166 42 370 c 0
 42 748 268 1078 568 1078 c 0
 728 1078 796 964 796 792 c 0
580 1216 m 1
 362 1416 l 1
 460 1490 l 1
 640 1316 l 1
 652 1316 l 1
 802 1486 l 1
 854 1450 l 1
 646 1232 l 1
 580 1216 l 1
EndSplineSet
Validated: 1
EndChar

StartChar: edotaccent
Encoding: 279 279 271
Width: 823
Flags: W
HStem: -36 160<335.609 554.56> 966 112<396.398 582.043> 1214 286<505.5 710>
VStem: 42 194<228.784 593.075> 462 292<1258.25 1458.95> 612 184<648.018 936.749>
LayerCount: 2
Fore
SplineSet
257 620 m 1xf4
 586 646 l 1
 608 690 612 732 612 790 c 1
 610 870 594 966 496 966 c 0
 412 966 309 872 257 620 c 1xf4
796 792 m 0
 796 690 772 618 738 554 c 1
 244 532 l 1
 238 498 236 422 236 392 c 0
 238 212 346 124 484 124 c 0
 548 124 684 184 712 214 c 1
 744 160 l 1
 690 76 536 -36 370 -36 c 0
 116 -36 42 166 42 370 c 0
 42 748 268 1078 568 1078 c 0
 728 1078 796 964 796 792 c 0
606 1500 m 0
 686 1500 754 1440 754 1362 c 0
 754 1280 686 1214 606 1214 c 0
 526 1214 462 1282 462 1364 c 0xf8
 462 1442 530 1500 606 1500 c 0
EndSplineSet
Validated: 1
EndChar

StartChar: eight.osf
Encoding: 1114115 -1 272
Width: 1003
Flags: W
HStem: -32 112<410.771 667.56> 1362 92<593.351 813.759>
VStem: 128 212<158.594 441.621> 308 196<985.826 1196.95> 788 204<250.364 476.01> 864 188<1021.85 1310.59>
LayerCount: 2
Fore
SplineSet
524 672 m 1xe8
 452 622 340 464 340 324 c 0
 340 208 394 80 522 80 c 0
 658 80 788 180 788 344 c 0
 788 472 682 562 524 672 c 1xe8
128 272 m 0
 128 452 268 604 460 714 c 1
 462 724 l 1
 380 778 308 868 308 1032 c 0
 308 1248 542 1454 754 1454 c 0
 940 1454 1052 1360 1052 1192 c 0xd4
 1052 1040 946 886 788 782 c 1
 786 770 l 1
 946 658 992 569 992 416 c 0
 992 176 728 -32 450 -32 c 0
 228 -32 128 116 128 272 c 0
712 820 m 1
 772 874 864 988 864 1156 c 0
 864 1248 834 1362 706 1362 c 0
 610 1362 504 1260 504 1164 c 0
 504 1030 559 918 712 820 c 1
EndSplineSet
Validated: 1
EndChar

StartChar: emacron
Encoding: 275 275 273
Width: 823
Flags: W
HStem: -36 160<335.609 554.56> 966 112<396.398 582.043> 1242 122<348 866>
VStem: 42 194<228.784 593.075> 612 184<648.018 936.749>
LayerCount: 2
Fore
SplineSet
257 620 m 1
 586 646 l 1
 608 690 612 732 612 790 c 1
 610 870 594 966 496 966 c 0
 412 966 309 872 257 620 c 1
796 792 m 0
 796 690 772 618 738 554 c 1
 244 532 l 1
 238 498 236 422 236 392 c 0
 238 212 346 124 484 124 c 0
 548 124 684 184 712 214 c 1
 744 160 l 1
 690 76 536 -36 370 -36 c 0
 116 -36 42 166 42 370 c 0
 42 748 268 1078 568 1078 c 0
 728 1078 796 964 796 792 c 0
348 1364 m 1
 882 1364 l 1
 866 1242 l 1
 332 1242 l 1
 348 1364 l 1
EndSplineSet
Validated: 1
EndChar

StartChar: emptyset
Encoding: 8709 8709 274
Width: 1199
Flags: W
HStem: -46 126<434.969 791.005> 996 130<571.809 927.539> 1058 20G<1224.4 1259.45>
VStem: 112 156<321.307 660.71> 1076 164<415.064 774.235>
DStem2: 26 116 78 6 0.786229 0.617935<0 149.404 328.906 1219.23 1389.73 1529.71>
LayerCount: 2
Fore
SplineSet
338 210 m 1x98
 398 128 492 80 606 80 c 0
 834 80 1076 260 1076 632 c 0
 1076 686 1070 734 1058 776 c 1
 338 210 l 1x98
268 440 m 0
 268 396 274 358 284 320 c 1
 1004 884 l 1
 948 956 862 996 750 996 c 0xd8
 522 996 268 792 268 440 c 0
26 116 m 1
 152 216 l 1
 124 280 112 352 112 428 c 0
 112 832 486 1126 770 1126 c 0xd8
 932 1126 1046 1064 1122 978 c 1
 1250 1078 l 1xb8
 1302 968 l 1
 1188 878 l 1
 1224 806 1240 728 1240 660 c 0
 1240 264 922 -46 586 -46 c 0
 418 -46 294 16 214 114 c 1
 78 6 l 1
 26 116 l 1
EndSplineSet
Validated: 1
EndChar

StartChar: eogonek
Encoding: 281 281 275
Width: 823
Flags: W
HStem: -452 62<583.663 593.711> -20 20G<508 517> 0 21G<550 585> 20 104<415.888 550> 966 112<396.398 582.043>
VStem: 42 194<228.784 593.075> 296 180<-296.815 -110.111> 612 184<648.018 936.749>
LayerCount: 2
Fore
SplineSet
257 620 m 1xcf
 586 646 l 1
 608 690 612 732 612 790 c 1
 610 870 594 966 496 966 c 0
 412 966 309 872 257 620 c 1xcf
796 792 m 0
 796 690 772 618 738 554 c 1
 244 532 l 1
 238 498 236 422 236 392 c 0
 238 212 346 124 484 124 c 0
 548 124 684 184 712 214 c 1
 744 160 l 1
 710 106 632 40 538 0 c 1
 550 20 l 1
 464 20 l 1xdf
 442 0 422 -18 406 -34 c 1
 452 -30 496 -18 538 0 c 1
 478 -104 476 -144 476 -164 c 0
 476 -240 516 -326 626 -390 c 1
 584 -452 l 1
 410 -434 296 -340 296 -236 c 0
 296 -182 312 -128 406 -34 c 1
 394 -36 382 -36 370 -36 c 0
 116 -36 42 166 42 370 c 0
 42 748 268 1078 568 1078 c 0
 728 1078 796 964 796 792 c 0
EndSplineSet
Validated: 5
EndChar

StartChar: five.osf
Encoding: 1114116 -1 276
Width: 951
Flags: W
HStem: -360 110<233.037 495.406>
VStem: 688 232<39.322 311.551>
DStem2: 274 486 448 660 0.313461 0.949601<219.773 500.56> 478 1104 544 924 0.99647 0.0839517<50.6557 469.531>
LayerCount: 2
Fore
SplineSet
1024 1150 m 1
 962 952 l 1
 544 924 l 1
 448 660 l 1
 786 600 920 444 920 240 c 0
 920 -80 594 -360 274 -360 c 0
 44 -360 -16 -288 -16 -212 c 0
 -16 -152 54 -88 128 -74 c 1
 156 -124 224 -250 356 -250 c 0
 512 -250 688 -68 688 148 c 0
 688 308 598 448 274 486 c 1
 478 1104 l 1
 1024 1150 l 1
EndSplineSet
Validated: 1
EndChar

StartChar: four.osf
Encoding: 1114117 -1 277
Width: 1153
Flags: W
HStem: 108 149<364 752 974 1238>
DStem2: 150 198 364 257 0.673706 0.738999<187.774 939.336> 676 -368 884 -324 0.154681 0.987964<75.6441 482.027 663.573 1202.47>
LayerCount: 2
Fore
SplineSet
676 -368 m 1
 752 108 l 1
 164 108 l 1
 150 198 l 1
 1058 1194 l 1
 1132 1172 l 1
 1102 1028 1054 744 1018 524 c 2
 974 257 l 1
 1282 257 l 1
 1238 104 l 1
 952 104 l 1
 884 -324 l 1
 676 -368 l 1
772 257 m 1
 862 820 l 1
 364 257 l 1
 772 257 l 1
EndSplineSet
Validated: 1
EndChar

